<svg xmlns="http://www.w3.org/2000/svg" viewBox="0 0 700 500">
  <path fill="#ddd" d="M155.136 490.056c-12.35-3.77-24.91-15.003-27.887-24.942-3.81-12.688 1.29-19.492 34.71-46.362 12.53-10.08 23.45-19.4 24.26-20.716 3.19-5.193-.48-5.903-34.33-6.637-31.05-.68-32.52-.84-39.15-4.21-9.81-4.99-13.64-12.56-12.58-24.88 1.38-15.99 11.31-30.72 22.09-32.74 7.12-1.34 15.1 1.49 26.96 9.54 5.92 4.02 17.81 12.12 26.41 17.99 8.6 5.87 16.89 10.68 18.42 10.68 3.65 0 5.6-5.27 4.17-11.27-.62-2.58-4.44-15.63-8.5-28.99-10.78-35.5-10.04-45.37 3.89-52.2 7.88-3.87 28.21-3.61 35.91.45 13.99 7.38 14.34 16.68 2.11 56.53-9.07 29.54-9.41 31.23-6.84 33.8 3.1 3.1 6.58 1.69 22.255-9.02 8.6-5.87 20.49-13.97 26.41-17.997 17.01-11.555 26.944-12.78 36.4-4.475 7.676 6.74 12.4 17.96 12.464 29.6.07 12.52-2.92 18.025-12.44 22.92-6.614 3.406-7.974 3.55-39.11 4.23-33.84.734-37.51 1.44-34.334 6.64.807 1.31 12.7 11.4 26.44 22.42 25.12 20.14 31.77 27.03 33.256 34.44 3.11 15.57-16.83 35.46-35.78 35.67-8.38.1-12.99-2.2-18.09-9.03-1.39-1.863-7.29-16.82-13.11-33.23-10.02-28.26-13.93-36.08-18.03-36.08-3.65 0-7.19 6.07-12.36 21.22-9.51 27.87-15.45 42.475-19.343 47.58-6.914 9.065-14.715 11.96-24.32 9.03m277.64 0c-12.35-3.77-24.91-15.006-27.89-24.945-3.8-12.69 1.3-19.49 34.72-46.36 12.53-10.08 23.45-19.4 24.26-20.715 3.19-5.19-.48-5.9-34.33-6.64-31.045-.67-32.516-.83-39.15-4.2-9.81-4.983-13.64-12.56-12.58-24.88 1.38-15.99 11.32-30.71 22.09-32.73 7.12-1.336 15.11 1.49 26.96 9.545 5.926 4.023 17.81 12.122 26.414 17.995 8.602 5.874 16.894 10.68 18.43 10.68 3.65 0 5.6-5.266 4.166-11.27-.62-2.58-4.44-15.627-8.5-28.99-10.77-35.5-10.04-45.367 3.9-52.197 7.88-3.86 28.21-3.605 35.91.454 14 7.38 14.344 16.69 2.114 56.53-9.064 29.55-9.41 31.23-6.83 33.81 3.1 3.1 6.58 1.69 22.26-9.01 8.605-5.875 20.49-13.974 26.416-18 17.01-11.56 26.94-12.78 36.4-4.48 7.673 6.74 12.4 17.96 12.46 29.6.07 12.52-2.918 18.025-12.436 22.923-6.61 3.402-7.972 3.55-39.11 4.224-33.84.735-37.51 1.444-34.332 6.638.8 1.32 12.7 11.41 26.44 22.42 25.12 20.15 31.77 27.04 33.25 34.45 3.113 15.57-16.83 35.46-35.777 35.67-8.384.1-12.99-2.2-18.086-9.03-1.39-1.86-7.29-16.82-13.11-33.23-10.02-28.26-13.93-36.08-18.03-36.08-3.66 0-7.2 6.074-12.37 21.22-9.517 27.873-15.455 42.48-19.348 47.58-6.91 9.07-14.71 11.963-24.32 9.03M295.35 226.29c-12.352-3.773-24.91-15.005-27.89-24.944-3.8-12.688 1.294-19.492 34.717-46.362 12.535-10.08 23.453-19.4 24.26-20.716 3.19-5.196-.48-5.905-34.327-6.64-31.047-.672-32.518-.83-39.15-4.2-9.81-4.985-13.64-12.563-12.58-24.878 1.38-15.99 11.315-30.71 22.09-32.73 7.12-1.338 15.105 1.49 26.96 9.543 5.924 4.026 17.81 12.125 26.41 17.998 8.606 5.88 16.9 10.68 18.43 10.68 3.65 0 5.6-5.26 4.17-11.27-.615-2.58-4.44-15.63-8.492-28.99-10.778-35.5-10.04-45.36 3.892-52.19 7.878-3.86 28.208-3.6 35.907.46 14 7.38 14.347 16.69 2.117 56.53-9.07 29.55-9.41 31.23-6.834 33.81 3.104 3.1 6.584 1.69 22.26-9.01 8.6-5.87 20.49-13.97 26.415-17.99 17.01-11.56 26.944-12.78 36.4-4.48 7.677 6.74 12.4 17.96 12.464 29.6.07 12.52-2.92 18.03-12.44 22.92-6.62 3.41-7.98 3.55-39.11 4.23-33.85.74-37.51 1.44-34.34 6.64.8 1.31 12.7 11.4 26.44 22.42 25.12 20.14 31.77 27.03 33.25 34.44 3.11 15.57-16.83 35.46-35.78 35.67-8.38.1-12.99-2.2-18.09-9.03-1.4-1.86-7.3-16.82-13.11-33.23-10.02-28.26-13.93-36.08-18.03-36.08-3.66 0-7.2 6.07-12.37 21.22-9.52 27.87-15.46 42.48-19.35 47.58-6.92 9.07-14.72 11.96-24.33 9.03z"/>
  <path fill="#000" d="M79.284 189.533c0-12.32-.234-24.407-.7-36.26-.467-11.854-.98-23.94-1.54-36.26 8.4.373 16.753.7 25.06.98 8.306.28 16.66.42 25.06.42 8.4 0 16.893-.14 25.48-.42 8.586-.28 17.92-.607 28-.98-.56 2.8-.84 5.6-.84 8.4 0 2.8.28 5.6.84 8.4-5.04-.56-11.107-1.074-18.2-1.54-7.094-.467-14.327-.84-21.7-1.12-7.374-.28-14.467-.514-21.28-.7-6.814-.187-12.46-.28-16.94-.28-.187 6.533-.327 12.786-.42 18.76-.094 5.973-.14 11.946-.14 17.92 0 6.533.046 12.553.14 18.06.093 5.506.14 11.246.14 17.22 12.32 0 24.5-.187 36.54-.56 12.04-.374 23.94-1.12 35.7-2.24-.747 2.8-1.12 5.6-1.12 8.4 0 2.8.373 5.6 1.12 8.4-4.667-.56-9.94-.98-15.82-1.26-5.88-.28-11.994-.514-18.34-.7-6.347-.187-12.787-.28-19.32-.28h-18.76v23.8c0 12.32.233 24.453.7 36.4.466 11.946.98 23.706 1.54 35.28-4.294-.374-8.867-.56-13.72-.56-4.854 0-9.427.186-13.72.56.56-11.574 1.073-23.334 1.54-35.28.466-11.947.7-24.08.7-36.4v-48.16m190.393 50.12c-3.173 1.12-6.86 2.053-11.06 2.8-4.2.746-8.446 1.54-12.74 2.38-4.293.84-8.54 1.913-12.74 3.22-4.2 1.306-7.933 3.08-11.2 5.32-3.266 2.24-5.88 5.04-7.84 8.4-1.96 3.36-2.94 7.653-2.94 12.88 0 8.773 2.52 15.4 7.56 19.88 5.04 4.48 10.64 6.72 16.8 6.72 7.094 0 13.58-1.96 19.46-5.88 5.88-3.92 10.407-8.494 13.58-13.72l1.12-42m-69.16-49.84c8.4-6.347 16.147-10.64 23.24-12.88 7.094-2.24 14.374-3.36 21.84-3.36 6.72 0 12.88.98 18.48 2.94s10.36 4.76 14.28 8.4c3.92 3.64 7 8.026 9.24 13.16 2.24 5.133 3.36 10.78 3.36 16.94 0 10.64-.186 21.233-.56 31.78-.373 10.546-.56 21.7-.56 33.46 0 2.24.047 4.62.14 7.14.094 2.52.514 4.76 1.26 6.72.747 1.96 1.82 3.593 3.22 4.9 1.4 1.306 3.5 1.96 6.3 1.96.934 0 1.914-.047 2.94-.14 1.027-.094 2.007-.42 2.94-.98v6.16c-2.053.933-4.62 1.68-7.7 2.24-3.08.56-6.486.84-10.22.84-5.973 0-10.546-1.54-13.72-4.62-3.173-3.08-5.04-7.047-5.6-11.9-6.72 6.72-13.346 11.666-19.88 14.84-6.533 3.173-14.56 4.76-24.08 4.76-4.666 0-9.24-.654-13.72-1.96-4.48-1.307-8.446-3.454-11.9-6.44-3.453-2.987-6.253-6.58-8.4-10.78-2.146-4.2-3.22-9.007-3.22-14.42 0-11.2 3.5-19.88 10.5-26.04s16.66-10.267 28.98-12.32c10.08-1.68 17.967-3.127 23.66-4.34 5.694-1.214 9.894-2.474 12.6-3.78 2.707-1.307 4.34-2.847 4.9-4.62.56-1.774.84-4.06.84-6.86 0-4.667-.56-9.147-1.68-13.44-1.12-4.294-2.893-8.027-5.32-11.2-2.426-3.174-5.6-5.74-9.52-7.7s-8.68-2.94-14.28-2.94c-7.466 0-14.42 1.68-20.86 5.04-6.44 3.36-11.246 8.026-14.42 14h-3.08v-14.56m235.2 48.72c0-8.587-1.073-16.194-3.22-22.82-2.146-6.627-4.946-12.18-8.4-16.66-3.453-4.48-7.466-7.887-12.04-10.22-4.573-2.334-9.286-3.5-14.14-3.5-5.786 0-11.34 1.073-16.66 3.22-5.32 2.146-9.94 5.693-13.86 10.64-3.92 4.946-7.046 11.386-9.38 19.32-2.333 7.933-3.5 17.686-3.5 29.26 0 37.52 13.627 56.28 40.88 56.28 5.787 0 11.107-1.54 15.96-4.62 4.854-3.08 9.1-7.514 12.74-13.3 3.64-5.787 6.487-12.694 8.54-20.72 2.054-8.027 3.08-16.987 3.08-26.88m24.64.84c0 10.826-1.633 20.72-4.9 29.68-3.266 8.96-7.746 16.66-13.44 23.1-5.693 6.44-12.413 11.386-20.16 14.84-7.746 3.453-16.1 5.18-25.06 5.18-8.96 0-17.033-1.914-24.22-5.74-7.186-3.827-12.646-8.447-16.38-13.86-6.72 5.413-12.973 10.826-18.76 16.24h-5.04c.374-4.48.7-9.894.98-16.24.28-6.347.514-13.114.7-20.3.187-7.187.327-14.514.42-21.98.094-7.467.14-14.374.14-20.72v-50.68c0-6.347-.046-13.254-.14-20.72-.093-7.467-.233-14.84-.42-22.12-.186-7.28-.42-14.234-.7-20.86-.28-6.627-.606-12.274-.98-16.94 5.227.933 9.427 1.4 12.6 1.4 2.054 0 4.2-.14 6.44-.42 2.24-.28 4.667-.607 7.28-.98-.56 3.733-1.026 9.66-1.4 17.78-.373 8.12-.653 17.173-.84 27.16-.186 9.986-.373 20.253-.56 30.8-.186 10.546-.373 20.113-.56 28.7h.56c6.347-10.08 13.347-17.454 21-22.12 7.654-4.667 16.52-7 26.6-7 9.707 0 18.107 1.82 25.2 5.46 7.094 3.64 12.974 8.446 17.64 14.42 4.667 5.973 8.167 12.926 10.5 20.86 2.334 7.933 3.5 16.286 3.5 25.06m40.312-60.48c0-6.347-.05-13.254-.14-20.72-.1-7.467-.24-14.84-.42-22.12-.19-7.28-.42-14.234-.7-20.86-.28-6.627-.61-12.274-.98-16.94 5.22.933 9.42 1.4 12.6 1.4 3.17 0 7.37-.467 12.6-1.4-.38 4.666-.7 10.313-.98 16.94-.28 6.626-.52 13.58-.7 20.86-.19 7.28-.33 14.653-.42 22.12-.1 7.466-.14 14.373-.14 20.72v50.68c0 6.346.04 13.253.14 20.72.09 7.466.23 14.84.42 22.12.18 7.28.42 14.186.7 20.72.28 6.533.6 11.946.98 16.24-4.3-.374-8.5-.56-12.6-.56-4.11 0-8.31.186-12.6.56.37-4.294.7-9.707.98-16.24.28-6.534.51-13.44.7-20.72.18-7.28.32-14.654.42-22.12.09-7.467.14-14.374.14-20.72v-50.68m134.66 20.44c-.94-1.12-2.76-2.147-5.46-3.08-2.71-.934-5.46-1.4-8.26-1.4-4.48 0-8.5 1.026-12.04 3.08-3.55 2.053-6.54 4.806-8.96 8.26-2.43 3.453-4.3 7.56-5.6 12.32-1.31 4.76-1.96 9.846-1.96 15.26v30.8c0 12.506.04 22.073.14 28.7.09 6.626.42 11.993.98 16.1-3.74-.374-7.47-.56-11.2-.56-4.11 0-8.03.186-11.76.56.56-6.347.88-14.98.98-25.9.09-10.92.14-24.314.14-40.18v-8.96c0-7.28-.05-15.68-.14-25.2-.1-9.52-.42-20.44-.98-32.76 2.05.373 4.01.7 5.88.98 1.86.28 3.82.42 5.88.42 1.68 0 3.45-.14 5.32-.42 1.86-.28 3.82-.607 5.88-.98-.75 6.72-1.17 12.04-1.26 15.96-.1 3.92-.14 7.653-.14 11.2l.56.28c11.01-20.16 23.33-30.24 36.96-30.24 1.68 0 3.12.093 4.34.28 1.21.186 2.75.653 4.62 1.4-.94 2.24-1.5 5.646-1.68 10.22-.19 4.573-.28 8.726-.28 12.46l-1.96 1.4z"/>
</svg>