<?xml version="1.0" encoding="utf-8"?>
<!-- Generator: Adobe Illustrator 23.0.1, SVG Export Plug-In . SVG Version: 6.00 Build 0)  -->
<svg version="1.1" id="Layer_1" xmlns="http://www.w3.org/2000/svg" xmlns:xlink="http://www.w3.org/1999/xlink" x="0px" y="0px"
	 viewBox="0 0 598 521" style="enable-background:new 0 0 598 521;" xml:space="preserve">
<g>
	<path class="st0" d="M549.1,435.7l-48.3-84.3l0,0l-0.3-0.6l-2.2-3.9L496,343l-2.5-3.7l-2.6-3.6l-2.8-3.5l-2.9-3.5l-3.1-3.3
		l-3.2-3.3l-3.4-3.1l-3.5-3l-3.6-2.9l-3.8-2.7l-3.9-2.6l-4.1-2.5l-4.2-2.3l-4.2-2.1l-4.3-1.9l-4.3-1.7l-4.4-1.6l-4.4-1.4l-4.4-1.2
		l-4.4-1l-4.4-0.8l-4.5-0.7l-4.5-0.5l-4.5-0.3l-4.5-0.1l-1.5,0l1.1-1.9l2.1-3.9l2-4l1.8-4.1l1.7-4.2l1.5-4.3l1.3-4.3l1.2-4.4l1-4.5
		l0.8-4.5l0.7-4.6l0.5-4.7l0.3-4.7l0.1-4.8l-0.1-4.8l-0.3-4.7l-0.5-4.7l-0.7-4.6l-0.8-4.5l-1-4.5l-1.2-4.4l-1.3-4.3L407,190
		l-1.7-4.2l-1.8-4.1l-2-4l-2.1-3.9l-2.3-3.8l-0.4-0.6h0l-48.6-84.2L299,0l-49.2,85.2l-48.6,84.2l-0.4,0.5l-2.3,3.8l-2.1,3.9l-2,4
		l-1.8,4.1l-1.7,4.2l-1.5,4.3l-1.4,4.3l-1.2,4.4l-1,4.5L185,212l-0.7,4.6l-0.5,4.7l-0.3,4.7l-0.1,4.8l0.1,4.8l0.3,4.7l0.5,4.7
		l0.7,4.6l0.8,4.5l1,4.5l1.2,4.4l1.4,4.3l1.5,4.3l1.7,4.2l1.8,4.1l2,4l2.1,3.9l1.1,1.9l-1.5,0l-4.5,0.1l-4.5,0.3l-4.5,0.5l-4.5,0.7
		l-4.4,0.8l-4.4,1l-4.4,1.2l-4.4,1.4l-4.4,1.6l-4.3,1.7l-4.3,1.9l-4.2,2.1l-4.2,2.3l-4.1,2.5l-3.9,2.6l-3.8,2.7l-3.6,2.9l-3.5,3
		l-3.4,3.1l-3.2,3.3l-3.1,3.3l-2.9,3.5l-2.8,3.5l-2.6,3.6L102,343l-2.3,3.8l-2.2,3.9l-0.3,0.6l0,0l-48.3,84.3L0,521l98.4-0.3
		l97.2-0.3l0.7,0l4.5,0l4.5-0.1l4.5-0.3l4.5-0.5l4.4-0.7l4.4-0.8l4.4-1l4.4-1.2l4.4-1.4l4.3-1.6l4.3-1.7l4.3-1.9l4.2-2.1l4.2-2.3
		l4.1-2.5l3.9-2.6l3.8-2.7l3.6-2.9l3.5-3l3.4-3.1l3.2-3.2l3.1-3.4l2.9-3.4l2.8-3.6l2.6-3.6l2.5-3.7l2.1-3.5l2.1,3.5l2.5,3.7l2.6,3.6
		l2.8,3.6l2.9,3.4l3.1,3.4l3.2,3.2l3.4,3.1l3.5,3l3.6,2.9l3.8,2.7l3.9,2.6l4.1,2.5l4.2,2.3l4.2,2.1l4.3,1.9l4.3,1.7l4.3,1.6l4.4,1.4
		l4.4,1.2l4.4,1l4.4,0.8l4.4,0.7l4.5,0.5l4.5,0.3l4.5,0.1l4.5,0l0.7,0l97.2,0.3L598,521L549.1,435.7z M282.9,407.3l-0.2,3.2
		l-0.3,3.2l-0.4,3.2l-0.5,3.2l-0.6,3.2l-0.8,3.1l-0.9,3.1l-1,3.1l-1.1,3l-1.2,2.9l-1.4,3l-1.4,2.9l-1.6,2.8l-1.7,2.8l-1.8,2.7
		l-1.9,2.6l-2,2.5l-2.1,2.5l-2.2,2.4l-2.3,2.3l-2.4,2.2l-2.5,2.2l-2.6,2.1l-2.7,2l-2.9,1.9l-3,1.8l-3,1.7l-3.1,1.5l-3.1,1.4
		l-3.1,1.3l-3.1,1.1l-3.2,1l-3.2,0.9l-3.2,0.7l-3.2,0.6l-3.2,0.5l-3.2,0.3l-3.2,0.2l-3.3,0.1l-3.1,0l-0.8,0l-1,0l-97.2,0.3
		l-42.9,0.1l21.4-37.3l48.3-84.3l0.4-0.7l0.4-0.7l0-0.1l1.6-2.8l1.7-2.8l1.8-2.7l1.9-2.6l2-2.6l2.1-2.5l2.2-2.4l2.3-2.4l2.4-2.2
		l2.5-2.2l2.6-2.1l2.7-2l2.9-1.9l3-1.8l3-1.7l3.1-1.5l3.1-1.4l3.1-1.2l3.2-1.1l3.1-1l3.2-0.9l3.2-0.7l3.2-0.6l3.2-0.5l3.2-0.3
		l3.2-0.2l3.2-0.1l3.2,0l3.2,0.2l3.2,0.3l3.2,0.4l3.2,0.5l3.1,0.6l3.1,0.8l3.1,0.9l3.1,1l3,1.1l3,1.2l2.9,1.3l2.9,1.4l2.8,1.6
		l2.8,1.7l2.7,1.8l2.7,1.9l2.5,2l2.5,2.1l2.4,2.2l2.3,2.3l2.3,2.4l2.1,2.5l2.1,2.6l2,2.8l1.9,2.8l1.8,3l1.7,3l1.5,3l1.4,3.1l1.3,3.1
		l1.1,3.1l1,3.1l0.9,3.2l0.7,3.2l0.6,3.2l0.5,3.2l0.3,3.2l0.2,3.2l0.1,3.2L282.9,407.3z M299,346.5l-0.2-0.4l0.2,0l0.2,0L299,346.5z
		 M312.6,313.1l-3.3,0.5l-3.4,0.3l-3.4,0.2l-3.5,0.1l-3.5-0.1l-3.4-0.2l-3.4-0.3l-3.3-0.5l-3.3-0.6l-3.2-0.7l-3.2-0.9l-3.1-1
		l-3.1-1.1l-3-1.2l-3-1.3l-2.9-1.4l-2.8-1.5l-2.8-1.7l-2.7-1.8l-2.7-1.9l-2.5-1.9l-2.5-2l-2.4-2.2l-2.3-2.2l-2.2-2.3l-2.2-2.4
		l-2-2.5l-1.9-2.5l-1.9-2.7l-1.8-2.7l-1.6-2.7l-1.6-2.9l-1.4-2.9l-1.3-2.9l-1.2-3l-1.1-3.1l-1-3.1l-0.9-3.2l-0.7-3.2l-0.6-3.3
		l-0.5-3.3l-0.3-3.4l-0.2-3.4l-0.1-3.5l0.1-3.5l0.2-3.4l0.3-3.4l0.5-3.3l0.6-3.2l0.7-3.2l0.9-3.2l1-3.1l1.1-3.1l1.2-3l1.3-2.9
		l1.4-2.9l1.6-2.9l1.6-2.7l0.5-0.7l0.5-0.8l48.6-84.2L299,64l21.5,37.2l48.6,84.2l0.4,0.7l0.4,0.7l0,0.1l1.7,2.8l1.5,2.8l1.4,2.9
		l1.3,2.9l1.2,3.1l1.1,3l1,3.1l0.9,3.2l0.7,3.2l0.6,3.3l0.5,3.3l0.3,3.4l0.2,3.4l0.1,3.5l-0.1,3.5l-0.2,3.4l-0.3,3.4l-0.5,3.3
		l-0.6,3.3l-0.7,3.2l-0.9,3.2l-1,3.1l-1.1,3.1l-1.2,3l-1.3,2.9l-1.4,2.9l-1.5,2.8l-1.6,2.8l-1.8,2.7l-1.8,2.6l-2,2.6l-2.1,2.5
		l-2.1,2.4l-2.2,2.3l-2.3,2.2l-2.4,2.2l-2.5,2l-2.5,1.9l-2.6,1.9l-2.7,1.7l-2.8,1.7l-2.8,1.6l-2.9,1.4l-3,1.3l-3,1.2l-3.1,1.1
		l-3.1,1l-3.2,0.9l-3.2,0.7L312.6,313.1z M499.7,488.7l-97.2-0.3l-1,0l-0.8,0l-3.1,0l-3.3-0.1l-3.2-0.2l-3.2-0.3l-3.2-0.5l-3.2-0.6
		l-3.2-0.7l-3.2-0.9l-3.2-1l-3.1-1.1l-3.1-1.3l-3.1-1.4l-3.1-1.5l-3-1.7l-3-1.8l-2.9-1.9l-2.7-2l-2.6-2.1l-2.5-2.2l-2.4-2.2
		l-2.3-2.3l-2.2-2.4l-2.1-2.5l-2-2.5l-1.9-2.6l-1.8-2.7l-1.7-2.8l-1.6-2.8l-1.4-2.9l-1.4-3l-1.2-2.9l-1.1-3l-1-3.1l-0.9-3.1
		l-0.8-3.1l-0.6-3.2l-0.5-3.2l-0.4-3.2l-0.3-3.2l-0.2-3.2l0-3.2l0.1-3.2l0.2-3.2l0.3-3.2l0.5-3.2l0.6-3.2l0.7-3.2l0.9-3.2l1-3.1
		l1.1-3.1l1.3-3.1l1.4-3.1l1.5-3l1.7-3l1.8-3l1.9-2.8l2-2.8l2.1-2.6l2.1-2.5l2.3-2.4l2.3-2.3l2.4-2.2l2.5-2.1l2.5-2l2.7-1.9l2.7-1.8
		l2.8-1.7l2.8-1.6l2.9-1.4l2.9-1.3l3-1.2l3-1.1l3.1-1l3.1-0.9l3.1-0.8l3.1-0.6l3.2-0.5l3.2-0.4l3.2-0.3l3.2-0.2l3.2,0l3.2,0.1
		l3.2,0.2l3.2,0.3l3.2,0.5l3.2,0.6l3.2,0.7l3.2,0.9l3.1,1l3.2,1.1l3.1,1.2l3.1,1.4l3.1,1.5l3,1.7l3,1.8l2.9,1.9l2.7,2l2.6,2.1
		l2.5,2.2l2.4,2.2l2.3,2.4l2.2,2.4l2.1,2.5l2,2.6l1.9,2.6l1.8,2.7l1.7,2.8l1.6,2.8l0,0.1l0.4,0.7l0.4,0.7l48.3,84.3l21.4,37.3
		L499.7,488.7z"/>
	<path class="st0" d="M343.8,230.7c0-24.7-20-44.8-44.8-44.8s-44.8,20-44.8,44.8s20,44.8,44.8,44.8S343.8,255.5,343.8,230.7z
		 M299,246.5c-8.7,0-15.8-7.1-15.8-15.8c0-8.7,7.1-15.8,15.8-15.8c8.7,0,15.8,7.1,15.8,15.8C314.8,239.4,307.7,246.5,299,246.5z"/>
	<path class="st0" d="M200.4,360.2c-7.6,0-15.4,2-22.5,6.1c-21.4,12.4-28.6,39.8-16.2,61.2c8.3,14.3,23.3,22.3,38.7,22.3
		c7.6,0,15.4-2,22.5-6.1c21.4-12.4,28.6-39.8,16.2-61.2C230.8,368.2,215.8,360.2,200.4,360.2z M208.4,418.6
		c-2.4,1.4-5.1,2.1-7.9,2.1c-5.7,0-10.8-2.9-13.7-7.8c-4.4-7.5-1.8-17.2,5.7-21.5c2.4-1.4,5.1-2.1,7.9-2.1h0
		c5.7,0,10.8,2.9,13.7,7.8C218.4,404.6,215.9,414.2,208.4,418.6z"/>
	<path class="st0" d="M420.1,366.3c-7.1-4.1-14.8-6.1-22.5-6.1c-15.4,0-30.4,8-38.7,22.3c-12.4,21.4-5.2,48.8,16.2,61.2
		c7.1,4.1,14.8,6.1,22.5,6.1c15.4,0,30.4-8,38.7-22.3C448.7,406.1,441.4,378.7,420.1,366.3z M411.2,412.9c-2.9,4.9-8,7.8-13.7,7.8
		c-2.8,0-5.4-0.7-7.9-2.1c-3.6-2.1-6.2-5.5-7.3-9.6s-0.5-8.3,1.6-12c2.9-4.9,8-7.8,13.7-7.8c2.8,0,5.4,0.7,7.9,2.1
		C413,395.7,415.5,405.4,411.2,412.9z"/>
</g>
</svg>
