<?xml version="1.0" encoding="utf-8"?>
<!-- Generated by IcoMoon.io -->
<!DOCTYPE svg PUBLIC "-//W3C//DTD SVG 1.1//EN" "http://www.w3.org/Graphics/SVG/1.1/DTD/svg11.dtd">
<svg version="1.1" xmlns="http://www.w3.org/2000/svg" xmlns:xlink="http://www.w3.org/1999/xlink" width="32" height="32" viewBox="0 0 32 32">
<path fill="#000" d="M24 18h-4c-1.063 0-2 1-2 2h8c0-1.063-1-2-2-2zM22.281 5c-5.219 0-6.531 1-7.281 1.75-0.75-0.75-2.063-1.75-7.281-1.75s-7.719 1.438-7.719 2.438v18.313c0.906-0.5 3.719-1.5 6.688-1.75 3.594-0.281 7.313 0.281 7.313 1 0 0.5 0.25 0.969 0.969 1 0 0 0 0 0.031 0 0 0 0 0 0.031 0 0.719-0.031 0.969-0.5 0.969-1 0-0.719 3.719-1.281 7.313-1 2.938 0.219 5.781 1.25 6.688 1.75v-18.313c0-1-2.5-2.438-7.719-2.438zM14 22.875c-0.938-0.5-3.219-0.875-6-0.875s-5.313 0.375-6 0.844c0 0 0-12.844 0-13.844s2-1.844 6-1.844 6 0.844 6 1.844 0 13.875 0 13.875zM28 22.844c-0.688-0.469-3.219-0.844-6-0.844s-5.063 0.375-6 0.875c0 0 0-12.875 0-13.875s2-1.844 6-1.844 6 0.844 6 1.844 0 13.844 0 13.844zM24 14h-4c-1.063 0-2 1-2 2h8c0-1.063-1-2-2-2zM24 10h-4c-1.063 0-2 1-2 2h8c0-1.063-1-2-2-2zM10 14h-4c-1 0-2 0.938-2 2h8c0-1-0.938-2-2-2zM10 18h-4c-1 0-2 0.938-2 2h8c0-1-0.938-2-2-2zM10 10h-4c-1 0-2 0.938-2 2h8c0-1-0.938-2-2-2z"></path>
</svg>
