<?xml version="1.0"?>
<svg version="1.1" xmlns="http://www.w3.org/2000/svg" xmlns:xlink="http://www.w3.org/1999/xlink" viewBox="0 0 512 512" width="512" height="512">
    <g id="Layer1" name="Layer 1" opacity="1">
        <g id="Shape1">
            <path id="shapePath1" d="M0,64 C0,28.5 28.5,0 64,0 L448,0 C483.5,0 512,28.5 512,64 L512,448 C512,483.5 483.5,512 448,512 L64,512 C28.5,512 0,483.5 0,448 L0,64 M456,132 C441.5,138.5 425.5,143 409,145 C426,134.5 439,118.5 445,99.5 C429,109 411.5,115.5 393,119.5 C378,103.5 356.5,93.5 333,93.5 C287.5,93.5 251,130 251,175.5 C251,182 251.5,188 253,194 C185,191 124.5,158 84,108.5 C77,120.5 72.5,134.5 72.5,149.5 C72.5,178 87,203.5 109,218 C96,217.5 83,214 72,208 C72,208 72,208.5 72,209 C72,248.5 100.5,281.5 138,289.5 C131,291 124,292 116.5,292 C111,292 106,291.5 101,290.5 C111.5,323.5 141.5,347 177.5,347.5 C149.5,369.5 114,383 75.5,383 C69,383 62.5,382.5 56,381.5 C92.5,405 135.5,418.5 182,418.5 C332.5,418.5 415.5,293.5 415.5,185 C415.5,181.5 415,178 415,174.5 C431,163 445,148.5 456,132 Z" style="stroke:none;fill-rule:evenodd;fill:#000000;fill-opacity:1;"/>
        </g>
    </g>
</svg>
