<?xml version="1.0" encoding="utf-8"?>
<!-- Generated by IcoMoon.io -->
<!DOCTYPE svg PUBLIC "-//W3C//DTD SVG 1.1//EN" "http://www.w3.org/Graphics/SVG/1.1/DTD/svg11.dtd">
<svg version="1.1" xmlns="http://www.w3.org/2000/svg" xmlns:xlink="http://www.w3.org/1999/xlink" width="64" height="32" viewBox="0 0 64 32">
<path fill="#444" d="M43.883,13.078 C43.959,12.731 44,12.37 44,12 C44,9.239 41.761,7 39,7 C38.556,7 38.125,7.058 37.715,7.167 C36.94,4.75 34.675,3 32,3 C29.27,3 26.967,4.823 26.24,7.318 C25.529,7.111 24.778,7 24,7 C19.582,7 16,10.582 16,15 C16,19.418 19.582,23 24,23 L28,23 L28,29 L36,29 L36,23 L43,23 C45.761,23 48,20.761 48,18 C48,15.54 46.223,13.495 43.883,13.078 M34,21 L34,27 L30,27 L30,21 L25,21 L32,14 L39,21 L34,21 Z"></path>
</svg>