<svg xmlns="http://www.w3.org/2000/svg" viewBox="0 0 3474 2598"><path fill-rule="evenodd" d="M1717 2c13.818 10.892 13.926 43.378 21 61 7.118 17.73 20.23 22.184 25 45 35.082 8.83 39.678 24.44 60 46-5.125 10.85-33.133 48.448-46 45-7.72-2.45-9.412-9.463-15-14-9.95-.02-15.58 8.185-13 17l12 2c2.086 5.89 9.218 16.977 6 27-6.067 18.894-22.188 24.236-2 50 21.472 27.403 61.306-8.434 55-39-6.99-2.743-11.174-3.964-14-11-8.703-31.302 22.434-56.564 33-75l6-18h1c2.71 26.617 36.055 60.352 23 94-4.032 8.63-11.615 9.464-17 16-10.558 18.32 9.826 42.967 17 52 18.754 1.685 30.618-2.75 40-13l-2-9c-24.552-7.296-9.925-33.41-7-50-10.586-10.648-33.267-44.643-23-67l39-12c13.28-2.206 14.987 9.92 25 7l10-10c20.285-6.34 44.822 10.065 58-6l8-20v2c5.89 14.455-24.552 63.35-31 76-26.397 51.79-54.262 116.894-63 185-1.74 13.574 12.808 19.652 8 42-51.002 36.16-195.703 61.963-282 38-9.65-2.68-22.163 3.21-35 1-47.16-8.117-86.662-10.178-113-38l7-18c4.94-20.997-6.26-44.36-10-60-12.773-53.427-24.666-105.12-47-149-13.522-26.566-47.592-46.636-41-86l1 2c7.31 7.81 7.973 20.832 17 27 11.738 8.02 28.455 3.8 45 8l15 10 21-7c16.934-3.467 40.268 4 50 10l1 2-8 17c-8.106 34.027 4.408 39.09-18 62 1.53 28.92 5.83 24.068-10 44l2 9c11.494 4.64 16.565 12.31 33 13 15.647-7.5 28.07-25.343 23-50-7.072-7.184-16.26-5.813-21-16-11.712-25.148 10.106-56.065 14-76 2.365-12.11-3.39-26.06 2-33v2l8 20c12.568 20.08 55.034 38.83 44 76-2.64 8.89-11.95 10.732-16 18-4.98 21.317 23.713 51.837 47 42 7.534-3.182 10.403-11.766 15-18 5.228-7.09 10.75-13.665 11-26-11.332-18.518-18.234-34.42 9-43l-1-7c-2.363-5.983-5.67-10.58-14-11-3.313 12.058-8.02 15.59-18 21-25.458-3.697-38.653-30.333-53-46v-8c13.11-10.11 18.223-29.83 33-38l31-6c4.21-29.086 12.285-23.867 24-43 3.92-6.404 19.27-58.053 20-66zm-5 27c1.964 3.728-.428 1.635 4 3v-3h-4zm-5 34l-1 8h4v-2l1-6h-4zm-14 20c.42 5.223-.656 3.984 3 6l3-6h-6zm-18 40c4.513-.215 5.39-.708 8-2l1-7-9 2v7zm67-7c-1.87 4.068-3.487 4.824-5 9l1 1h5c.51-6.31 1.58-3.06 3-10h-4zm16 2l-1 6 2 2 5-1-2-7h-4zm-99 11h8l-1-6h-1l-6 1v5zm-16-2l-4 3v4h6l5-2v-3l-2-2h-5zm41 5c-3.563 7.143-3.256 12.14 1 18 3.765 1.19 7.705 2.858 12 1l2-2c2.79-4.708 1.448-9.645 0-15l-15-2zm56 0l-3 3c-.254 6.663.076 13.048 2 17h7l9-7-1-8-3-5h-11zm-34 4c-.085 6.066-.59 6.304 4 8v-8h-4zm99 10v3l4 2v-5h-4zm-48 13l7-2 1-7-1-1c-6.496.956-7.176 2.548-7 10zm-329-7l-1 6 1 1h10v-3l-2-3-8-1zm520 1l-2 5c3.26 1.66 5.805 2.193 10 1v-4l-3-1-5-1zm18 0l-1 6 1 1 9-1-3-6h-6zm18 1v4h4v-4h-4zm-530 9c-.555-4.975.19-3.872-3-6l-3-1-1 1v5l1 1h6zm223-7v6h5l2-1v-3l-2-2h-5zm-60 4l-2 6c4.01-.578 2.99.046 5-2l1-3-4-1zm88 0l-10 1 2 6c4.513-.215 5.39-.708 8-2v-5zm197 0l-2 1v4l1 1 8-1v-2l-3-2-4-1zm-160 1l1 5h4l1-3-1-2h-5zm62 3l-1 6h3l2-1v-5h-4zm137 0l-7 1c.134 4.37.41 5.658 2 8 1.8 2.042.015.707 3 2v-2h2v-9zm-438 1v5h1l5-1v-4h-6zm487 0c-1.286 2.628-1.71 3.494-2 8h3l2-1v-7h-3zm-508 2v4h4c-1.537-4.202.184-2.448-4-4zm402 0v7l7-1v-6h-7zm63 3c.545 6.08.64 5.84 6 7v-4c-2.284-2.433-1.6-2.177-6-3zm-367 1l-2 13h4c.47-5.953 1.644-6.528 4-10l-1-3h-5zm178 1c1.965 3.728-.428 1.635 4 3v-3h-4zm-75 3v3l7 1v-3l-7-1zm-195 7l-1-6h-1l-6 4-1 2 1 6h1c6.516-1.143 5.204-2.183 12-2v-4h-5zm182-3c1.344 2.682 2.318 2.92 3 0h-3zm77 0l-3 9c5.36-.935 6.89-1.6 8-7l-1-2h-4zm47 1l-8 1 1 7h1l6-3v-5zm37 2l-1 5h3l2-1v-4h-4zm110 2c-.084 5.303.526 8.02 2 11h6v-10l-8-1zm-456 10c-3.233 3.107-4.685 3.553-6 9l7 2 5-5v-4l-1-2h-5zm88 1c.815 4.948-.668 2.978 3 5v-5h-3zm-30 1l1 11h3c1.463-4.313 1.53-6.182 1-11h-5zm114 0l-1 5h7l-1-5h-5zm163 3v7h3l1-1v-6h-4zm-207 2c1.537 4.202-.185 2.448 4 4v-4h-4zm90 2v3l4 2v-5h-4zm237 1l-1 5h10v-4h-2l-7-1zm-447 3l-1 7h3l2-1v-6h-4zm258 5c1.714 3.976.55 2.784 5 4v-4h-5zm-55 8v-5c-5.223.42-3.984-.656-6 3l1 2h5zm-159 1v7h3l1-1v-6h-4zm220 2l-1 7 5-2v-5h-4zm92 10l-2 1 1 6 9-1v-4l-3-1-5-1zm-318 2h-5l-1 2v8h1c3.827-1.32 2.08.002 4-3l1-7zm83 2c-4.513.215-5.39.708-8 2l-1 6 1 1h4c2.992-3.118 3.595-2.665 4-9zm291 1c-1.6 3.196-2.074 4.952-1 9h3l1-2 1-6-4-1zm48 1l-1 8c3.827-1.32 2.08 0 4-3l1-5h-4zm-8 21v4h3v-4h-3zm-123 13l-6 16h6l3-2c.19-6.29 2.86-11.395-3-14zm-129 1l-1 7h3l2-1v-6h-4zm12 0l-2 1c.644 3.635.403 3.027 2 5l5-1v-3l-2-2h-3zm-185 3l-2 6h4l3-3v-3h-5zm208 3c-2.75 4.012-3.684 4.465-3 10h4l2-3 1-7h-4zm209 0v7l4-1v-6h-4zm339 842c-36.1-1.65-35.27 7.228-35 40-4.56-.366-7.253-.178-11 2 4.88 10.93.07 18.65-2 29-17.27-4.308-30.584-23.012-44-33-30.262 16.122-68.933 20.883-108 11l-26-8v1l5 6c17.532 8.126 32.033 34.817 31 56-54.628 27.722-109.95-53.385-141-78 7.056 24.628 40.014 64.277 11 85-47.02.16-70.842-40.782-81-74l-2 3-5-22-2 1-3 21h1l1-5h1c-.835 19.224-18.157 53.518-34 65-5.7-2.272-8.13-3.945-11-9l-2 1c-.414 8.314-8.963 25.43-8 26 7.488 11.376 27.64 5.82 37 15l4 9c9.49 7.905 22.345 10.268 32 18l28 29 10 7c52.684 90.12-58.6 197.776-117 233l-3 8c19.644 35.17 35.587 79.13 42 122 3.156 21.096-20.85 52.442-17 63 17.822 3.24 31.59 14.504 44 22l20 2c33.605 10.134 106.56 26.492 127 49 22.435 24.704 34.704 60.613 52 90 7.546 12.82 21.47 27.22 27 42l3 19 9 15-2 7c2.748 6.776 10.25 10.996 10 20l-3-2c-3.147-8.847-26.045-40.912-33-50-3.83-5.006-10.968-5.736-14-12-7.208-14.89-7.818-31.125-22-36 3.4-17.104-25.97-52.218-36-62v-1l4-2-57-27-51-11c-16.865-5.463-27.1-11.875-49-16-13.315-2.508-43.275-16.553-53-13-6.277 15.856-22.752 23.246-32 36-14.276 19.69-21.697 41.807-35 62-5.13 7.788-13.586 11.386-17 22l3 16c7.315 49.544 13.184 36.993 46 60 67.73 47.485 143.406 27.804 167 128 18.548 78.767-85.89 140.663-113 192-7.053 13.356-8.172 47.3-1 65 .13.32-2.958 6.426-3 10-.314 26.68.94 49.085-3 78l-2-1c-5.026-40.67-10.917-84.06-8-126 .905-13.017-4.07-27.67 2-41 21.338-46.862 125.268-114.05 94-182-3.236-7.032-10.255-28.495-15-35l-50-29-26-3c-41.08-12.28-76.155-25.145-104-51-24-22.283-23.968-56.86-15-91l12-29c-19 6.083-31.373 17.03-49 24l-27 7c-16.886 13.152-54.05 54.055-72 60-.913 21.71-12.025 45.52-18 64-1.63 5.044-2.72 71.872-1 77l10 17-2 7c1.43 5.77 25.05 28.867 30 35l13 18 2 12 16 11c10.888 9.06 19.732 22.158 28 34l38 34c8.195 11.738 19.328 25.89 25 38 11.2 23.908 3.486 52.237 7 77 6.35 44.75 13.354 108.15 4 153-5.002 23.98 3.11 47.068-4 69h-1l-6-29c-4.47-22.184.89-38.223-4-58-1.577-6.378-6.34-10.975-7-20l3-34c-1.908-38.212-3.634-73.964-11-112h5c-25.56-43.082-48.285-63.643-82-97-9.926-9.82-16.85-24.566-26-35l-15-10c-20.58-16.74-42.903-42.238-55-67-20.128-41.203-25.866-113.99-6-155l-1-2-3 2-40 42 2 5-19 33c-8.01 18.283-9.063 36.024-18 55-21.04 44.677-47.627 91.787-65 138h-3c11.044-24.976 13.672-54.51 27-85 16.77-38.367 36.57-80.26 53-118 11.024-25.322 16.36-50.655 31-72 14.004-20.42 35.814-35.423 55-51 41.98-34.084 117.178-97.408 133-154-22.532 15.835-48.873 25.366-74 40-11.685 6.805-20.302 18.147-33 25-32.79 17.696-70.91 33.08-91 63 4.47 1.307 2.01-.662 4 3-8.477 5.967-21.715 44.55-24 56-.858 4.3 2.53 16.94 1 19l-7 2-10 50c-13.292 19.952-26.32 50.25-34 75h-1c-.122-13.63 4.495-20.368 7-30l-4-2c4.24-13.343 2.023-26.405 5-42 3.08-16.136 11.997-35.623 18-51 14.522-37.2 16.753-75.437 33-110 12.66-26.934 88.878-65.645 117-83l21-8 5-11c13.366-13.457 36.174-26.917 53-36-.74-5.354-1.484-2.936 0-7 10.195-4.902 30.307-58.31 27-77-3.595-20.313-6.214-36.09-6-56-23.233-17.334-37.072-46.608-60-64l-35-15c-56.44-38.86-110.413-70.764-131-147-3.396-12.575-9.953-30.263-8-43 4.997-32.592 52.733-85.34 73-111-1.355-10.372-14-46-14-46s-2.577.435-2-4l-2 1-3-3-2 5-1 3c-.042 1.975-24.55 80.492-56 63-11.27-30.61 6.706-53.035 10-83l-2 1c-8.403 28.348-64.86 98.398-95 77-.714-31.135 13.724-43.428 25-62v-1c-38.61 10.124-54.97 21.603-92-2-14.054 9.915-24.926 26.356-42 32-2.526-9.046-2.072-24.72-5-32-4.682 1.87-7.288 1.252-9-2l3-19c-3.97-18.995-22.633-19.92-37-17 5.285-52.698-56.296-65.607-82-87-1-.832-17.952 3.108-23 1-17.22-7.19-21.603-20.943-34-32h-1c-1.48 14.426-7.828 27.1-24 27-48.933-23.543-62.575-93.346-90-129l-2 1c-.293 9.22-4.79 18.9-9 24 7.965 9.224-19.282 48.68-33 57-8.98 5.448-29.145 5.618-39 4-14.71-2.415-29.302-1.373-39-11-33.912-33.664-9.255-57.588-1-98l-2-1c-35.247 26.67-57.183 48.103-107 57-30.81 5.503-84.005-5.243-77-39 1.847-8.9 7.036-12.845 8-19 3.45.52 25.838-22.176 26-23l-8 1c-20.445-4.852-47.48-2.59-61-2l2-3c-16.754 2.14-121.147-36.156-121-71 2.9-1.76 5.343-2.71 7-6h-2l-38-4c-24.877.633-70.5-31.922-86-44-7.527-5.865-32.538-22.418-27-36l5-5c38.876-16.256 74.53 9.772 111-3v-1l-1-1c-60.186-2.214-155.386-29.04-210-69-13.172-9.638-22.166-23.96-33-36l1-9c27.796-8.728 61.3-9.18 91-10l64 2v-1l-120-24-5-7c-7.35-4.926-33.377-1.07-52-10-35.48-17.01-67.64-39.282-97-62-12.222-9.457-61.772-45.728-51-70 5.33-12.013 58.26-7.24 72-4l84 9c26.842 5.36 56.275 14.86 84 12 20.19-2.084 43.386 14.875 62 8-15.134-10.83-38.614-12.84-58-19-49.465-15.717-105.096-29.928-151-50-19.436-8.5-54.147-15.596-57-40l1-1c7.606-16.178 69.233-20.994 88-17l31 5c22.016-8.3 54.88-.832 79 6l17-2c14.798 3.668 30.322 3.556 42 6 10.253 2.145 12.635-5.883 21-9 7.29-2.717 37.494 4.8 45 8 17.14-1.95 90.157-1.98 102-10 3.34-2.262 38.026 1.596 48-1l19 3c24.102-4.966 56.447-1.214 76-7l23 2 20 4c5.64 1.553 38.585 6.634 42 5 12.414 5.104 34.064 13.64 50 11 11.693-1.937 25.66 9.636 35 5 16.634 8.284 75.194 32.866 79 29 19.71 16.08 75.323 39.86 99 43 4.655-2.184 35.082 21.388 37 22l3-2c7.106-2.59 16.903 6.58 24 10 7.057 3.4 63.548 31.96 69 28 11.668 8.35 26.194 15.633 36 17 0 0 36.203 17.22 38 16 8.53 5.59 62.81 43.544 69 39 8.517 6.324 18.442 14.56 27 16l31 19c21.856 17.053 45.75 43.907 71 57-.53 4.06-2.112 2.243 2 4l1-2 1 7c8.285-1.374 12.576 6.68 20 13l-1-3c6.755 1.662 21.23 13.105 23 20-2.365.278-1.247-.222-4 1 1.917 4.1-.54 3.64 3 7 2.486-3.497 3.716 1.305 9 1v-1l-3-3 3-1c28.607 9.796 62.677-2.41 89 12l20-11 6-4c8.12-5.306 16.638-41.795 10-55-13.757-27.365-24.9-58.494-39-86-3.52-6.868-19.698-17.852-17-24 38.922 11.27 65.163 39.603 91 74-3.863 18.68 6.722 30.82 9 55 2.842 30.166.034 47.772-2 78 9.285-7.183 13.136-15.207 20-25 5.317-7.586 46.776-35.215 56-38l39-2c16.05-.297 29.973 2.93 38 14 20.307-6.567 33.46 21.416 47 32l8 23c21.845 17.71 94.216 52.756 73 106-4.51 11.32-5.945 18.285-16 24 .42-12.883-1.807-19.26-6-27-6.49-.813-61-26-61-26l-18 7v1c26.583.924 83.365 20.685 79 48 5.897.365 14.104.825 17-2 10.576-6.602 13.096-21.782 17-35-8.662-12.57-9.64-31.925-16-47l-18-28c-8.305-21.036-7.314-125.838 11-147-2.41-4.128-4.66-6.276-4-11 4.825-11.42 21.373-20.446 30-31 17.098-20.92 36.404-46.17 65-42-24.574 20.548-79.944 121.87-54 161 4.14 6.245 23.57 17.337 31 18l2-2 23-4c22.444-2.483 40.925 1.146 65-6l3 1c-1.18 2.752-1.66 2.2-1 5 5.08-2.194 10.043-2.28 9-6 1.08-3.747 1.74-1.192 0-5h-3l5-6c6.21-1.642 18.275-10.405 20-11 10.3-15.712 36.557-28.908 57-43 14.31-9.864 24.994-26.333 38-35 57.35-38.218 121.492-65.544 184-95 16.71-7.875 48.94-25.292 69-28h1c12.16-8.334 28.647-17.617 40-23 5.47-2.594 10.088 3.033 17 0 5.884-2.582 9.47-10.724 16-14l45-14c52.44-22.53 95.762-44.984 155-64l3 1 53-7c21.483-15.24 78.3-13.29 109-20 10.97-2.397 47.195 3.862 65 6l85-1c7.88 4.232 91.82 10.225 104 10l37-9c15.946 1.814 20.1 11.635 38 10 40.855-3.73 110.947-22.337 133-10 7.766 4.344 26.19-3.84 30-5 18.024-5.487 85.37 2.28 92 17l1 5c-37.567 46.08-122.12 56.788-186 76l-86 28v2c44.922-1.552 102.178-11.406 149-21 32.372-6.633 72.157-6.776 98-11 14.565-2.38 51.94-6.397 60 5 13.115 25.96-39.045 62.284-54 74-27.906 21.863-61.317 44.382-96 59-14.955 6.303-43.913 4.794-53 10l-5 7-122 24v1l1 1c55.02-.286 109.296-8.124 157 7l1 8c-26.224 46.984-111.118 80.27-171 96l-78 11v1l1 1c40.97-.192 75.95-7.917 116 3 5.884 18.9-14.85 31.404-26 40-41.504 32-70.505 38.35-129 48v3c4.44.575 4.668.766 7 3-.41 43.957-122.332 73.184-141 73l2 3c-6.262-1.236-42.714-3.71-53 0v3c6.385 2.17 7.338-.115 13 4-.638 2.93-1.718.54 0 3 9.413 12.412 17.947 14.08 22 30 10.243 40.233-68.43 45.18-95 38-30.798-8.322-62.076-26.156-83-42-.834-.632-4.12-10.81-11-13v4l17 52 1 16c-9.844 27.02-56.898 55.108-98 35-36.507-17.86-27.99-61.227-46-83-5.26 5.61-2.683 13.563-7 19-.866-2.605.403-3.492-2-2-2.944 8.43-10.508 8.207-14 15l-5 23c-8.564 21.117-45.25 73.87-73 74l-11-11-6-16h-1c-6.046 16.62-22.742 29.964-41 34l-16-3c-29.087 13.344-84.142 40.117-84 86zm-446-840v5l7-1v-2l-1-2h-6zm-71 12v-10c-4.01.58-2.99-.046-5 2v8h5zm-81-9v4h4v-4h-4zm20 2l-12 17 1 3 2 3 23-1 1-2c-.148-9.833-3.935-14.25-8-20h-7zm38 3c-4.254 4.903-7.496 8.056-8 17 3.77 4.55 19.866 6.432 24 0v-3l-11-14h-5zm176 9l7-2v-7h-6v2l-1 7zm-290-8c1.537 4.202-.184 2.448 4 4-1.537-4.202.185-2.448-4-4zm205 3l-11 12 1 7c8.755 1.517 18.703 5.284 26 2v-4c-3.342-7.252-7.3-14.952-16-17zm-56 2l1 6h5v-3c-2.284-2.433-1.6-2.177-6-3zm38 0v6h4v-6h-4zm-151 1c-1.73 2.915-2.06 4.096-1 8l6-1 4-3v-3l-9-1zm132 0l-1 6h5l4-1v-4l-1-1h-7zm-150 1l-2 1v4l2 2 8-1v-3l-2-2-6-1zm-51 3v5h4v-5h-4zm14 0c-3.177 5.12-6.185 8.366-7 16l2 3c9.7.264 14.275-1.7 20-5l-1-6-7-8h-7zm293 3l-1 4h5v-4h-4zm-18 4l1 6 7-1-1-5h-7zm22 3l-1 5 1 1 7-1v-3l-2-2h-5zm-358 5v5h5l-2-5h-3zm20 0l-4 4 1 5c6.063-.453 8.162-1.51 11-5l-2-4h-6zm62 2l-5 5c.774 4.42.604 3.714 3 6 5.29-1.367 6.823-2.856 10-6-1.32-3.827.002-2.08-3-4l-5-1zm62 0l-1 5h10v-4h-2l-7-1zm17 0c-.738 3.706-.466 3.89 1 7h1l6-1c-.58-4.01.046-2.99-2-5l-6-1zm38 0l-1 5 1 1h8v-3l-3-2-5-1zm-228 2c-.388 4.012-1.086 3.163 1 6h2l1-1v-5h-4zm305 1l1 6h6l-1-6h-6zm69 0v9h4v-9h-4zm-358 2v3h5v-3h-5zm374 1l-4 4c.86 4.526-.116 2.975 3 5 3.86 1.69 7.076.5 10-1-.215-4.513-.708-5.39-2-8h-7zm-64 1v5h9c-.912-3.65.038-2.045-2-4l-7-1zm-236 3l-1 5c4.235 1.402 4.71 1.234 7-2l-3-2-3-1zm-82 3c-1.73 2.915-2.06 4.096-1 8l7-1-2-7h-4zm390 10l-2 5 1 1h5v-2l1-4h-5zm-382 7l-10 1 1 5 9-1v-5zm-772 49l1 2c-.424-.928.802-.676-1-2zm8 0l-3 1v2h5v-3h-2zm8 0l-3 3h5l-1-3h-1zm8 0l-4 2v1h6l-1-3h-1zm1893 0l-1 3h6l-1-2-4-1zm9 0l-1 2 5 1-1-2-3-1zm7 0c1.83 3.422 1.342 3.438 5 2v-1l-5-1zm9 0l-1 2h2l-1-2zm-1913 1l-2 1 2 2c3.583-1.782 1.184.53 3-3h-3zm1882 0l-1 2 5 1v-1l-4-2zm-1877 1l1 3 2-1-3-2zm7 0l-3 3 10 1-2-3c-2.96-.03-2.032.215-5-1zm1859 0l-5 3h9v-2l-4-1zm6 0c1.8 2.042.015.707 3 2l-3-2zm-1857 3c1.8 2.042.015.706 3 2-1.8-2.042-.015-.707-3-2zm1842 0l-1 2c3.023-1.26 1.196.018 3-2h-2zm-1837 1l1 2c-.424-.928.802-.676-1-2zm5 0l-1 1 2 2v-3h-1zm1823 0v3l2-1-2-2zm4 0l1 2c-.424-.928.802-.676-1-2zm-1823 1v3h2l-2-3zm4 1v3h3v-1l-3-2zm1806 0l-1 2 1 1 2-1-1-2h-1zm4 0v2c.977-1.745.912-.22 0-2zm-1805 1l-1 2v1h3l-1-3h-1zm1796 0v3h2l-2-3zm-1791 1l-1 2 5 2-4-4zm1787 0l-4 3v1h1c4.087-2.044 3.076-1.237 4-4h-1zm-1777 4l-1 1 2 2v-3h-1zm1766 0v3l2-2-2-1zm-1762 1l-1 1 3 2v-1l-2-2zm1758 0l-3 4 5-3-2-1zm-1755 2v2c.977-1.745.912-.22 0-2zm3 1l4 4-4-4zm1746 0v2c.977-1.745.912-.22 0-2zm-3 2v2c.977-1.745.912-.22 0-2zm-1738 1l1 2 1-2h-2zm1735 0l1 2c-.424-.928.802-.676-1-2zm-1732 1zm1730 0zm-1727 2zm1724 0zm-1721 1l9 6v-1c-1.915-3.05-3.544-4.067-9-5zm1045 7l8-1v-4l-1-2h-6v2l-1 5zm671-7l-5 2-1 4 9-5v-1h-3zm-1706 6l2 2-2-2zm1697 0zm-1694 1c1.36 3.56 1.41 3.028 4 5l1-3-5-2zm1017 0l1 6 7-1-1-5h-7zm-1291 1l-5 2 2 6c19.726 9.076 39.892 25.16 61 35-5.594-16.443-38.436-9.95-40-32l1-2c5.196-.498 6.436-1.15 9-4l-1-2-27-3zm1965 0c-1.994 2.045-1.595.78-3 4l5-4h-2zm271 0l-17 3-1 4c3.637.792 6.908 1.62 9 4 1.023 3.17.844 3.596-1 6-7.572 14.544-33.873 11.338-39 26 20.81-8.953 52.006-21.573 65-39l-1-3-15-1zm-965 5l-1 5 1 1 9-1-1-5h-8zm-988 1l1 2 1-2h-2zm5 0l-1 2 3 2 3 2c-1.387-4.177-1.925-3.88-5-6zm1668 0v2c.977-1.745.912-.22 0-2zm-5 1l-4 4 1 1 6-4v-1h-3zm-697 3v3l8 1v-4h-8zm-956 5zm1643 0zm-1641 1l1 3h1c-1.26-3.023.018-1.196-2-3zm939 0l-2 1v4h3c2.212-2.063 1.882-1.382 3-5h-4zm699 0v3l2-2-2-1zm-721 3v5h8v-4h-2l-6-1zm-913 1l2 1-2-1zm1630 0v2c.977-1.745.912-.22 0-2zm-1627 1l5 5c-1.32-3.827.002-2.08-3-4l-2-1zm1624 0c-1.868 2.262-1.817 1.404-3 5l5-5h-2zm-935 1l1 6h8c-.58-4.01.046-2.99-2-5l-7-1zm202 6h11v-3l-1-2h-10v5zm-182-3c-.575 3.487-.353 2.935 1 6h8v-3l-3-2-6-1zm165 0l-1 6h2l5 1 1-1v-5h-2l-5-1zm-868 1l3 2-3-2zm1611 0c1.688 2.48.6 1.17 3 0h-3zm-778 2l-2 1c.58 4.01-.046 2.99 2 5h6v-4l-3-1-3-1zm-829 1l5 5c-1.29-4.928-1.33-3.09-5-5zm735 0v5h7v-3l-1-2h-6zm74 0v5h8v-3l-1-2h-7zm40 0v5h4v-5h-4zm755 0l-4 4h3l3-4h-2zm-1597 5l9 9c-1.228-5.333-4.206-6.482-9-9zm1590 0c-4.08 4.137-5.48 3.72-8 9l10-9h-2zm-1854 8zm2124 0zm-1849 2l5 5c-1.32-3.827.002-2.08-3-4l-2-1zm1568 0l-4 4 1 1 5-5h-2zm-1834 3c-4.974 5.396-17.95 2.496-22 1l-2 2c7.556 15.86 41.287 38.07 59 43l-3-4c-11.637-5.45-31.472-19.188-38-30l2-5 9-2-4-5h-1zm2106 0c-2.122 2.606-2.66 2.074-4 6l11 3v4c-13.998 11-28 22-42 33 19.81-5.21 49.63-26.81 61-42-2.17-2.98-.664-2.682-4-2-4.278-.237-15.027 3.58-20-1l-2-1zm-1833 1l-1 3c2.042-1.8.707-.015 2-3h-1zm1555 0l-1 3c2.042-1.8.707-.015 2-3h-1zm-1552 4l2 3c-1.26-3.023.018-1.196-2-3zm1547 0v3l2-2-2-1zm-1543 3v3h2l-2-3zm1540 0l-1 2 1 1 2-1-1-2h-1zm-1536 3c.456 2.674-.615 1.51 2 4l-2-4zm1532 0l-1 4 3-2-2-2zm-1529 4l10 10c-1.08-3.947-5.297-7.825-10-10zm1525 0c-3.376 4.91-6.552 4.85-8 10l10-10h-2zM974 502l3 4c-1.32-3.827.002-2.08-3-4zm1502 0v4l3-3v-1h-3zm-1497 5l6 7c-1.326-4.197-2.623-5.083-6-7zm1493 0l-1 4 3-3-2-1zm-4 3c-4.094 8.542-13.603 9.45-17 19 5.842-4.196 16.415-11.862 19-19h-2zm-1482 4l15 15-1-5-14-10zm-304 5l-2 1 3 5 26 14v2l-15-2c4.477 11.627 30.664 21.275 43 25-2.975-7.115-13.233-8.345-18-14v-1l5-1-2-3c-5.53-2.53-15.814-7.977-18-14l3 1h15v-1l-3-4-7-3c-5.593 5.072-23.26-2.928-30-5zm2093 0c-4.993 3.205-24.072 9.58-29 5-5.04 1.21-8.233 3.42-10 8h19l-2 3c-7.043 2.546-14.783 7.447-19 13v1l5 1-2 3-17 10v1h1c15.92-6.27 31.1-13.86 44-23l-1-2c-4.008 1.054-9.69 3.666-15 1v-1c9.968-2.387 24.298-10.714 30-18v-1l-4-1zm-1773 10l10 10c-1.064-4.07-5.03-7.987-10-10zm1446 0c-4.132 6.03-9.112 6.09-12 13h1l13-12-2-1zm-1346 3l-4 3 2 6h5l4-1v-4l-7-4zm1244 0l-5 4 1 5 4 1 6-3v-1l-2-5-4-1zm-1260 4l-8 7 3 4v-2l8-7-2-2h-1zm1276 0c.008 4.537 3.953 8.75 10 10l1-2-2-3-9-5zm-1349 3l2 3h1v-1l-3-2zm4 3l3 3-3-3zm1416 0l-1 2 1 1 2-2v-1h-2zm-1287 2l-3 3 4 4 5-2c1.58 4.574 3.546 6.452 7 9l3-3c-3.82-7.842-8.164-9.6-16-11zm1154 0c-4.406 4.988-7.808 2.59-13 10l3 4c9.046-6.465 8.07-5.725 17-10l-2-3-5-1zm-1279 1v3h2l-2-3zm1409 0l-1 3c1.37-2.145 1.822-.54 1-3zm-1405 4l2 2-2-2zm1400 0l1 2c-.424-.928.802-.676-1-2zm-1397 3l6 6-1-5-5-1zm107 0v3h3v-1l-3-2zm1177 0l-1 2c2.72 1.308 1.923.442 4-1v-1h-3zm109 0c-2.365 2.654-2.89 2.545-4 7l6-6-2-1zm-2227 6h2-2zm-4 1h2-2zm846 0l1 2 1-2h-2zm1378 0l-1 2c3.023-1.26 1.196.018 3-2h-2zm-2229 1h3-3zm-3 1h2-2zm857 1l3 2-3-2zm1371 0v3l2-2-2-1zm-1335 2c.024 3.062-.962 1.4 1 4h1l-2-4zm82 0c-.613 4.28-.94 4.13 2 7l2-1v-4l-4-2zm1133 0l-3 4 3 3 2-3c1.308-2.72.44-1.923-1-4h-1zm85 0l-2 2 2 2 2-2-1-2h-1zm-1331 1l-1 1 6 4-5-5zm1362 0c-1.51 2.606-1.708 1.755-3 5h1l1-2c3.037-1.943 1.044-.328 2-3h-1zm-1275 2l5 13h1l1-2c-1.578-4.58-4.027-9.255-7-11zm1186 0l-2 1v2h4v-3h-2zm-1248 1c1.164 5.307 2.078 5.68 6 8-1.117-4.785-2.062-6.067-6-8zm1310 0l-4 8 4-3 3-3-1-2h-2zm-1329 2v3h2l-2-3zm1350 0l-1 3c2.042-1.8.707-.015 2-3h-1zm-85 1l-4 8 1 1 3-2 2-4c-1.26-3.023.018-1.196-2-3zm-1261 2l-1 1 3 2-2-3zm35 0c.13 8.347 3.6 14.82 8 19h1v-1l-9-18zm1271 0c-.913 8.46-4.744 12.802-8 19h3c2.137-5.676 8.548-14.322 5-19zm36 0l-1 3c3.037-1.943 1.044-.328 2-3h-1zm-1339 4l9 8c-1.09-4.112-3.76-6.58-9-8zm1335 0c-3.87 3.236-5.74 3.277-7 8l9-8h-2zm-1315 1c.096 4.867 2.64 5.09 6 9l2-1v-1l-3-6-5-1zm1294 0l-6 6v1l2 2 8-7v-1l-4-1zm-1230 4c-.548 4.278-1.614 3.157 3 5-1.06-3.65-.814-2.94-3-5zm1166 0l-2 5c3.65-1.06 2.94-.814 5-3l-2-1-1-1zm-1239 3zm1314 0zm-1312 1c2.377 6.86 22.764 17.4 25 14l-25-14zm1309 0c-5.374 5.985-15.537 11.467-24 14v3c8.433-3.884 21.555-9.063 26-17h-2zm-1280 7l-4 4 3 8h1c-.155-5.68.903-10 0-12zm1251 0c1.476 4.87.423 7.375 2 12h1l2-7-5-5zm-1145 2c-.892 5.187-1.563 2.45 1 7l2-1v-4l-3-2zm1037 0l-2 2v4l1 1 4-3-3-4zm384 0l-5 3 4 3 3-1 1-2-3-3zm-1799 1c1.06 3.65.814 2.94 3 5l3-1 1-2-1-2h-6zm342 0c1.346 3.4.607 2.07 3 4-1.32-3.827.002-2.08-3-4zm1108 0v4l3-2-1-2h-2zm-1056 1c-1.036 4.427-.985 2.583 2 7h1l6-1-2-6h-7zm999 0l-3 4 2 3c6.386-.368 6.435-1.482 10-4-2.296-2.317-1.8-2.947-5-2l-4-1zm-1375 1v6l3 1v-4l-3-3zm279 0l-14 11 4 5h1l8-9 8 7c3-4.504-.754-9.463-3-13l-4-1zm62 0v4l2-2-1-2h-1zm1076 0l-2 1 1 3 3-2-2-2zm62 0l-5 3c.087 4.007-3.107 6.5 0 11l7-7c6.54 4.555 7.558 12.21 14 4v-1c-6.105-2.957-9.165-7.394-16-10zm284 1v6l3-2v-4h-3zm-1469 1l1 5c4.738 1.694 4.734 2.18 8-1-2.485-3.677-1.593-3.56-6-3l-3-1zm1165 0l-3 4 3 3 7-5-2-2h-5zm-1115 2c-.89 3.993-2.232 1.573 1 5l2-3-3-2zm1068 0c-.22 3.33-.933 2.3 1 5l3-2-2-3h-2zm-1046 1l-2 5 5 4c7.477.84 14.636 5.45 17-3h-2c-5.044-5.04-11.675-5.016-18-6zm1022 0c-6.148 2.93-10.972 3.037-17 7l1 3c6.57 1.904 16.41-.625 20-5l2-1-3-4h-3zm-1061 1c-.92 4.07-1.918 2.626 2 6l2-1v-3l-4-2zm1103 0l-2 1v5l6-3-2-3h-2zm-1075 2c.297 3.423-.72 2.147 2 5l6-1v-1l-1-2-7-1zm1043 0l-3 3v1l3 1c3.67-1.388 4.238.724 6-5h-6zm-1005 1c-.92 4.07-1.918 2.626 2 6l2 4h4v-4l-8-6zm969 0c-3.007 3.807-4.946 3.75-6 10h4l6-9-4-1zm-1633 2l-5 5 2 4 12 5v-1c-2.256-3.586-4.77-11.127-9-13zm2310 0l-6 14h1l13-7v-3l-8-4zm-1696 2v3h2l-2-3zm1071 0l-1 2v1h3l-1-3h-1zm-1406 2l5 7 2-1v-3l-7-3zm1747 0l-5 3v3l2 1c2.99-2.265 3.726-2.714 5-7h-2zm-1488 1v5h1l2-1v-1l-3-3zm138 0l-1 2 14 7 2-3-1-2-14-4zm942 0l-11 6 3 3 14-7-2-2h-4zm145 0l-2 5h3l1-3-2-2zm-1099 9c-1.038 4.232-1.41 1.722 1 6l2 1 3-1 1-2c-2.74-2.763-2.046-2.544-6-2l-1-2zm37 1c-1.043 4.507.998 6.52 6 10l2-2-8-8zm930 0l-3 3 1 2 2 1c3.75-1.875 4.463-1.575 6-6h-6zm-35 1l-7 7 2 2 9-7v-1l-4-1zm-1046 1c.58 2.94-.89 1.907 3 4v-1l-3-3zm13 0c.644 3.635.403 3.027 2 5h1v-3l-2-2h-1zm117 0l-1 1 5 6 2-1v-1l-3-5h-3zm936 0l-4 6 2 1 6-5v-1l-4-1zm121 0l-2 3 2 2 2-1c-.912-3.65.038-2.045-2-4zm13 0l-2 2 2 2 3-2-1-2h-2zm-1106 1l-3 2 1 2h5v-1l-2-3h-1zm1011 0l-3 2 1 2h5l1-2-4-2zm-940 1c.12 6.288 6.22 12.694 11 18l2-1v-1c-1.633-7.112-8.79-13.46-13-16zm867 0l-12 13 1 5 3-1c3.472-4.6 10.474-12.924 8-17zm-1578 2l-7 7 3 4 12 3v-1c-2.726-5.837-2.113-6.026-1-13h-7zm597 0c.278 2.366-.222 1.247 1 4h4c-1.81-2.416-2.208-2.496-5-4zm1097 0l-3 3v1h3l2-4h-2zm604 0c-.323 4.115.08 8.206-1 14h3l12-6v-1l-8-7h-6zm-1610 4c.278 2.366-.222 1.247 1 4l2-1v-1l-3-2zm913 0l-1 4h1l3-2-1-2h-2zm-789 1c.512 3.383-.354 2.332 3 5l4-3-2-2h-5zm659 0l-2 1 1 3 3 1 3-1 1-2-2-2h-4zm-758 7v4h3v-1l-3-3zm442 0l3 6h1v-1l-4-5zm421 0l-1 5c2.212-2.062 1.882-1.382 3-5h-2zm417 0c-5.336 7.878-10.692 5.865-18 7l2 14 2-2c7.595-3.472 10.876-11.083 16-17l-2-2zm-1689 1c2.73 7.846 12.24 20.348 19 18v-12c-8.067-.665-11.06-2.28-19-6zm394 3v3h2c-1.26-3.023.02-1.196-2-3zm893 0l-1 2 3 1v-3h-2zm-739 7c-1.27 4.58.005 7.72 4 10v-3l-4-7zm-127 1l-1 4 3 2 2-2-4-4zm709 0l-3 9h1l3-2 1-7h-2zm129 0l-2 5 1 1 2-2h2c-1.32-3.827.002-2.08-3-4zm-845 1c.014 4.555-.204 3.28 2 7l2-1v-1l-4-5zm-15 1c1.782 3.583-.53 1.183 3 3l-1-3h-2zm471 0l-1 2 1 1 2-2v-1h-2zm396 0l-2 5 1 1c2.664-2.17 2.795-2.01 4-6h-3zm16 0l-1 2 1 1 2-2v-1h-2zm-787 1c.278 2.366-.222 1.247 1 4l2-1v-1l-3-2zm689 0l-1 4h1l2-4h-2zm-1471 3l-7 5v5l22 8v-1l-12-8c-2.84-4.885 1.26-5.774-3-9zm1160 0c-1.884 4.4-3.402 5.555-2 8 1.8 2.042.015.707 3 2l1-10h-2zm1109 0c-3.668 8.07-9.38 10.332-14 18h1l22-10c-1.812-5.197-3.694-6.385-9-8zm-1656 2c-8.26 5.67-21.71 5.537-29 14l21 18c-.463-12.48 9.1-32.473 18-30-3.473-2.41-6.18-1.165-10-2zm1023 0l-1 2c8.86.57 18.414 14.327 18 30l22-17-2-2c-8.947-11.058-26.766-11.44-37-13zm-1315 2c.41 10.75 13.406 28.556 23 34l16-6 14 12v-1c-10.616-18.824-10.804-14.318-30-13-6.14-7.85-15.536-19.156-23-26zm1621 0c-6.692 10.68-13.594 18.996-24 26-14.893-1.176-10.502-5.97-21 2l-8 11 1 1 14-12 16 6c6.294-5.342 26.892-25.98 22-34zm-1255 1c.056 4.538.198 5.747 2 8h1v-6l-2-2h-1zm120 0c-1.192 4.872-.187 6.47 5 8l-2-3c-1.06-3.65-.813-2.94-3-5zm638 0l-3 8h1l2-2c1.926-1.517 1.77-1.79 3-4l-3-2zm122 0l-1 8h1l3-1c-.266-5.288.232-4.82-3-7zm-394 4l-1 2 2 2 3-1-2-3h-2zm-469 5l-1 8 10 11h1v-3l-10-16zm19 0v5l11 7h1v-4l-12-8zm828 0l-9 16 1 3 2-1 9-11c-.84-2.58-1.526-5.236-3-7zm-21 1c-4.084 3.477-7.102 4.095-10 9l2 2 12-9v-1l-4-1zm-745 1c.58 2.94-.89 1.907 3 4v-1l-3-3zm683 0l-2 2 2 2 2-4h-2zm-781 3c-.662 6.676-1.213 7.477 3 11 1.602-1.984 1.297-1.39 2-5-1.75-1.604-2.48-4.243-4-6h-1zm478 0c1.334 3.114 1.377 3.253 4 5l7 2-2-4-9-3zm402 0l-3 10 2 1 5-3-1-8h-3zm-759 6c.644 3.635.403 3.027 2 5l1-2-2-3h-1zm636 0l-1 5h1l2-1v-4h-2zm-259 1c2.164 2.206 2.89 2.206 6 1l-6-1zm-370 3c-.613 4.28-.94 4.13 2 7l2-2-4-5zm623 0c-2.003 2.887-2.252 2.058-3 7 5.27-1.568 5.862-3.067 3-7zm-698 1c-.607 3.955-.73 3.28 2 6h1v-3l-3-3zm52 1l-2 1v3l6 4 1-3-5-5zm722 0l-2 1v4l4-1 1-2-1-2h-2zm-53 1l-4 4 1 3 7-5v-1l-4-1zm-1433 1l-15 5v1c10.42 9.528 78.19 32.69 93 20l-2-1c-23.52-10.434-54.57-5.31-76-17v-4l5-3-2-1h-3zm2209 0l5 5-2 5-78 15v1l1 2c22.9 3.98 81.73-7.444 94-22l-2-3-18-3zm-1483 3c-3.235 7.638 3.07 11.006 8 16l2-1v-1c-.998-6.61-4.726-11.6-10-14zm458 0l4 3-4-3zm287 0l-9 13 2 3 3-3 8-8v-3l-4-2zm-750 7c.644 3.635.403 3.027 2 5l1-4-3-1zm756 0l-2 1 1 4 3-3-2-2zm-786 1l2 4h1v-1l-3-3zm817 0c-2.37 3.373-2.03.552-1 4l2-4h-1zm-735 2c.26 3.942-1.185 3.282 4 5l-3-5h-1zm651 0l-3 4v1c3.65-1.06 2.94-.814 5-3l-2-2zm-675 4l-3 3 2 4h3l1-1v-4l-3-2zm699 0l-2 2 1 5h1l4-1 1-3-1-2-4-1zm-766 3c-5.035 5.31-6.345 6.855-5 15l2 1c3.9-2.664 6.763-4.367 8-10l-5-6zm835 0l-4 6v4c4.16 2.534 5.74 5.203 10 5l1-3c-1.466-6.74-.8-8.093-7-12zm-786 2c1.37 4.054.985 2.957 4 5-1.293-4.188-.553-3.135-4-5zm473 0l2 2-2-2zm262 0l-3 3 1 2 2-2c2.042-1.8.707-.015 2-3h-2zm-723 6c1.302 4.712 1.308 4.68 6 6-1.046-4.86-2.437-3.476-6-6zm712 0c-3.065 3.504-3.952.962-6 6h4l3-6h-1zm-786 2l-2 5 3 2 3-1 1-3-1-2-4-1zm117 0c1.216 4.493.062 3.223 4 5-1.293-4.188-.553-3.135-4-5zm624 0l-2 1 1 4 2-1 1-3-2-1zm119 0l-3 2c1.136 3.637 1.133 2.736 3 5l2-2 3-1-3-4h-2zm-838 1c-.607 3.956-.73 3.28 2 6l3-3-5-3zm815 0l-3 3 3 3 2-2h2c-1.537-4.202.185-2.448-4-4zm-290 1l24 29c-4.186-10.75-13.81-24.45-24-29zm-475 1c1.76 3.987 2.405 4.72 7 6l-4-6h-3zm714 0l-4 6h1l6-4-1-2h-2zm-691 1l2 4 1-1v-1l-3-2zm47 0c-1.244 6.144.3 6.196 4 11l2-1v-1l-6-9zm384 0c2.37 1.68 1.985 1.904 5 1l-5-1zm190 0l-4 11 6-5c-.52-2.63.36-3.698-2-6zm47 0v4l3-2-1-2h-2zm-1386 6l-6 5 1 2c20.596 7.347 101.958 18.973 118 9h2l-1-4c-24.015.312-67.76 6.88-96-2-7.305-2.297-11.33-8.12-18-10zm2117 0l-4 6c-25.344 6.79-103.937 3.628-110 8l1 2c21.214 5.985 107.9 4.627 123-11l-3-3-7-2zm-1412 2l2 4 2-2-4-2zm15 0c1.802 4.196 3.202 5.68 8 7l-5-7h-3zm13 0v3c2.602-.425.546.976 3-1l-3-2zm638 0v4l2-4h-2zm13 0l-6 6v1c4.587-1.283 5.61-2.777 8-6l-2-1zm15 0c-1.11 2.835-.865 1.454-1 4l3-3-2-1zm-772 1l-3 14 2 2 2-1 2-12-3-3zm853 0l-2 3 3 13 3-2-1-12-3-2zm-731 2l3 4c-1.32-3.827.002-2.08-3-4zm605 0v4l3-3v-1h-3zm-640 2l6 8 2-2-2-3-6-3zm676 0l-6 6 1 2 4-4 4-2-1-2h-2zm-708 5c-17.463 6.495-27.423 2.867-40 14l-13 18 5 10h2c2.84-18.943 34.96-40.72 55-31-2.058-5.48-4.253-8.152-9-11zm742 0l-5 5-3 6c24.556-10.404 45.98 13.17 57 31l1-2 5-7c-21.654-30.388-20.52-22.27-55-33zm-793 1c-.607 4.127-.03 3.63 2 7l2-1v-1l-1-2-3-3zm4 0l2 3 1-3h-3zm91 0l-1 4 5 4 2-1v-1l-2-4-4-2zm653 0l-5 4v3l1 1 4-4h2l-1-4h-1zm91 0c1.29 4.015 1.77 2.478 4 7l4-3v-1l-2-3c-4.21 1.382-.763.677-6 0zm-780 1c2.153 6.254 6.897 12.575 12 13v-1c-3.954-5.844-6.022-8.216-12-12zm726 0l-9 5c-.882 5.434-2.383 5.42 0 9v-2c4.748-1.324 10-8.584 9-12zm-642 1l1 6 3 3 2-2-6-7zm555 0c-1.79 5.075-3.92 5.51-2 9l3-1c.415-4.857 1.5-5.275-1-8zm-607 2c.27 3.96-.554 5.268 5 7v-3l-3-4h-2zm26 0l5 10 2-1v-1c-2.786-3.145-2.95-5.828-7-8zm608 0l-6 8 2 2 3-2 3-8h-2zm26 0l-3 4v3c4.453-1.363 3.91-1.59 6-5l-3-2zm-774 3l-3 5c2.062 2.212 1.382 1.882 5 3l2-4-4-4zm891 0c-1.747 4.334-2.498 4.523 1 8l2-2 2-1-5-5zm-795 1l5 6c-.912-3.65.038-2.045-2-4l-3-2zm696 0l-3 6 6-5v-1h-3zm-783 3l3 8h1c.307-5.574.366-5.02-4-8zm111 0c-.232 3.933 4.082 10.956 10 12v-3l-10-9zm649 0c-3.61 4.29-7.18 5.596-9 12l4-2c3.824-2.436 1.872-3.954 7-8l-2-2zm113 0l-4 5 3 3c.322-3.305 2.863-5.267 1-8zm-1004 1c-1.838 4.07-3.368 7.637-7 10h-7l6 12h3l8-20-3-2zm1138 0l-2 5c3.478 5.02 5.363 12.984 10 17 3.875-2.966 6.067-5.962 7-12h-9l-6-10zm-1010 2l5 8c-.884-4.797-1.396-5.948-5-8zm878 0l-1 2 1 1 2-2v-1h-2zm-785 1l2 4-2-4zm3 0l2 4-2-4zm45 0c1.22 3.714 2.228 5.836 5 8l-1-7-4-1zm382 0l1 2 1-2h-2zm59 0l1 6h1l-2-6zm152 0l-3 8h1l3-2c.15-3.955 2.08-4.77-1-6zm47 0c-.03 3.167-2.42 2.635 1 4 .634-2.418 3.533.33 2-2h2v-2c-2.998.115-.723 1.953-3 0h-2zm-782 2l-3 4 1 5 5-2v-4l-3-3zm102 0zm425 0l11 3c-2.615-3.202-4.807-3.26-11-3zm250 0v2c.977-1.745.912-.22 0-2zm104 0c-1.73 4.85-2.406 5.584 1 9 3.4-1.346 2.07-.607 4-3l-1-4-4-2zm-4 1l-1 4 2-1c-.536-3.116 1.365-.9-1-3zm-97 2l2 1-2-1zm-726 1l-4 4 2 2c1.434-3.31 4.308-2.428 10-2v-1l-8-3zm13 0c1.136 3.637 1.133 2.736 3 5l2-1v-1l-5-3zm472 0l9 4c-2.484-3.323-3.272-3.685-9-4zm273 0l-3 5h1c2.622-1.95 2.6-1.48 4-5h-2zm12 0l-5 2 1 2c5.72-.655 6.817-.305 10 1l2-1-4-2c-1.963-2.066-.375-1.035-4-2zm-718 1l3 7-3-7zm23 0l4 6 2-2-1-2-5-2zm439 0l2 2-2-2zm180 0l-3 4 2 2 3-2 1-3v-1h-3zm25 0l-2 7h1l2-6-1-1zm-692 3v3h2l-2-3zm717 0l-1 1 2 2h1v-3h-2zm-1319 1l-4 8 3 4c20.005 3.448 74.317 4.866 87-7-41.427.267-54.91 8.268-86-5zm515 0l-3 11 4 4 3-2 1-9c-2.23-2.307-1.447-2.524-5-4zm892 0c-1.708 3.254-3.128 4.34-2 8 .645 4.274.99 4.566 3 7l4-3v-1c-.556-4.656-1.557-8.32-4-11h-1zm526 0c-12.523 16.45-58.544 5.507-86 5l1 2c25.423 4.04 67.59 16.716 91 2v-1l-1-4-5-4zm-1533 1c1.64 10.49 6.812 16.34 12 23l9-2 4-12c-5.85 1.785-6.354 3.85-13 3l-12-12zm176 0l-1 1 2 2 2-1-1-2h-2zm769 0l-1 1 4 2v-1l-3-2zm181 0l-13 13c-6.425-.83-8.29-3.44-12-4v1l7 13 6-1c6.252-2.624 14.125-15.04 12-22zm-945 2l-8 6c-2.088-3.953-1.144-2.31-4-3-.04 4.89-4.65 8.508-8 13l2 2 4-5c-3.075 10.576-3.82 14.96 1 25-4.505-1.17-3.607-3.086-6 1 5.26 2.084 3.62.728 4 6 5.417-5.294 10.708-27.227 14-30 5.292-4.457 15.658-7.88 21-12l-1-1-19-2zm749 0c-3.147 3.172-3.823 3.037-8 2l2 3c7.362.508 12.89 7.997 20 11 1.957 11.805 6.272 25.246 14 28l-2-3 6-3-2-2-5 3c4.4-8.865 4.843-13.696 2-25 4.07 2.624 2.57 3.196 6 2-3.69-4.904-6.637-8.214-10-14-3.487 2.8-1.13 2.454-4 2-7.557-3.19-12.286-2.53-19-4zm-700 1c2.834 13.026 5.1 26.442 7 39l2-1c1.264-15.436-.14-30.066-9-38zm446 0l11 8-11-8zm215 0c-4.643 7.854-14.82 27.834-6 39l6-39zm-685 4l-2 3v1l4-2-1-2h-1zm709 0c.57 2.514-1.108 3.248 4 4v-1l-2-1-2-2zm-779 2l4 17 2-9-6-8zm850 0c-1.077 3.58-1.406 4.107-4 6l1 11h1l4-17h-2zm-734 1l3 4c-1.32-3.827.002-2.08-3-4zm616 0l-2 1 1 3 3-3-2-1zm-672 1zm15 0c-5.68 11.8-10.55 26.995-13 33-5.77 1.573-17.924 4.86-20 12h1l6 2c5.572 1.176 7.08-.42 7-3-.88 3.038-1.436.264-3-1 7.764-.442 5.052-2.194 8-5 5.09 2.78 3.445 1.17 10 1v1l-4 4c-2.762 5.274-4.926 1.536-7 8 2.584-.908 4.34-1.202 6-3 16.91-12.402 14.182-30.966 9-49zm699 0c.866 8.377-3.355 10.452-5 17-3.987 15.874 11.27 27.13 17 35h5c-2.267-5.913-6.945-6.1-11-12v-1l18 4-3 3c-1.685-1.077-.128-.705-2 0h2l7 2 8-4-4-5c-21.4.79-18.84-19.722-30-39h-2zm16 0zm-1228 1l1 12 6 5c6.607 1.813 13.424.41 17-5l1-3-2-1c-11.486 4.4-13.307-4.266-23-8zm1734 0l-6 7c-6.733 4.235-11.237.895-17 3v1l3 4c6.96 1.95 9.227 3.378 17 2l5-6 1-11h-3zm-1595 1c1.922 20.31 30.11 90.632 44 95l2-6-8-36-4 13h-1l-13-14c-7.118-13.453-7.66-44.134-20-52zm249 0c-.48 6.61-2.353 13.412-6 17l-12-6-1 1 2 9c6.044 2.182 11.478 3.64 17 1 .372-7.53 2.457-18.92 0-22zm21 0l-3 3v11l4 2 3-2v-13l-4-1zm908 0l-3 6c1.39 4.897 1.67 7.202 5 10l3-1c1.3-4.795.094-10.993-2-15h-3zm23 0c-.437 4.52-.58 19.92 4 23 9.257 3.94 17.293-3.863 16-12l-13 6-2-3-5-14zm253 0c-8.155 22.523-14.128 52.888-32 66l-6-13v2c-4.128 9.047-8.026 31.37-4 40h3c16.887-25.03 36.355-59.678 41-95h-2zm-1256 1c1.72 10.057 7.846 16.313 14 22l2-2c4.667-2.154 6.735-5.51 8-11l-1-1c-10.996 6.61-14.073-4.325-23-8zm1053 0c-2.546 4.41-6.234 7.86-11 10-4.88 1.376-7.5-.628-10-1v1c1.942 6.572 5.074 7.817 9 12l3-1c4.8-6.375 10.147-11.55 12-21h-3zm-954 3c-.357 8.972 3.016 14.792 8 21-.97-6.18-3.812-17.52-8-21zm854 0l-6 21h1v-3c4.93-3.358 10.03-13.092 5-18zm-771 1l1 5-1-5zm36 0c-.694 4.316-.242 4.302 3 7l2-2-1-4-4-1zm613 0l-2 7h1l3-3h2c-1.537-4.202.185-2.448-4-4zm38 0v4h2c-.912-3.65.038-2.045-2-4zm-789 1l-3 6 4 8h1l1-3v-8l-3-3zm893 0c-1.5 4.787-1.415 10.916 1 14l2-1v-10l-3-3zm-709 1c.644 3.635.403 3.027 2 5l1-2-2-3h-1zm521 0l-1 4h1l2-2-1-2h-1zm-619 1c-.613 5.918-1.92 5.712 0 9 .717-5.265 2.033-6.45 0-9zm718 0c1.478 3.868 2.35 9.39 5 7-1.533-2.97-2.12-5.152-5-7zm-651 1v8h3v-5l-3-3zm584 0l-2 4 2 4 2-1c-.112-4.406.09-4.935-2-7zm-643 2l1 2-1-2zm9 0zm685 0l2 2-2-2zm-647 2c.796 5.326.746 6.056 4 9v-3l-3-6h-1zm607 0l-2 8 4-2c.278-2.366-.222-1.247 1-4l-3-2zm-655 1c1.72 2.983 1.32 2.174 1 6h-1v-6zm11 1l3 6v-3l-3-3zm683 0c-1.292 2.774-2.016 2.853-1 6l1-2v-4zm-691 4v5h-1v-1l1-4zm-76 2c.533 14.31 9.727 27.155 19 33-2.178-10.07-12.126-26.47-19-33zm72 0l1 2h-2l1-2zm781 0l-19 32 3 1c4.074-9.092 20.694-19.458 16-33zm-884 2l-3 4c1.21 4.317 2.05 4.727 5 7l3-2c-.61-5.766-1.624-5.628-4-9h-1zm916 0l-4 5-1 3c4.988 2.87 5.152 2.967 9-2v-3l-4-3zm-787 1c-2.013 6.114-.896 8.075 1 14h1v-2c1.075-3.066.064-8.672-2-12zm24 0l1 6 3 1v-4l-2-3h-2zm606 0l-3 4v2c4.42 2.015 2.417 1.923 6 6l1-2 3-2v-1c-4.725-1.908-1.45-2.37-6-1 .284-4.047 1.53-3.274-1-6zm25 0l-1 14h1v-2c3.11-3.906 3.582-7.978 0-12zm-706 1l-3 7c3.523-1.69 3.95-1.892 6-5l-3-2zm758 0c-1.098 3.512-1.994.532 0 4 1.517 1.926 1.79 1.77 4 3l-4-7zm-749 2l-2 1c1.8 2.042.015.707 3 2v-3h-1zm740 0c1.797 3.126-.324 2.893 3 2l-3-2zm-676 1l-3 4 3 4 3-3-3-5zm-79 5v4l2-2-2-2zm98 0v4l4-1-4-3zm672 0c.485 3.58-1.505 1.36 2 4l-1-4h-1zm-102 1v3l4-2v-1h-4zm-722 1c-1.63 6.46 1.883 11.17 7 14v-4c-1.897-4.742-3.293-7.18-7-10zm47 0l2 2-2-2zm783 0l1 2c-.424-.928.802-.676-1-2zm49 0c-3.276 4.467-5.42 6.29-6 14h1l5-4 2-5c-.644-3.634-.403-3.027-2-5zm-182 1l-5 4v5l2 4 4-3c.6-5.39 1.9-5.186 0-8l-1-2zm-561 1l-3 3 4 4h1c.324-4.608-.773-1.964 1-5l-3-2zm604 0c-.593 3.59-.985 4.582 1 7l4-4-3-2-2-1zm-665 1zm29 1c-14.735 22.564-46.082 26.352-68 12 3.743 25.727 66.878 18.49 71-7l-3-5zm5 0zm659 0zm5 0l-2 9 11 10c14.41 9.074 50.252 14.383 60-2l2-5c-27.405 16.783-47.956 5.94-71-12zm-644 3v4l2-2-1-2h-1zm619 0c-1.11 2.835-.865 1.454-1 4l3-1-1-3h-1zm-761 3c-.564 5.205 2.004 7.876 5 12l3-3c-1.987-4.28-3.567-7.04-8-9zm904 0l-6 9 3 3 6-8v-4h-3zm-746 2v4h2l-2-4zm586 0l-1 4h1l2-2-1-2h-1zm-970 3c-.822 7.55 18.454 54.42 25 58l8 2v-2c2.642-4.627 5.687-22.763 2-28h-1c.12 8.692-1.783 12.423-4 18h-4c-13.187-11.824-13.614-35.442-26-48zm1362 0c-5.694 13.434-13.364 41.356-26 48-3.023-1.26-1.196.018-3-2-3.523-3.7-2.653-13.16-7-16v5l3 24c15.128 2.945 33.312-44.287 35-59h-2zm-995 5l2 4-2-4zm621 0l-2 1 1 3 2-4h-1zm-736 2c1.537 4.202-.184 2.448 4 4l-2-4h-2zm852 0l-2 3v1c4.202-1.537 2.448.185 4-4h-2zm-729 2c-2.088 2.824-2.51 2.865-3 8h1l3-6v8h-3c1.796 3.18 2.428 5.29 6 7l1-9-1-7-4-1zm603 0c-2.032 5.716-2.58 13.898 0 17l5-6c-1.848-2.658-1.992-1.78-3-6h1c1.782 3.583-.53 1.183 3 3l-1-7-5-1zm-937 2c.493 16.783 9.864 47.256 20 56-1.316-8.687-15.062-52.107-20-56zm1279 0l-19 56 3-2c5.456-18.02 14.335-33.084 18-54h-2zm-1084 1c-.17 6.166 2.484 11.993 6 17l2-1v-1c-1.01-6.585-3.845-11.555-8-15zm886 0l-8 13 1 4 2-2 2-2c2.353-3.035 4.234-9.4 3-13zm-761 6l2 3h1v-1l-3-2zm631 0v3l3-2v-1h-3zm-663 6l5 6c-1.255-4.422-1.266-4.198-5-6zm696 0l-3 6h1l5-4-1-2h-2zm-656 1c-4.71 9.68-2.008 21.77-6 30 6.563-6.77 6.736-14.202 11-22-2.874-4.04-1.335-4.42-4-8h-1zm615 0c-.112 6.727.49 3.922-3 8 9.634 15.075 5.976 31.115 5 52h3c1.1-15.482 8.633-48.202-3-60h-2zm-719 1l2 4 2-1v-1l-4-2zm25 0l-6 4 1 3c5.195 1.802 8.667 1.932 13-4l-3-3h-5zm13 0c1.37 4.054.985 2.957 4 5h1v-1l-5-4zm749 0l-3 5h1l3-1c.297-3.42 1.228-1.485-1-4zm9 0l-2 3 4 5 5 1 5-3-1-5-11-1zm29 0v4l3-2-1-2h-2zm-835 1v3c2.602-.425.546.976 3-1l-3-2zm59 0l-2 2 3 4h8c-1.453-4.595-3.652-4.557-9-6zm726 0l-7 4 1 2c6.07-.216 7.898-.01 11-3l-2-1c-1.8-2.042-.015-.707-3-2zm61 0v4l2-4h-2zm-760 4v4l4-1-2-3h-2zm672 0l-2 2 1 2h3l1-2-3-2zm-685 2l1 6h3v-1l-4-5zm23 0v4l3-1v-1l-3-2zm652 0l-1 3 2 1 1-4h-2zm24 0l-3 5v1c3.65-1.06 2.94-.814 5-3-1.26-3.023.018-1.196-2-3zm-751 8l-1 4h1l2-2-1-2h-1zm76 0l-2 2 5 14 4-1c-1.54-5.242-4.574-6.13 0-9l-2-5c-2.88.607-1.635 2.67-3 0l-2-1zm651 0l-1 3c-3.95-.75-3.19-2.543-5 3 4.662 2.956 1.406 3.657 0 9l4 1 5-14-3-2zm78 0l-2 2 4 2-2-4zm-786 5c.03 2.96-.215 2.032 1 5l6 1-1-4-6-2zm45 0l-2 6 4 6c3.804-.4 1.243 1.124 4-1l-6-11zm721 0c-3.232 2.45-4.276 1.557-6 6 5.333-1.115 6.046-1.15 9-5h-2l-1-1zm-46 1c-2.026 3.97-4.936 7.9-4 12h1l5-4c.37-2.508.22-2.08 2-5l-4-3zm-703 2c.26 3.942-1.185 3.282 4 5-1.293-4.188-.552-3.135-4-5zm731 0l-2 5c3.65-1.06 2.94-.814 5-3l-2-2h-1zm-726 2l1 3h4c-2.193-2.696-.713-1.902-5-3zm719 0l-1 2v1h4l1-2-4-1zm587 1h3-3zm-1299 4l-3 3 3 5h2l1-1v-5l-3-2zm708 0l-3 4 1 4 5-1v-6l-3-1zm-763 1c-3.99 14.79-8.463 32.554-14 44l2 1c6.516-3.38 21.185-35.173 12-45zm817 0c.27 16.863 4.263 37.018 14 45h1l2-4c-10.056-3.632-11.49-30.412-14-41h-3zm-797 15l-3 5h-1l-5-3-2 1 3 16 8-7 5-6-1-5-4-1zm62 0l-2 1 1 5h1v-6zm653 0c-2.37 3.696-3.607 5.745-4 12 4.86 1.6 5.418 2.694 9-1v-1h-5c1.832-3.85 3.163-6.367 1-9l-1-1zm61 0l-1 8 12 11 2-3c1.955-4.11 1.85-9.68 1-14h-1l-6 3c-2.265-2.99-2.714-3.726-7-5zm425 0h2c-1.745.977-.22.912-2 0zm-1178 2c-.23 7.124-2.465 10.543-1 13l3-2v-11h-2zm731 0v12l3 1h1c-.5-3.71-1.703-10.722-4-13zm-50 7l-2 9 2-1c2.602-.425.546.976 3-1l-3-7zm-646 1zm474 0v4h2c-.912-3.65.038-2.045-2-4zm166 4l-3 17 2 1h1v-2l3-16h-3zm-685 2l1 2 1-2h-2zm751 0l1 2c-.424-.928.802-.676-1-2zm-823 3c-2.895 7.512-6.442 22.67-13 27l-8-2-3 10h3l4-5c3.717 2.258 3.068 2.523 8 2 3.718-9.185 12-20.407 10-32h-1zm897 0c.29 14.446 5.906 24.285 12 33 10.035-1.313 4.36-.052 14 2v-4l-5-7-6 3c-8.736-5.822-6.845-20.715-15-27zm-885 1c-2.443 6.915-5.754 8.858-7 16 .84 2.582 1.526 5.236 3 7 4.507-4.76 6.463-14.523 8-22l-4-1zm575 0v4l3-3v-1h-3zm296 0c-.758 6.933 3.395 17.254 7 23l2-1 2-9c-4.672-4.457-5.7-8.282-8-13h-3zm-674 1v3h2c-1.26-3.023.018-1.196-2-3zm8 17l6 12h1l1-10c-4.756 1.272-3.13.624-8-2zm358 0c-1.11 2.835-.865 1.454-1 4l2-4h-1zm-17 11c.123 3.973-.896 2.068 1 5l-1-5zm-329 1c1.266 7.447 2.558 16.574 7 21l8-6 4 6-5-11-5 5-4-3c-.93-4.028-2.192-9.62-5-12zm326 6l-1 4 3 1 1-5h-3zm-13 7l-1 2c1.857-1.246.547-.893 1-2zm-7 2l-2 6 4-4-2-2zm-223 22v3l2-3h-2zm126 0v3l2-1-2-2zm-124 6l1 4h1c-.912-3.65.038-2.045-2-4zm120 0v4l2-4h-2zm-112 2l-1 5h1l1-5h-1zm4 2zm-350 11l-2 4 1 3 1-2v-5zm946 0l1 7h2v-3l-3-4zm-1093 3l-8 12 2 2 6-10h1l2 7c4.625-.228 6.024 3.906 8 0l-11-11zm98 0l-2 4h1l2-3-1-1zm1045 0c1.284 3.006.628 2.245 3 4l-3-4zm100 0l-10 14 10-5 1-5h1l4 10h3v-1l-9-13zm-1141 1l-1 1 2 2v-3h-1zm1037 0v3l2-1-2-2zm-1084 7l-1 2c3.023-1.26 1.196.02 3-2h-2zm1131 0c1.8 2.042.015.707 3 2l-3-2zm-1133 3l-2 7h2v-7zm1136 0zm-1130 1c1.907 3.79.428 2.056 3 3l-3-3zm447 0zm676 0l-1 3 3-3h-2zm48 1l-4 3 1 5 2-1 1-7zm-1241 1l-1 1 2 2h1v-3h-2zm23 0c2.263 3.545 2.212 3.97 4 7l2-3-1-2-5-2zm1178 0v4h2l-2-4zm63 0v3h3v-1l-3-2zm-964 1c-8.536 3.09-25.028-.746-31 5v1c15.546 2.214 31.454 5.412 40-5l-9-1zm590 0c6.755 11.52 32.44 9.61 49 7v-4l-3-1-46-2zm-457 1v8l2-1c-.208-4.313-.262-4.827-2-7zm275 0c.056 4.538.198 5.747 2 8l-1-2c.742-3.497.95-3.376-1-6zm-678 2zm1204 0l-3 3h1l4-1v-2h-2zm-1202 1c1.8 2.042.015.707 3 2-1.8-2.042-.015-.707-3-2zm26 0zm1148 0zm-1169 1l4 4 2-1-1-2-5-1zm1190 0l-4 2 2 2 1-2c3.023-1.26 1.196.018 3-2h-2zm-1173 1c1.344 2.682 2.318 2.92 3 0h-3zm1154 0c1.344 2.682 2.318 2.92 3 0h-3zm-1164 1l1 3 2-1-3-2zm300 0l-35 15c-13.625 4.405-13.942-5.19-22 0v3l3 1c12.53 5.367 51.62-8.25 55-19h-1zm494 0l-1 1c8.564 10.27 67.188 23.102 84 17v-3l-7-4c-10.927 12.58-60.262-6.417-76-11zm381 0l-1 1 2 2h1v-3h-2zm-785 4l1 14h1l-2-14zm273 0v14h1v-14h-1zm-339 10c-10.868 9.635-26.73 14.846-38 13l-2 8 1 1c11.153-.152 46.18-19.465 39-22zm433 0c8.966 9.02 44.997 27.225 61 20v-1l-5-7c-14.23 10.017-38.66-8.312-56-12zm-426 3v13h4c2.73-3.635 4.653-4.56 6-10h-1l-6 3-2-6h-1zm418 0l-3 6-9-2c1.688 6.136 5.588 8.63 13 9l2-2c.062-5.713-.463-8.192-3-11zm-357 7l-1 6 2 1-1-7zm11 0l2 18h1l-3-18zm106 0l-2 8c2.81-2.137 3.47-4.413 2-8zm114 0v17h1c.386-8.434 1.324-13.16-1-17zm22 0l-2 18h1l2-18h-1zm16 0l1 7v-7h-1zm-243 1v16l2-1-2-15zm74 2v4h1l-1-4zm-93 1l1 5-1-5zm251 0v5l2-2-1-3h-1zm-258 9l4 21h2v-2c3.317-6.54-.155-14.006-6-19zm21 3l1 5-1-5zm216 0l3 10h1v-1c-1.01-2.99-1.87-7.01-4-9zm-211 4l2 18h1c-.037-5.018-.27-15.187-3-18zm204 0l-2 19h1v-2l2-17h-1zm-210 3v3l1-3h-1zm-330 16l-1 2 1 1 2-2v-1h-2zm1009 0l3 3 1-1-4-2zm-616 3l-1 5 3-5h-2zm-396 1l-8 7v1h5l7-6-4-2zm1014 0v4l5 4h7v-1l-2-3-10-4zm-1024 6v3l1-3h-1zm1037 0v3l1-3h-1zm-763 26l-1 7h1v-3c2.498-1.19.984.64 2-2l-2-2zm388 4l2 2-1 1-1-3zm-387 3zm1 5l1 9h1l-2-9zm469 4l2 2-2-2zm-69 21l1 2-1-2zm-7 1l1 4-5-1 4-3zm-132 6l2 2-2-2zm3 6l2 2-2-2zm-227 5l-1 5h1l1-5h-1zm42 1l-1 3c2.042-1.8.707-.015 2-3h-1zm190 0v3h2l-2-3zm-214 12l-1 2 2-2h-1zm61 9c-2.31 3.34-1.22 1.236-4 3l-2-2-1 5c5.423 3.848.087 10.734-5 13l2-9-2 1c-.53 4.543-1.244 11.017-3 13l1-2c-1.996 2.058-16.888 34.804-20 42h-1c.978-9.387-.576-17.785-3-26l-3-1-3 2c-2.713 4.426-5.225 5.95-7 12l-1-3c-2.846-3.367.152-12.603 0-18h-1l-4 4c-7.45 3.337-9.258 10.443-15 15l-24 11c-15.14 13.78-15.834 43.99-15 64v33c5.29 11.47 18.72 14.95 26 24 23.058 28.655 44.38 60.17 80 76-8.328-30.568-5.478-80.876 5-115 7.36-23.97 18.373-26.134 12-58-5.077-25.387 3.874-65.266-12-84zm-22 11l-3 3 3-3zm9 8l1 2-1-2zm199 50c-6.034 43.653-32.65 115.938-23 157 3.992 16.987-8.612 28.683-2 46l10 9 10 24 6-6c26.246-10.645 53.764-52.172 67-78 8.066-15.74 26.263-27.283 31-45 2.66-9.95-4.357-25.457-7-32-4.488-11.11-3.51-27.903-11-39-3.602-5.336-69.685-34.298-81-36zm-152 105c-6.812 30.577-1.474 28.68 6 55 5.54 19.51 5.073 34.522 12 52 6.208 15.664 20.54 30.268 30 43l4 17c13.895 16.884 22.717 32.748 28 57l-3 12c3.76 82.838-19.7 127.176-48 194 18.063-9.567 35.418-20.788 51-33 12.086-9.472 19.9-26.273 33-35l14-7c-5.78-11.165-12.007-13.558-20-23-13.676-16.155-30.31-80.227-19-113 2.91-8.437 18.033-26.32 24-35-12.21-14.07-24.858-32.644-35-48l-12-30c-5.293-7.753-14.014-13.32-18-23-14.262-34.637-16.68-65.11-47-83zm136 218l-7 10c14.11 20.985-.753 55.064 19 78l1-2c-4.795-32.485 19.614-63.344-13-86zm-388 496h2l-1 6h-1v-6z"/></svg>