<svg xmlns="http://www.w3.org/2000/svg" height="175.667" width="340.427"><path d="M67.546 26.857l-.087 71.68h44.846V74.066zM171.495 17.721l-.088 80.816h42.485v-38.33zM263.637 17.721l.088 80.816H221.24v-38.33zM263.725 1.181h-92.318v6.583l46.16 46.254 46.158-46.254zM164.5 1.181h-60.89l60.802 62.928zM119.742 26.857l-.088 71.68H164.5V74.066z" fill="none" stroke="#000" stroke-width="2.36034099"/><path d="M0 113.5h15.542L36 147.555V113.5h15.666v61.167H36L15.667 140.82v33.847H0V113.5M64.77 113.5h16.666v61.167H64.769V113.5M94.764 113.5h21.976l8.399 37.25 8.416-37.25h21.876v61.167h-13.667v-46.584l-10.527 46.584h-12.302l-10.505-46.584v46.584H94.764V113.5M184.55 125.833h7.394c3.052 0 5.137.532 6.257 1.594 1.12 1.063 1.683 2.589 1.683 4.573 0 1.344-.36 2.531-1.073 3.565-.714 1.037-1.618 1.68-2.708 1.93-2.214.56-3.698.838-4.454.838h-7.098zm0 48.834v-24.834h1.462c1.53 0 2.895.474 4.093 1.42.891.724 1.907 2.296 3.05 4.716l8.882 18.698h18.847l-8.055-17.73c-.39-.89-1.166-2.156-2.333-3.796-1.167-1.641-2.057-2.711-2.67-3.214-.917-.75-2.362-1.5-4.333-2.252 2.482-.641 4.435-1.446 5.859-2.42 2.261-1.531 4.024-3.526 5.295-5.99 1.268-2.46 1.904-5.387 1.904-8.783 0-3.893-.839-7.196-2.511-9.91-1.672-2.71-3.875-4.567-6.604-5.57-2.732-1-6.675-1.502-11.83-1.502h-27.889v61.167h16.834M245.365 130.867c2.024-2.687 4.714-4.034 8.068-4.034 3.492 0 6.266 1.326 8.318 3.972 2.052 2.646 3.078 6.838 3.078 12.573 0 6.817-.978 11.541-2.932 14.174-1.956 2.633-4.721 3.948-8.297 3.948-3.495 0-6.245-1.344-8.255-4.031-2.01-2.688-3.016-7.11-3.016-13.26 0-6.206 1.011-10.654 3.036-13.342zm-15.997 31.091c2.47 4.75 5.696 8.224 9.68 10.417 3.981 2.195 9.013 3.292 15.093 3.292 5.967 0 10.956-1.271 14.967-3.813 4.01-2.542 7.077-6.096 9.203-10.667 2.122-4.567 3.185-10.421 3.185-17.562 0-9.833-2.43-17.48-7.287-22.938-4.858-5.458-11.77-8.187-20.734-8.187-8.744 0-15.566 2.779-20.463 8.333-4.901 5.558-7.35 13.32-7.35 23.292 0 7.14 1.235 13.083 3.706 17.833M311.49 127.333c4.369 0 7.507 1.2 9.411 3.597 1.903 2.398 2.856 6.846 2.856 13.34 0 4.91-.424 8.46-1.27 10.647-.847 2.187-2.016 3.721-3.511 4.599-1.495.88-4.02 1.317-7.573 1.317h-4.146v-33.5zm-20.9 47.334h24.855c2.984 0 6.318-.555 10-1.67 2.678-.807 5.188-2.427 7.531-4.859 2.344-2.432 4.17-5.45 5.481-9.055 1.311-3.601 1.967-8.672 1.967-15.208 0-4.172-.44-8.12-1.317-11.849-.88-3.727-2.311-6.995-4.29-9.805-1.981-2.81-4.478-4.966-7.489-6.468-3.013-1.5-6.975-2.253-11.883-2.253h-24.854v61.167" fill="#231f20"/><path d="M95.399 1.181h-27.94V16.9l44.758 47.209.063-45.122z" fill="none" stroke="#000" stroke-width="2.36034099"/></svg>