<?xml version="1.0" standalone="no"?>
<!DOCTYPE svg PUBLIC "-//W3C//DTD SVG 20010904//EN"
 "http://www.w3.org/TR/2001/REC-SVG-20010904/DTD/svg10.dtd">
<svg version="1.0" xmlns="http://www.w3.org/2000/svg"
 width="3474.000000pt" height="3474.000000pt" viewBox="0 0 3474.000000 3474.000000"
 preserveAspectRatio="xMidYMid meet">
<metadata>
Created by potrace 1.11, written by Peter Selinger 2001-2013
</metadata>
<g transform="translate(0.000000,3474.000000) scale(0.100000,-0.100000)"
fill="#000000" stroke="none">
<path d="M17165 30313 c-4 -16 -9 -37 -11 -49 -2 -11 -21 -81 -43 -155 -119
-412 -130 -435 -254 -568 -72 -78 -110 -155 -121 -249 -4 -38 -7 -41 -32 -46
-294 -57 -293 -57 -344 -103 -26 -24 -79 -89 -117 -145 -37 -56 -87 -123 -110
-149 -68 -75 -64 -92 58 -246 161 -202 238 -270 358 -313 l63 -23 45 24 c56
30 107 88 129 146 9 23 21 43 27 43 6 0 29 -9 52 -20 46 -22 73 -68 77 -129 3
-30 -1 -35 -27 -44 -41 -14 -104 -57 -127 -87 -43 -60 -30 -155 39 -272 35
-60 38 -91 18 -153 -26 -77 -176 -300 -223 -332 -42 -28 -124 -38 -183 -23
-160 42 -308 217 -311 371 l-2 63 71 65 c39 36 79 81 88 100 22 44 27 156 10
218 -33 122 -75 178 -284 383 l-158 155 -45 118 c-40 106 -46 116 -53 90 -6
-25 -7 -103 -1 -223 4 -67 -10 -119 -76 -290 -75 -194 -98 -284 -99 -385 -1
-90 25 -177 64 -212 12 -11 56 -39 98 -62 86 -48 89 -54 89 -166 0 -153 -92
-308 -222 -374 -42 -22 -124 0 -244 64 -107 58 -104 55 -119 128 -2 11 15 44
41 77 74 98 76 106 60 303 -6 74 -6 78 20 105 38 39 89 121 103 164 7 20 14
81 16 135 9 212 22 274 85 398 36 73 30 86 -54 121 -123 50 -205 67 -316 67
-95 0 -116 -3 -213 -37 l-107 -37 -73 49 c-93 63 -92 63 -292 77 -124 9 -155
15 -204 40 -56 28 -78 53 -114 130 -35 74 -89 165 -97 165 -12 0 -8 -141 5
-205 15 -68 64 -176 117 -254 17 -25 34 -48 38 -51 3 -3 39 -48 80 -100 41
-52 80 -100 86 -106 26 -29 100 -164 150 -274 67 -149 130 -322 184 -505 23
-77 48 -161 55 -186 18 -58 142 -554 149 -594 3 -16 22 -84 41 -150 20 -66 38
-127 40 -135 2 -8 12 -42 22 -75 12 -43 17 -96 18 -185 0 -111 -3 -131 -24
-174 -13 -28 -30 -68 -37 -90 -13 -37 -13 -42 2 -53 9 -6 33 -28 54 -47 62
-57 204 -132 323 -170 141 -45 279 -75 522 -111 22 -3 54 -8 70 -11 174 -32
199 -33 315 -19 106 13 151 13 210 -3 117 -30 172 -40 390 -67 173 -22 582
-22 790 0 25 3 70 7 100 10 30 3 89 10 130 16 158 21 211 29 230 34 8 2 31 7
50 10 29 5 186 37 240 50 164 37 420 116 507 156 24 10 46 19 50 19 20 0 255
124 281 148 23 22 29 36 30 74 3 65 -13 130 -51 207 -26 55 -31 78 -31 136 0
62 8 132 19 175 2 8 7 35 10 60 12 90 105 443 163 617 125 376 314 804 511
1157 179 319 260 532 233 606 -5 15 -17 -5 -46 -81 -42 -106 -59 -126 -130
-149 -38 -12 -158 -10 -251 5 -68 11 -199 9 -223 -4 -12 -6 -39 -29 -60 -50
-70 -70 -83 -71 -177 -12 -58 37 -93 39 -185 12 -188 -55 -307 -92 -320 -99
-20 -12 -37 -88 -33 -156 7 -137 117 -372 232 -493 23 -24 23 -23 -13 -153
-15 -52 -29 -126 -32 -165 -5 -61 -3 -76 18 -114 17 -31 38 -52 68 -68 44 -24
51 -32 64 -85 5 -21 0 -33 -25 -58 -66 -65 -167 -101 -290 -102 -91 0 -76 -11
-164 117 -80 117 -109 193 -110 285 0 93 19 128 103 185 88 59 120 129 120
260 0 116 -28 210 -125 419 -82 176 -107 239 -123 305 -7 29 -15 49 -19 44 -4
-4 -20 -47 -35 -95 -24 -75 -41 -104 -125 -215 -207 -275 -246 -358 -244 -521
2 -93 30 -144 98 -177 29 -15 55 -32 58 -38 2 -7 3 -37 2 -67 -5 -143 -104
-300 -232 -368 -152 -80 -288 -27 -383 149 -54 101 -50 145 25 294 72 142 76
185 30 304 -30 77 -47 91 -105 91 -40 0 -59 22 -55 64 5 46 29 81 70 100 58
28 62 27 128 -55 83 -103 158 -88 308 64 60 60 174 207 218 279 l22 37 -33 37
c-18 20 -37 42 -43 48 -5 6 -32 38 -59 71 -53 65 -174 185 -187 185 -4 0 -14
6 -21 13 -17 17 -147 78 -177 84 -13 2 -34 9 -45 15 -12 6 -23 9 -26 7 -2 -2
-14 23 -25 56 -31 87 -55 130 -125 220 -87 112 -125 197 -160 367 -52 243 -83
334 -133 391 l-25 27 -7 -27z m-5 -258 c0 -8 -4 -15 -9 -15 -5 0 -14 7 -21 15
-10 13 -9 15 9 15 12 0 21 -6 21 -15z m-54 -347 c-3 -13 -6 -31 -6 -40 0 -12
-8 -18 -21 -18 -17 0 -20 4 -15 23 3 12 6 30 6 40 0 11 8 17 21 17 17 0 20 -4
15 -22z m-131 -208 c-18 -34 -45 -31 -45 6 0 20 5 24 30 24 l31 0 -16 -30z
m-140 -312 c-8 -41 -14 -48 -54 -54 -30 -5 -31 -4 -31 29 0 32 3 36 38 45 20
5 40 10 45 11 4 1 5 -14 2 -31z m622 0 c-2 -7 -10 -30 -18 -50 -11 -32 -18
-38 -41 -38 -34 0 -34 2 -3 57 17 29 33 43 46 43 13 0 19 -5 16 -12z m172 -40
c12 -35 13 -33 -14 -42 -32 -9 -48 7 -40 43 9 42 39 42 54 -1z m-967 -31 c20
-31 9 -47 -32 -47 -36 0 -40 3 -40 24 0 13 5 26 11 28 26 9 54 6 61 -5z m-168
-49 c15 -25 -3 -39 -58 -45 -40 -5 -46 -3 -46 12 0 49 78 73 104 33z m448 -43
c48 -6 49 -7 62 -66 7 -34 -9 -88 -31 -104 -29 -21 -104 -9 -130 21 -29 31
-33 86 -12 142 7 19 14 23 37 18 15 -2 48 -7 74 -11z m581 -8 c8 -12 18 -41
21 -63 7 -39 6 -42 -38 -78 -38 -31 -52 -37 -83 -34 -43 4 -50 19 -52 110 -1
73 13 88 84 88 44 0 55 -4 68 -23z m-423 -57 c0 -38 -2 -40 -20 -30 -13 7 -20
21 -20 40 0 23 4 30 20 30 17 0 20 -7 20 -40z m990 -85 c0 -23 -2 -24 -20 -15
-11 6 -20 17 -20 25 0 8 9 15 20 15 15 0 20 -7 20 -25z m-444 -38 c1 -34 -13
-53 -48 -61 -26 -6 -28 -4 -28 24 0 60 74 96 76 37z m-3280 -18 c8 -6 14 -20
14 -30 0 -16 -8 -19 -55 -19 -55 0 -56 0 -51 28 2 15 5 30 5 34 1 11 71 1 87
-13z m5163 0 c34 -12 44 -48 14 -51 -29 -2 -68 3 -74 10 -9 9 8 52 19 52 5 0
23 -5 41 -11z m206 -19 c9 -16 12 -30 8 -31 -5 0 -28 -3 -52 -6 -42 -5 -44 -4
-38 18 4 13 7 30 7 37 0 7 13 12 30 12 23 0 33 -7 45 -30z m145 0 c0 -13 -7
-20 -20 -20 -13 0 -20 7 -20 20 0 13 7 20 20 20 13 0 20 -7 20 -20z m-5352
-28 c22 -28 14 -42 -23 -42 -32 0 -35 3 -35 28 0 16 3 31 6 35 9 8 37 -3 52
-21z m2307 8 c9 -28 -2 -40 -36 -40 -26 0 -29 3 -29 30 0 27 3 30 29 30 21 0
32 -6 36 -20z m-637 -28 c17 -11 5 -40 -20 -48 -27 -8 -31 -1 -17 30 13 28 17
30 37 18z m852 -17 c0 -18 -7 -28 -26 -35 -39 -15 -50 -12 -62 15 -16 34 -16
33 11 37 71 11 77 9 77 -17z m2029 -1 c19 -17 15 -21 -31 -29 -40 -8 -57 8
-44 40 6 18 52 11 75 -11z m-1605 0 c3 -9 4 -20 0 -25 -7 -12 -44 -12 -44 0 0
5 -3 16 -6 25 -5 12 0 16 19 16 14 0 28 -7 31 -16z m604 -41 c-2 -20 -9 -29
-25 -31 -24 -4 -26 0 -17 36 4 13 14 22 26 22 15 0 19 -6 16 -27z m1332 -14
c0 -68 -37 -84 -59 -26 -20 52 -15 59 42 64 14 1 17 -6 17 -38z m-4320 12 c0
-11 -9 -21 -22 -25 -35 -9 -38 -8 -38 19 0 21 5 25 30 25 23 0 30 -5 30 -19z
m4838 -18 c-2 -31 -7 -39 -25 -41 -26 -4 -29 11 -13 52 5 14 17 26 25 26 13 0
15 -9 13 -37z m-5080 5 c18 -18 15 -28 -8 -28 -13 0 -20 7 -20 20 0 23 10 26
28 8z m4062 -18 c0 -17 -5 -30 -12 -31 -7 0 -23 -2 -35 -5 -20 -3 -23 0 -23
31 0 33 2 35 35 35 32 0 35 -2 35 -30z m594 -10 c19 -7 26 -17 26 -35 0 -14
-4 -25 -8 -25 -17 0 -45 28 -49 49 -3 24 -3 24 31 11z m-3651 -14 c3 -8 -3
-31 -14 -52 -10 -21 -19 -44 -19 -51 0 -7 -9 -13 -20 -13 -18 0 -20 4 -15 33
3 17 8 46 10 62 2 17 4 31 4 33 3 9 50 -1 54 -12z m1767 -11 c0 -8 -4 -15 -9
-15 -5 0 -14 7 -21 15 -10 13 -9 15 9 15 12 0 21 -6 21 -15z m-727 -24 c4 -1
7 -8 7 -16 0 -12 -7 -14 -27 -11 -16 2 -31 5 -35 5 -5 1 -8 7 -8 15 0 10 9 13
28 11 15 -2 30 -4 35 -4z m-2022 -11 c1 -5 3 -14 4 -20 1 -5 3 -14 4 -20 0 -5
12 -10 26 -10 18 0 25 -5 25 -19 0 -14 -10 -20 -42 -25 -24 -3 -53 -8 -65 -12
-18 -5 -22 -1 -28 27 -7 29 -4 36 26 61 36 29 48 34 50 18z m1859 -30 c0 -5
-4 -10 -9 -10 -6 0 -13 5 -16 10 -3 6 1 10 9 10 9 0 16 -4 16 -10z m788 -11
c4 -20 -27 -55 -55 -64 -24 -7 -24 -6 -1 58 8 20 17 27 32 25 11 -2 22 -10 24
-19z m422 -14 c0 -17 -9 -29 -31 -40 -36 -19 -37 -19 -45 22 -5 27 -3 32 17
35 56 8 59 7 59 -17z m408 -17 c-2 -15 -11 -24 -27 -26 -19 -3 -22 0 -17 13 3
9 6 21 6 26 0 5 9 9 21 9 15 0 20 -5 17 -22z m1111 -4 c30 -6 31 -9 31 -55 0
-48 -1 -49 -30 -49 -34 0 -50 26 -50 81 0 31 2 32 49 23z m-4551 -127 c5 -41
-33 -77 -73 -70 -42 8 -49 17 -35 44 32 62 102 79 108 26z m852 -2 c0 -18 -4
-23 -15 -19 -8 4 -15 15 -15 25 0 10 7 19 15 19 9 0 15 -9 15 -25z m-280 -24
c0 -22 -3 -46 -6 -55 -7 -19 -34 -21 -35 -3 0 6 -3 31 -5 55 -5 40 -4 42 20
42 23 0 26 -4 26 -39z m1140 30 c0 -5 3 -16 6 -25 5 -13 -1 -16 -31 -16 -30 0
-36 3 -31 16 3 9 6 20 6 25 0 5 11 9 25 9 14 0 25 -4 25 -9z m1620 -56 c0 -28
-4 -35 -20 -35 -16 0 -20 7 -20 35 0 28 4 35 20 35 16 0 20 -7 20 -35z m-2070
-5 c0 -23 -10 -26 -28 -8 -18 18 -15 28 8 28 13 0 20 -7 20 -20z m900 -25 c0
-23 -2 -24 -20 -15 -11 6 -20 17 -20 25 0 8 9 15 20 15 15 0 20 -7 20 -25z
m2398 5 c15 0 22 -6 22 -20 0 -17 -7 -20 -51 -20 -43 0 -50 3 -45 16 3 9 6 20
6 26 0 6 10 8 23 4 12 -3 32 -6 45 -6z m-4500 -52 c-2 -26 -8 -34 -27 -36 -21
-3 -23 -1 -18 20 4 12 7 29 7 36 0 6 9 12 21 12 17 0 20 -5 17 -32z m2592 -38
c0 -24 -13 -26 -34 -4 -21 21 -20 24 9 24 18 0 25 -5 25 -20z m-600 -35 c0
-20 -5 -25 -24 -25 -30 0 -42 16 -26 35 21 25 50 19 50 -10z m-1550 -70 c0
-28 -4 -35 -20 -35 -16 0 -20 7 -20 35 0 28 4 35 20 35 16 0 20 -7 20 -35z
m2200 -10 c0 -17 -7 -28 -22 -34 -29 -11 -29 -10 -22 27 8 41 44 46 44 7z
m940 -89 c16 -3 28 -46 13 -46 -4 -1 -24 -3 -44 -6 -33 -5 -37 -3 -43 21 -9
35 0 46 32 40 15 -4 34 -7 42 -9z m-3245 -43 c-14 -75 -55 -89 -55 -20 0 50 4
57 38 57 23 0 24 -2 17 -37z m831 -14 c-7 -37 -28 -59 -55 -59 -26 0 -34 15
-27 46 7 25 34 42 70 43 15 1 17 -4 12 -30z m2941 13 c12 -7 9 -53 -3 -74 -6
-10 -34 -11 -35 0 0 4 -2 16 -4 26 -4 21 11 56 23 56 4 0 12 -4 19 -8z m489
-28 c-6 -32 -26 -58 -38 -46 -4 4 -5 23 -2 40 5 22 12 32 25 32 15 0 18 -5 15
-26z m-86 -204 c0 -11 -7 -20 -15 -20 -8 0 -15 9 -15 20 0 11 7 20 15 20 8 0
15 -9 15 -20z m-1225 -199 c-7 -56 -23 -73 -63 -69 l-31 3 31 79 31 80 19 -24
c15 -19 18 -33 13 -69z m-1285 50 c0 -21 -6 -32 -21 -36 -27 -9 -32 -2 -24 34
9 43 45 44 45 2z m114 23 c16 -6 23 -43 9 -45 -5 0 -16 -2 -25 -4 -25 -5 -38
17 -29 50 1 7 26 6 45 -1z m-1834 -40 c0 -22 -25 -44 -49 -44 -14 0 -19 5 -16
15 3 8 7 22 10 30 6 20 55 20 55 -1z m2065 -51 c-8 -46 -21 -63 -46 -63 -14 0
-19 7 -19 28 0 36 26 72 52 72 18 0 19 -4 13 -37z m2095 8 c0 -17 -6 -31 -16
-35 -24 -9 -24 -9 -24 29 0 28 4 35 20 35 15 0 20 -7 20 -29z m-1043 -6 c7
-20 1 -25 -36 -31 -28 -5 -31 -3 -31 20 0 22 4 26 30 26 18 0 33 -6 37 -15z
m-777 -55 c0 -47 -2 -50 -25 -50 -22 0 -25 4 -25 34 0 47 9 66 31 66 16 0 19
-8 19 -50z m-770 20 c0 -13 -7 -20 -20 -20 -13 0 -20 7 -20 20 0 13 7 20 20
20 13 0 20 -7 20 -20z m252 -32 c41 -55 72 -168 50 -182 -6 -3 -60 -9 -120
-12 -110 -6 -111 -5 -127 20 -19 29 -16 37 57 138 44 60 53 68 83 68 25 0 38
-7 57 -32z m395 -72 c63 -81 66 -102 18 -122 -65 -27 -186 -9 -201 30 -9 24
14 89 47 129 46 56 70 49 136 -37z m1723 40 c0 -29 -4 -36 -31 -45 -41 -14
-40 -15 -35 12 3 12 5 32 5 45 1 18 7 22 31 22 27 0 30 -3 30 -34z m-2930 -7
c0 -6 -7 -6 -20 1 -11 6 -20 15 -20 21 0 6 7 6 20 -1 11 -6 20 -15 20 -21z
m2049 -14 c34 -17 75 -64 101 -116 36 -69 25 -88 -51 -90 -33 -1 -177 26 -186
35 -3 2 -7 18 -9 35 -5 30 17 62 90 132 24 23 20 22 55 4z m-565 -15 c35 -13
36 -50 2 -50 -23 0 -36 16 -36 46 0 17 1 17 34 4z m386 -20 c0 -23 -4 -30 -20
-30 -16 0 -20 7 -20 30 0 23 4 30 20 30 16 0 20 -7 20 -30z m-1477 11 c43 -3
4 -54 -49 -65 -25 -6 -32 -3 -36 11 -9 36 8 62 39 59 15 -2 36 -4 46 -5z
m1325 -15 c5 -24 -14 -36 -55 -36 -35 0 -36 2 -27 38 6 19 12 23 43 20 26 -2
37 -8 39 -22z m-1526 4 c16 0 35 -36 24 -47 -3 -3 -23 -8 -45 -10 -36 -4 -41
-2 -47 21 -8 33 3 49 30 42 11 -3 29 -6 38 -6z m-522 -45 c0 -18 -5 -25 -20
-25 -15 0 -20 7 -20 25 0 18 5 25 20 25 15 0 20 -7 20 -25z m202 -12 c21 -22
39 -52 43 -71 5 -31 3 -34 -41 -54 -26 -11 -71 -22 -99 -25 -46 -5 -55 -3 -64
16 -12 22 -6 62 16 99 42 71 43 72 76 72 25 0 42 -9 69 -37z m2868 -13 c0 -15
-7 -20 -25 -20 -27 0 -28 1 -19 24 9 24 44 20 44 -4z m-150 -29 c0 -5 2 -16 6
-24 3 -10 -5 -16 -27 -21 -38 -7 -35 -9 -44 27 -7 26 -5 27 29 27 20 0 36 -4
36 -9z m215 -42 c9 -26 7 -27 -39 -34 -36 -6 -37 -6 -32 22 2 15 5 29 5 31 1
1 14 2 30 2 21 0 32 -6 36 -21z m-3604 -56 c7 -20 5 -23 -16 -23 -20 0 -25 5
-25 26 0 32 29 30 41 -3z m229 7 c9 -17 7 -24 -12 -40 -23 -19 -75 -36 -84
-27 -13 13 -11 50 4 67 24 26 78 26 92 0z m618 -25 c20 -19 -4 -51 -52 -71
-38 -14 -41 -14 -53 2 -19 26 -16 40 13 69 26 27 64 27 92 0z m620 15 c15 0
22 -6 22 -20 0 -17 -7 -20 -51 -20 -43 0 -50 3 -45 16 3 9 6 20 6 26 0 6 10 8
23 4 12 -3 32 -6 45 -6z m174 -14 c14 -21 8 -36 -17 -42 -38 -9 -55 2 -55 35
0 29 2 30 33 24 17 -3 35 -11 39 -17z m376 1 c27 -21 13 -37 -33 -37 -41 0
-45 2 -41 23 3 12 5 25 5 30 1 9 51 -2 69 -16z m-2308 -28 c0 -24 -4 -30 -17
-27 -11 2 -19 14 -21 31 -3 22 1 27 17 27 17 0 21 -6 21 -31z m3071 14 c0 -5
2 -18 5 -30 3 -20 0 -23 -26 -23 -17 0 -30 3 -31 8 0 4 -2 17 -5 30 -3 19 0
22 26 22 17 0 30 -3 31 -7z m669 -38 c0 -38 -3 -45 -20 -45 -17 0 -20 7 -20
45 0 38 3 45 20 45 17 0 20 -7 20 -45z m-3570 10 c0 -9 -9 -15 -25 -15 -16 0
-25 6 -25 15 0 9 9 15 25 15 16 0 25 -6 25 -15z m3774 -33 c12 -42 -2 -57 -54
-56 -67 2 -89 36 -48 74 16 15 33 20 58 18 29 -3 36 -8 44 -36z m-648 8 c25
-21 15 -30 -31 -30 -42 0 -45 2 -45 26 0 23 3 25 31 20 16 -2 37 -10 45 -16z
m-2388 -33 c16 -13 -2 -36 -26 -32 -9 2 -20 4 -24 4 -3 1 -5 9 -3 19 2 9 4 20
4 24 1 8 30 -1 49 -15z m-819 -39 c6 -17 9 -33 7 -35 -10 -11 -66 -13 -67 -4
-1 6 -2 17 -3 24 -4 22 14 47 33 47 12 0 23 -11 30 -32z m3897 -84 c-3 -9 -6
-22 -6 -30 0 -9 -11 -14 -30 -14 -34 0 -34 -1 -20 34 7 19 17 26 36 26 20 0
25 -4 20 -16z m-3866 -79 c0 -14 -6 -25 -12 -26 -7 0 -26 -3 -42 -5 -29 -5
-46 7 -46 33 0 10 21 16 83 21 12 2 17 -5 17 -23z m3918 -747 c3 -24 -1 -28
-33 -34 -20 -3 -37 -5 -39 -3 -2 2 -1 19 1 37 5 30 8 33 37 30 25 -2 32 -8 34
-30z m-158 -47 c0 -5 2 -16 6 -24 3 -10 -5 -16 -27 -21 -38 -7 -38 -7 -45 28
-4 24 -2 26 31 26 19 0 35 -4 35 -9z m-184 -78 c2 -13 3 -23 1 -24 -1 0 -21
-2 -43 -5 -46 -6 -59 4 -49 37 6 17 14 20 47 17 34 -2 42 -7 44 -25z m-176
-43 c0 -22 -3 -23 -49 -14 -46 10 -40 34 9 34 33 0 40 -3 40 -20z m-199 -62
c-11 -30 -51 -37 -51 -10 0 25 8 32 36 32 20 0 22 -3 15 -22z m-188 -17 c10
-1 17 -9 17 -21 0 -17 -7 -20 -40 -20 -36 0 -40 3 -40 25 0 20 4 24 23 21 12
-3 30 -5 40 -5z m-2191 -45 c17 -25 7 -36 -32 -36 -22 0 -40 3 -40 8 0 4 -3
17 -6 30 -6 21 -4 22 32 16 22 -3 42 -11 46 -18z m2046 -13 c3 -22 0 -23 -52
-23 -53 0 -56 1 -56 26 0 24 2 25 53 22 45 -3 52 -6 55 -25z m-1850 -16 c27
-22 13 -38 -30 -35 -38 3 -43 6 -46 30 -3 26 -2 27 30 21 18 -3 39 -10 46 -16z
m1623 13 c14 0 19 -7 19 -30 0 -32 -2 -33 -48 -24 -30 6 -32 13 -23 63 1 2 8
0 17 -3 9 -3 24 -6 35 -6z m-348 -37 c4 -2 7 -13 7 -24 0 -28 -66 -28 -75 1
-3 11 -3 24 0 30 5 9 47 5 68 -7z m-925 -20 c3 -20 -1 -23 -32 -23 -32 0 -36
3 -36 26 0 23 3 25 33 22 24 -2 33 -8 35 -25z m750 0 c3 -21 -1 -23 -37 -23
-37 0 -41 2 -41 26 0 23 3 25 38 22 30 -2 38 -7 40 -25z m362 2 c0 -18 -5 -25
-20 -25 -15 0 -20 7 -20 25 0 18 5 25 20 25 15 0 20 -7 20 -25z"/>
<path d="M1168 27555 c-2 -2 -50 -5 -108 -8 -271 -16 -517 -88 -563 -167 -16
-26 -16 -32 -1 -78 28 -85 132 -174 269 -230 355 -146 745 -292 905 -339 47
-13 94 -28 105 -33 23 -10 191 -62 375 -115 69 -20 136 -40 150 -45 96 -33
314 -96 469 -135 225 -56 382 -118 359 -141 -15 -15 -200 -6 -227 11 -4 2 -18
6 -32 9 -13 2 -64 17 -114 32 -83 25 -105 28 -272 30 -100 1 -204 5 -230 9
-26 3 -64 9 -83 11 -19 3 -136 27 -260 54 -240 51 -280 58 -470 75 -36 3 -76
8 -90 10 -14 2 -54 7 -90 10 -36 3 -81 8 -100 10 -42 5 -116 13 -185 20 -116
12 -151 16 -165 20 -8 3 -33 7 -55 10 -252 33 -504 25 -593 -17 -35 -17 -54
-59 -54 -117 0 -91 60 -197 187 -330 322 -337 1208 -922 1445 -955 25 -3 56
-8 70 -11 13 -3 61 -8 105 -11 44 -3 91 -8 105 -9 14 -2 36 -4 48 -4 15 -1 42
-20 70 -49 44 -45 52 -49 122 -61 41 -6 77 -11 80 -11 3 1 17 -3 31 -8 14 -6
43 -13 65 -16 21 -3 50 -8 64 -11 14 -3 34 -7 45 -9 11 -3 124 -25 250 -51
127 -26 241 -49 255 -51 14 -3 32 -7 40 -9 8 -2 31 -7 50 -10 19 -3 53 -10 75
-15 54 -12 106 -22 127 -24 10 -1 21 -5 25 -9 4 -4 -90 -4 -208 0 -372 13
-789 8 -929 -11 -14 -2 -54 -6 -90 -11 -129 -14 -320 -58 -320 -73 -1 -4 -3
-24 -6 -44 -4 -25 -1 -43 8 -52 7 -7 29 -33 48 -57 185 -230 238 -278 446
-404 197 -120 587 -293 794 -353 19 -6 80 -24 135 -40 104 -32 354 -95 415
-106 19 -3 46 -8 60 -11 40 -9 199 -35 244 -40 22 -3 57 -7 76 -10 19 -3 71
-7 114 -10 44 -4 84 -9 89 -12 31 -19 -127 -50 -238 -48 -87 3 -160 10 -245
25 -30 5 -77 12 -105 16 -27 3 -75 9 -105 13 -74 9 -207 5 -277 -9 -90 -19
-131 -37 -162 -70 -40 -44 -35 -94 14 -166 104 -151 631 -512 885 -607 86 -32
148 -45 246 -52 44 -3 91 -8 104 -10 13 -2 60 -7 104 -11 45 -4 88 -8 96 -10
8 -1 26 -3 40 -4 24 -1 24 -2 -14 -35 -32 -29 -37 -38 -32 -61 22 -85 89 -170
208 -262 37 -29 70 -52 72 -52 3 0 25 -14 50 -30 170 -115 609 -292 798 -322
53 -8 74 -16 68 -23 -6 -8 56 -10 213 -9 155 2 248 -2 307 -12 47 -8 100 -12
118 -9 17 3 32 2 32 -2 0 -13 -159 -164 -213 -202 -26 -19 -47 -38 -47 -43 0
-5 -16 -42 -35 -82 -77 -157 -41 -281 109 -378 33 -21 96 -49 140 -63 72 -21
102 -27 196 -42 59 -9 242 -2 311 11 357 71 537 166 985 517 34 27 65 45 72
40 13 -8 -2 -73 -44 -201 -49 -145 -94 -292 -100 -323 -8 -48 -8 -148 1 -187
12 -53 55 -140 94 -190 99 -125 146 -148 346 -176 215 -30 372 -25 475 13 142
52 408 457 369 560 -6 17 -1 34 21 70 16 27 38 81 48 121 9 40 22 74 27 75 21
4 112 -154 269 -469 93 -186 196 -377 237 -439 105 -158 248 -297 378 -365 55
-29 169 22 212 95 21 35 46 114 48 152 2 24 31 0 88 -70 99 -123 165 -186 225
-216 60 -30 65 -31 204 -16 60 6 62 6 125 -38 60 -41 88 -57 249 -145 370
-202 510 -369 511 -615 l0 -68 42 7 c149 22 258 -20 307 -120 20 -42 21 -94 5
-156 -13 -46 -15 -93 -5 -105 6 -7 26 -12 46 -11 32 1 35 -2 44 -34 5 -19 11
-62 15 -95 19 -192 17 -188 61 -170 65 27 140 85 257 198 22 21 60 53 84 72
l44 34 47 -28 c139 -81 255 -113 381 -106 99 6 152 17 346 73 76 23 141 39
143 37 2 -2 -27 -51 -66 -108 -133 -197 -174 -300 -176 -441 -1 -80 -1 -81 29
-95 68 -33 165 -22 269 30 217 109 500 428 625 704 17 38 33 66 36 63 9 -9
-16 -120 -61 -278 -74 -257 -84 -340 -54 -480 16 -73 37 -92 107 -93 115 -1
224 100 335 313 46 86 111 248 144 353 17 56 27 67 39 46 4 -6 13 -8 21 -5 8
3 14 0 14 -6 0 -6 6 -19 14 -27 16 -19 122 -345 135 -415 l9 -50 -115 -140
c-63 -78 -123 -151 -134 -163 -32 -38 -204 -266 -241 -318 -50 -72 -151 -242
-176 -298 -46 -99 -63 -169 -63 -251 1 -75 1 -76 52 -261 83 -303 153 -468
278 -655 93 -139 106 -154 251 -300 157 -156 326 -290 620 -490 8 -5 57 -39
109 -75 52 -36 104 -68 115 -71 12 -4 41 -16 66 -26 64 -29 96 -42 170 -73 36
-15 81 -39 100 -53 52 -38 152 -144 242 -257 133 -168 159 -197 249 -285 l86
-85 6 -116 c7 -128 18 -216 48 -384 11 -61 13 -150 4 -195 -3 -14 -8 -41 -11
-60 -3 -19 -8 -44 -11 -55 -4 -11 -8 -24 -9 -30 -10 -45 -63 -194 -91 -255
-61 -134 -77 -162 -116 -206 -29 -33 -36 -48 -32 -66 6 -22 -7 -32 -147 -116
-149 -89 -281 -181 -344 -241 -18 -16 -45 -55 -60 -86 l-29 -58 -110 -42 c-60
-23 -132 -56 -160 -72 -27 -17 -138 -82 -245 -144 -537 -310 -775 -490 -859
-649 -56 -107 -149 -417 -216 -719 -33 -146 -85 -304 -180 -546 -111 -279
-123 -332 -140 -610 -2 -44 -9 -96 -15 -115 -9 -30 -7 -37 9 -50 22 -17 21
-21 -13 -118 -15 -40 -29 -100 -33 -132 -3 -33 -10 -60 -14 -60 -5 0 -9 -14
-9 -32 0 -33 8 -34 15 0 2 11 8 28 13 38 6 11 22 53 37 94 73 208 174 432 258
572 43 74 48 88 96 323 28 135 53 250 56 256 4 5 17 9 30 9 33 0 43 23 34 78
-4 26 -6 74 -4 107 4 113 133 448 211 550 20 27 21 59 0 56 -3 -1 -9 -1 -12
-1 -11 0 59 85 120 146 133 132 250 206 671 424 145 75 201 112 301 200 92 81
173 130 394 240 113 56 212 106 220 111 8 5 26 15 40 21 14 7 69 39 122 70 53
32 100 58 102 58 10 0 -39 -120 -84 -210 -53 -105 -208 -338 -260 -390 -3 -3
-32 -36 -65 -75 -130 -152 -332 -355 -514 -515 -41 -36 -79 -70 -85 -76 -11
-10 -229 -193 -311 -259 -42 -35 -136 -110 -201 -160 -77 -60 -214 -187 -269
-249 -120 -136 -175 -238 -281 -531 -31 -82 -59 -159 -64 -170 -5 -11 -32 -76
-61 -145 -28 -69 -66 -156 -84 -195 -18 -38 -61 -133 -95 -210 -35 -77 -67
-146 -73 -152 -5 -7 -6 -13 -2 -13 4 0 1 -10 -7 -22 -8 -13 -50 -102 -93 -198
-43 -96 -93 -208 -111 -247 -75 -163 -130 -321 -195 -559 -37 -138 -81 -287
-98 -332 -23 -65 -27 -82 -15 -82 8 0 17 8 21 18 3 9 34 85 68 167 77 183 138
310 383 805 236 477 225 450 287 675 55 198 71 237 177 422 88 155 97 175 88
199 -10 25 -5 32 74 113 46 47 103 106 126 131 131 140 214 220 222 212 4 -4
-2 -34 -16 -68 -36 -88 -55 -161 -72 -264 -3 -19 -7 -46 -9 -60 -24 -141 -21
-419 6 -601 6 -41 12 -86 14 -101 19 -138 83 -335 156 -483 115 -234 392 -557
595 -692 104 -70 110 -77 222 -241 69 -99 124 -162 305 -344 316 -318 457
-487 605 -730 l42 -68 -26 0 c-25 0 -26 -2 -20 -32 12 -56 13 -62 20 -111 4
-27 9 -56 11 -65 1 -10 8 -60 14 -112 7 -52 14 -108 16 -125 2 -16 7 -70 10
-120 3 -49 8 -106 10 -125 18 -158 24 -475 10 -595 -17 -158 -12 -222 23 -302
44 -99 51 -144 56 -393 4 -219 6 -236 71 -520 2 -8 4 -19 5 -25 1 -15 18 17
26 51 4 16 8 155 9 309 1 182 6 298 14 330 7 28 15 70 17 95 3 25 7 51 9 58
23 70 23 633 0 817 -2 17 -7 59 -10 95 -7 76 -10 103 -30 270 -8 69 -18 136
-21 150 -4 14 -8 151 -10 305 -4 337 -13 398 -82 533 -67 131 -222 346 -296
409 -33 29 -88 78 -121 108 -33 31 -87 79 -121 108 -33 28 -98 104 -145 166
-115 157 -173 217 -274 285 -90 60 -99 72 -109 145 -4 30 -21 64 -58 115 -79
108 -100 132 -297 344 -64 69 -82 104 -71 141 10 35 6 48 -33 116 -73 126 -67
84 -62 439 5 384 6 402 40 497 119 335 148 438 154 546 1 15 13 28 39 40 42
20 172 117 246 184 54 48 68 61 243 225 194 182 173 169 324 207 135 34 217
69 364 152 88 50 170 90 227 111 l38 13 -16 -37 c-62 -145 -114 -286 -124
-337 -61 -289 -38 -528 66 -695 139 -225 487 -432 995 -593 138 -44 162 -49
274 -62 28 -2 69 -7 92 -10 31 -3 105 -41 270 -136 283 -164 279 -161 304
-215 43 -95 146 -361 158 -409 44 -171 0 -387 -122 -600 -23 -40 -92 -147
-114 -175 -75 -98 -310 -379 -343 -410 -20 -18 -222 -253 -250 -290 -19 -25
-37 -47 -40 -50 -15 -13 -92 -141 -112 -185 -22 -49 -22 -56 -22 -435 0 -346
7 -579 18 -650 2 -14 7 -59 10 -100 4 -41 8 -86 10 -100 3 -14 7 -56 11 -95 4
-38 8 -72 10 -75 1 -3 6 -36 9 -75 11 -111 14 -127 25 -138 8 -8 11 -7 12 4 0
7 2 30 5 49 2 19 7 53 10 75 3 22 7 180 10 350 4 236 9 321 20 357 9 26 12 53
8 60 -5 7 -15 47 -24 90 -17 77 -20 332 -5 388 3 14 8 39 11 55 8 44 46 124
89 186 52 74 89 123 96 129 4 3 23 25 44 50 20 25 92 103 159 174 167 178 170
180 273 292 293 317 447 568 506 822 23 100 20 265 -7 375 -63 255 -157 437
-301 582 -139 141 -291 222 -666 359 -366 133 -489 189 -679 314 -63 41 -144
91 -180 110 -158 85 -202 124 -234 207 -18 48 -42 144 -50 200 -10 72 -28 170
-36 197 -20 63 3 110 98 208 50 52 128 173 184 285 69 138 146 278 193 350 49
75 77 105 230 248 33 30 71 74 85 97 42 71 54 80 102 74 62 -7 136 -28 273
-74 66 -23 167 -53 225 -66 105 -25 229 -63 285 -88 108 -48 210 -76 475 -131
215 -45 198 -39 690 -272 92 -44 87 -40 65 -57 -18 -13 -16 -16 27 -62 168
-178 303 -399 315 -515 5 -54 9 -62 36 -76 55 -28 86 -76 131 -201 50 -139 71
-174 133 -215 41 -28 77 -65 124 -130 97 -135 211 -305 239 -360 14 -26 33
-55 43 -64 16 -15 17 -15 17 2 0 23 -34 95 -57 121 -44 48 -45 51 -33 93 11
42 6 57 -54 148 -14 21 -28 54 -31 73 -3 19 -7 46 -10 60 -2 14 -7 43 -10 65
-7 55 -54 142 -139 259 -143 198 -137 187 -310 528 -251 497 -339 608 -566
716 -179 85 -338 140 -700 243 -135 38 -267 76 -295 84 -48 13 -81 18 -203 30
-43 4 -70 16 -140 62 -81 53 -227 132 -255 137 -6 2 -19 5 -27 8 -8 3 -28 9
-45 14 -27 9 -30 13 -27 44 4 40 24 98 77 220 63 145 97 258 98 325 1 76 -64
375 -120 550 -71 227 -139 393 -245 603 -55 109 -56 114 -44 150 10 30 31 49
107 101 531 361 979 890 1139 1346 90 255 100 508 28 725 -41 127 -78 189
-140 236 -31 24 -63 51 -70 58 -7 8 -74 76 -148 151 -134 136 -136 138 -265
201 -146 73 -162 85 -182 134 -28 67 -76 96 -188 113 -107 17 -167 38 -194 71
-14 17 -8 43 33 145 14 36 26 70 26 77 0 7 5 25 10 39 l10 27 39 -39 c21 -22
48 -42 60 -46 68 -17 246 240 322 467 23 67 26 81 33 141 l5 40 -15 -30 c-13
-27 -14 -27 -10 -5 3 14 8 51 11 83 9 75 19 113 30 110 5 -1 10 -14 12 -29 3
-18 0 -24 -8 -18 -8 4 -9 3 -5 -5 4 -6 11 -9 16 -6 4 3 11 -17 16 -43 8 -49
10 -59 14 -67 1 -3 3 -11 4 -17 0 -7 7 -13 14 -13 7 0 32 -48 56 -106 156
-385 391 -589 704 -615 l68 -6 38 42 c71 79 88 167 55 295 -23 92 -36 127
-104 270 -69 145 -97 214 -92 228 1 5 111 -98 242 -228 199 -198 319 -308 435
-398 43 -34 181 -117 194 -117 8 0 18 -4 21 -10 3 -5 43 -21 88 -36 113 -36
242 -37 342 -3 l70 24 -2 67 c-3 166 -120 381 -255 468 -50 32 -105 86 -97 94
2 2 68 -16 146 -39 78 -24 157 -46 175 -50 186 -35 415 -43 573 -19 112 17
268 62 371 108 l78 34 36 -30 c19 -17 64 -58 100 -93 97 -93 171 -149 235
-179 31 -15 59 -26 61 -23 3 2 13 34 23 71 19 70 24 156 10 193 -10 28 13 43
64 43 l34 0 5 133 c4 111 8 139 27 175 34 67 104 93 242 92 l76 0 7 62 c25
219 181 421 466 603 40 26 140 81 221 122 l148 75 81 -17 c79 -16 82 -16 145
5 140 47 291 180 336 297 l11 28 13 -25 c8 -14 22 -49 31 -79 20 -62 117 -171
152 -171 69 0 206 79 313 182 187 180 391 482 412 613 29 171 34 182 128 260
13 12 32 32 41 45 13 19 19 22 26 12 6 -9 13 1 21 35 28 107 36 128 51 128 24
0 84 -134 120 -268 76 -280 117 -367 219 -464 63 -60 194 -123 286 -139 304
-53 653 105 794 359 18 33 20 49 16 120 -6 97 2 63 -96 366 -44 134 -78 254
-77 265 3 19 8 17 46 -22 23 -24 42 -49 42 -56 0 -52 378 -281 630 -381 206
-81 309 -102 501 -99 278 3 499 66 604 171 55 55 69 89 69 168 0 84 -31 162
-90 223 -111 114 -145 153 -140 161 8 13 -14 28 -54 36 -60 11 -70 16 -70 30
0 8 12 18 28 22 34 10 344 10 435 1 60 -7 67 -6 57 7 -10 13 -8 15 14 16 14 1
29 2 34 3 4 1 29 5 55 10 27 4 59 10 70 12 12 3 33 7 47 10 214 43 521 146
725 244 275 132 431 276 451 417 5 40 4 42 -30 54 -20 7 -36 19 -36 26 0 7 2
13 4 13 2 0 28 5 57 10 30 6 69 13 88 15 18 2 41 7 50 9 9 3 36 8 61 11 24 4
47 8 50 10 3 2 21 6 40 9 39 6 54 9 125 26 28 6 59 13 70 16 131 26 430 157
564 246 75 50 211 147 221 158 3 3 23 18 45 35 82 61 150 140 168 195 23 70
22 126 -1 139 -22 12 -167 40 -252 49 -85 9 -374 8 -520 -1 -248 -16 -390 -19
-390 -8 0 6 6 11 13 12 6 0 21 2 32 4 11 3 47 7 80 11 33 3 63 8 67 10 3 2 28
6 55 9 26 3 57 7 68 9 12 2 48 7 80 11 33 4 69 9 80 11 10 2 37 6 60 9 22 3
69 10 105 15 36 5 82 12 103 15 70 10 465 129 562 170 17 7 84 34 150 60 141
57 397 182 510 250 265 160 531 421 521 511 -2 16 -4 34 -5 41 -2 17 -163 60
-291 78 -86 11 -139 17 -198 21 -75 4 -479 4 -587 -1 -282 -13 -505 -15 -505
-6 0 6 10 13 23 15 29 7 179 36 215 42 15 3 59 11 97 19 39 8 86 17 105 20 19
3 55 11 80 16 25 6 56 13 70 15 14 2 48 9 75 14 28 6 61 12 74 15 19 4 263 53
351 70 8 2 38 7 65 11 41 6 57 14 90 50 43 45 78 59 175 69 73 7 138 15 175
20 17 3 48 7 70 10 64 10 115 25 169 51 27 13 53 24 56 24 9 0 289 148 330
174 196 126 432 287 450 306 3 3 61 49 130 102 276 211 401 335 475 471 64
117 58 227 -15 270 -48 29 -156 44 -291 41 -68 -1 -137 -5 -154 -8 -16 -3 -57
-8 -90 -12 -33 -3 -62 -8 -65 -9 -3 -2 -37 -6 -75 -10 -39 -3 -86 -8 -105 -10
-19 -2 -73 -7 -120 -11 -47 -3 -98 -7 -115 -8 -16 -2 -68 -7 -115 -11 -47 -4
-92 -9 -100 -10 -8 -1 -44 -6 -80 -10 -79 -8 -87 -9 -225 -35 -60 -12 -144
-27 -185 -35 -41 -7 -95 -18 -120 -23 -25 -6 -61 -13 -80 -16 -19 -3 -105 -17
-190 -31 -169 -28 -179 -30 -260 -41 -59 -8 -67 -9 -150 -18 -30 -4 -62 -9
-70 -11 -8 -2 -53 -7 -100 -10 -47 -4 -96 -8 -110 -10 -72 -11 -230 -15 -230
-6 0 6 141 56 313 112 171 56 371 121 442 144 115 38 357 108 410 119 36 8
418 106 471 122 28 8 60 16 70 19 21 4 170 51 274 85 174 58 390 161 509 243
41 29 111 86 155 128 72 70 78 79 72 105 -19 74 -108 119 -333 168 -131 28
-257 40 -423 40 -115 0 -133 -3 -225 -34 -113 -37 -223 -48 -259 -25 -42 27
-142 38 -294 32 -81 -4 -158 -8 -172 -11 -14 -3 -45 -7 -70 -10 -25 -3 -56 -8
-70 -10 -14 -3 -45 -7 -70 -11 -95 -13 -106 -15 -130 -20 -14 -2 -38 -7 -55
-9 -64 -10 -101 -16 -120 -20 -11 -2 -42 -7 -70 -10 -27 -4 -77 -12 -110 -17
-33 -6 -106 -13 -162 -15 -106 -4 -110 -3 -230 52 -110 50 -118 50 -327 -1
-189 -46 -189 -46 -315 -40 -192 11 -238 14 -436 32 -38 3 -81 7 -95 8 -14 1
-59 6 -100 10 -41 5 -82 9 -90 10 -32 3 -126 18 -145 23 -11 3 -234 6 -495 6
-261 1 -491 4 -510 8 -35 8 -72 13 -158 24 -26 3 -58 7 -72 9 -65 10 -180 19
-230 18 -52 0 -159 -12 -170 -18 -3 -2 -30 -6 -60 -9 -30 -4 -71 -9 -90 -11
-19 -2 -69 -7 -110 -11 -41 -3 -88 -7 -105 -10 -16 -2 -61 -6 -100 -9 -38 -3
-77 -8 -85 -10 -8 -2 -40 -7 -70 -10 -123 -13 -298 -62 -355 -99 -22 -15 -54
-22 -130 -31 -27 -3 -135 -17 -239 -31 -103 -14 -194 -23 -202 -20 -22 8 -439
-138 -609 -214 -11 -5 -84 -36 -163 -70 -78 -33 -168 -72 -200 -86 -31 -14
-70 -32 -87 -39 -16 -7 -104 -47 -195 -88 -270 -122 -325 -143 -555 -214
l-220 -67 -55 -57 c-92 -94 -99 -96 -212 -74 -32 6 -192 -72 -349 -172 -71
-45 -113 -64 -167 -76 -103 -23 -257 -86 -482 -195 -107 -51 -310 -147 -450
-212 -613 -284 -889 -422 -1205 -603 -275 -158 -378 -233 -525 -382 -104 -106
-161 -154 -250 -212 -63 -42 -173 -115 -245 -162 -83 -55 -159 -115 -210 -167
-70 -70 -185 -154 -212 -154 -5 0 -29 -17 -52 -37 -42 -35 -43 -37 -21 -45 18
-7 21 -13 15 -36 -8 -34 -21 -46 -63 -60 -33 -11 -33 -11 -30 16 3 23 0 27
-22 26 -14 -1 -36 -5 -50 -8 -14 -4 -41 -9 -60 -12 -19 -3 -46 -7 -60 -10 -14
-2 -88 -6 -165 -9 -242 -9 -321 -15 -402 -30 -43 -8 -90 -16 -104 -19 -15 -2
-35 -9 -45 -16 -24 -15 -101 13 -200 71 -114 69 -153 122 -179 247 -54 257 92
728 361 1162 60 97 151 220 197 264 36 35 23 47 -43 40 -180 -19 -302 -102
-499 -339 -77 -93 -130 -146 -247 -250 -120 -106 -144 -157 -105 -221 18 -30
19 -33 2 -60 -59 -97 -103 -295 -128 -574 -10 -114 -10 -555 0 -655 20 -198
11 -174 144 -382 45 -71 89 -153 98 -183 17 -58 54 -193 60 -223 8 -36 18 -63
46 -123 l28 -60 -24 -80 c-37 -126 -58 -174 -94 -215 -46 -55 -79 -69 -156
-69 l-65 0 0 38 c-1 145 -210 303 -520 392 -52 15 -117 31 -145 35 -27 4 -68
11 -90 15 l-40 7 30 12 c17 7 58 24 93 37 l64 24 61 -29 c153 -71 394 -175
502 -218 46 -18 52 -24 73 -77 13 -31 26 -91 30 -132 l7 -74 37 30 c40 33 87
122 128 240 35 100 33 241 -5 335 -15 39 -47 99 -71 135 -43 67 -169 200 -234
249 -19 14 -44 34 -55 44 -11 10 -99 73 -196 140 l-177 122 -40 115 c-39 109
-45 119 -119 200 -203 221 -237 245 -338 245 -54 -1 -62 2 -84 28 -31 36 -104
73 -183 92 -47 11 -102 14 -218 10 -308 -9 -340 -13 -401 -45 -84 -43 -241
-144 -348 -224 -52 -39 -103 -77 -113 -85 -11 -8 -50 -60 -88 -115 -60 -89
-127 -166 -144 -166 -3 0 -3 24 -1 53 2 28 6 93 10 142 3 50 8 113 10 140 7
75 6 312 -1 380 -3 33 -7 71 -8 85 -5 50 -19 107 -54 230 -28 98 -36 144 -37
210 l0 85 -49 65 c-173 228 -389 436 -556 537 -59 36 -160 84 -229 109 -78 29
-71 28 -71 7 1 -28 20 -56 94 -134 78 -81 109 -141 279 -534 52 -121 121 -276
152 -344 57 -122 58 -126 57 -210 -1 -126 -37 -278 -84 -362 -21 -39 -90 -88
-221 -158 -73 -39 -79 -40 -105 -27 -32 17 -123 44 -172 51 -19 3 -125 8 -235
10 -250 5 -325 11 -397 30 -66 17 -103 11 -73 -12 27 -19 11 -28 -24 -13 -17
7 -37 10 -46 7 -10 -5 -17 3 -23 26 -10 36 -7 47 14 47 13 0 13 4 0 29 -32 61
-204 189 -215 159 -2 -5 -19 7 -38 27 -47 49 -101 85 -129 85 -23 0 -29 12
-25 47 1 8 -7 12 -21 10 -15 -1 -23 3 -23 15 0 11 -35 40 -90 76 -73 47 -247
184 -301 236 -6 6 -48 45 -94 86 -46 41 -91 82 -100 90 -80 75 -387 275 -451
295 -43 13 -93 42 -172 99 -44 32 -89 56 -103 56 -49 0 -241 108 -529 299 -71
48 -154 95 -184 105 -29 10 -115 47 -190 80 -75 34 -156 68 -181 75 -76 22
-142 53 -270 126 -10 6 -24 15 -31 21 -8 6 -26 11 -41 12 -27 2 -132 33 -173
52 -11 5 -41 18 -67 29 -181 79 -413 191 -498 242 -41 25 -86 50 -100 55 -27
12 -67 9 -85 -6 -8 -7 -59 22 -169 95 -100 66 -170 106 -194 110 -107 18 -293
73 -379 111 -17 8 -34 14 -38 14 -4 0 -21 6 -38 14 -18 8 -86 38 -151 67 -124
55 -346 177 -382 210 -11 10 -34 19 -52 19 -51 0 -335 99 -530 186 -20 9 -50
22 -67 29 -16 7 -59 26 -95 42 -49 22 -75 29 -107 25 -28 -3 -73 6 -140 27
-87 27 -112 30 -213 29 -132 0 -229 21 -405 90 -27 10 -75 20 -105 21 -59 2
-136 9 -160 16 -8 2 -40 7 -70 10 -30 3 -62 8 -70 10 -8 2 -28 7 -45 9 -16 3
-72 15 -123 26 -147 31 -311 42 -399 27 -72 -13 -104 -16 -238 -22 -263 -11
-341 -16 -398 -26 -53 -9 -114 -6 -162 8 -10 3 -136 7 -280 8 -224 1 -267 -1
-310 -16 -27 -9 -68 -20 -90 -23 -22 -4 -47 -8 -55 -11 -8 -2 -44 -6 -80 -9
-219 -19 -245 -21 -495 -30 -82 -4 -177 -9 -211 -12 -40 -3 -76 0 -105 10 -76
25 -181 50 -259 61 -123 18 -155 12 -224 -41 -57 -43 -88 -53 -141 -43 -22 4
-65 10 -95 13 -30 4 -71 9 -90 11 -19 2 -60 7 -90 10 -30 4 -75 11 -99 16 -24
5 -60 7 -80 4 -104 -14 -132 -14 -187 0 -33 9 -70 18 -84 21 -14 3 -41 9 -60
14 -19 5 -53 12 -75 16 -22 3 -42 7 -46 9 -3 2 -39 7 -80 12 -116 12 -257 7
-331 -12 -37 -9 -80 -14 -95 -11 -16 4 -41 8 -58 11 -32 4 -144 23 -185 30
-57 11 -226 25 -232 20z m6502 -1180 c0 -9 -9 -15 -25 -15 -26 0 -34 15 -12
23 23 10 37 7 37 -8z m74 0 c4 -11 -2 -15 -20 -15 -21 0 -23 2 -12 15 17 18
24 19 32 0z m80 0 c4 -11 -2 -15 -27 -15 -30 1 -31 1 -13 15 25 19 32 19 40 0z
m18952 0 c18 -14 17 -14 -13 -15 -25 0 -31 4 -27 15 8 19 15 19 40 0z m85 -2
c12 -15 12 -16 -4 -10 -10 4 -23 7 -28 7 -6 0 -7 5 -4 10 9 15 21 12 36 -7z
m73 11 c18 -7 12 -24 -10 -24 -8 0 -14 7 -14 15 0 17 2 18 24 9z m-19056 -20
c-9 -9 -21 -13 -27 -9 -16 10 -3 25 22 25 20 0 20 -1 5 -16z m18839 -11 c-9
-8 -48 8 -42 18 4 5 14 5 26 -2 12 -6 18 -13 16 -16z m-18787 -4 c0 -6 -4 -7
-10 -4 -5 3 -10 11 -10 16 0 6 5 7 10 4 6 -3 10 -11 10 -16z m110 -5 c12 -12
8 -13 -25 -10 -22 2 -46 5 -53 5 -10 1 -10 4 0 15 15 17 55 11 78 -10z m18554
20 c30 -12 16 -24 -26 -24 -40 1 -42 2 -24 15 22 17 27 18 50 9z m-94 -28 c0
-2 -7 -7 -16 -10 -8 -3 -12 -2 -9 4 6 10 25 14 25 6z m-18330 -22 c0 -8 -5
-12 -10 -9 -6 4 -8 11 -5 16 9 14 15 11 15 -7z m18240 2 c0 -3 -4 -8 -10 -11
-5 -3 -10 -1 -10 4 0 6 5 11 10 11 6 0 10 -2 10 -4z m-18195 -16 c3 -5 1 -10
-4 -10 -6 0 -11 5 -11 10 0 6 2 10 4 10 3 0 8 -4 11 -10z m45 -5 c10 -12 10
-15 -4 -15 -9 0 -16 7 -16 15 0 8 2 15 4 15 2 0 9 -7 16 -15z m18054 -6 c-3
-5 -10 -7 -15 -3 -5 3 -7 10 -3 15 3 5 10 7 15 3 5 -3 7 -10 3 -15z m-18004
-10 c0 -5 -7 -9 -15 -9 -15 0 -20 12 -9 23 8 8 24 -1 24 -14z m45 -17 c-8 -8
-25 10 -19 20 4 6 9 5 15 -3 4 -7 6 -15 4 -17z m17865 22 c0 -9 -32 -33 -44
-34 -5 0 -1 9 9 20 18 20 35 26 35 14z m45 -4 c3 -5 1 -10 -4 -10 -6 0 -11 5
-11 10 0 6 2 10 4 10 3 0 8 -4 11 -10z m-17815 -46 c0 -8 -5 -12 -10 -9 -6 4
-8 11 -5 16 9 14 15 11 15 -7z m17657 -6 c-3 -8 -6 -5 -6 6 -1 11 2 17 5 13 3
-3 4 -12 1 -19z m-17607 -10 c0 -6 -6 -5 -15 2 -8 7 -15 14 -15 16 0 2 7 1 15
-2 8 -4 15 -11 15 -16z m17565 3 c-3 -6 -11 -11 -17 -11 -6 0 -6 6 2 15 14 17
26 13 15 -4z m-17308 -113 c30 -25 10 -26 -27 -2 -22 15 -40 28 -40 30 0 6 53
-16 67 -28z m17113 28 c0 -7 -67 -46 -78 -46 -18 0 -3 26 21 38 22 11 57 16
57 8z m-17012 -94 c6 -20 -27 -13 -38 8 -9 17 -8 19 12 11 12 -4 24 -13 26
-19z m-2658 3 c115 -13 139 -18 144 -31 5 -14 -10 -24 -78 -48 -15 -5 -17 -13
-12 -39 3 -17 15 -44 26 -59 12 -16 18 -28 15 -28 -4 0 -43 22 -88 49 -45 27
-102 59 -126 72 -55 29 -74 74 -38 89 12 5 45 7 72 4 28 -3 66 -7 85 -9z
m19539 12 c-2 -1 -14 -11 -26 -21 -13 -11 -23 -16 -23 -13 0 10 31 37 42 37 6
0 9 -1 7 -3z m2843 -13 c18 -12 4 -35 -50 -86 -32 -30 -83 -70 -114 -90 -63
-42 -251 -141 -348 -182 -145 -63 -132 -59 -121 -39 29 49 75 80 162 108 59
19 145 58 169 78 9 7 29 29 44 49 27 36 27 39 13 62 -9 13 -32 29 -52 36 -19
6 -35 15 -35 18 1 19 20 34 51 39 19 3 52 9 74 13 39 8 192 3 207 -6z m-19587
-92 c-8 -9 -56 29 -49 39 4 6 15 2 30 -12 13 -12 22 -25 19 -27z m16615 31 c0
-10 -57 -43 -63 -36 -9 8 27 41 46 42 9 1 17 -2 17 -6z m-153 -105 c-3 -8 -6
-5 -6 6 -1 11 2 17 5 13 3 -3 4 -12 1 -19z m-16367 2 c0 -5 -2 -10 -4 -10 -3
0 -8 5 -11 10 -3 6 -1 10 4 10 6 0 11 -4 11 -10z m16300 -42 c-8 -7 -20 -20
-27 -28 -11 -13 -12 -12 -6 5 7 21 22 35 38 35 5 0 3 -6 -5 -12z m-16210 -13
c7 -8 9 -15 6 -15 -4 0 -14 7 -22 15 -9 8 -11 15 -6 15 5 0 15 -7 22 -15z
m-2692 -75 c77 -27 134 -66 153 -102 9 -17 -5 -12 -77 27 -49 26 -96 53 -104
60 -8 7 -33 22 -55 34 -47 26 -21 20 83 -19z m18797 0 c-10 -11 -25 -20 -33
-20 -11 0 -8 6 8 20 13 11 28 20 33 20 6 0 2 -9 -8 -20z m-16005 0 c8 -5 11
-12 8 -16 -4 -3 -14 1 -23 10 -18 17 -9 21 15 6z m15907 -69 c-23 -22 -44 -37
-46 -35 -7 7 62 74 76 74 7 0 -7 -18 -30 -39z m-15829 13 c20 -14 49 -54 39
-54 -3 0 -22 16 -43 35 -39 36 -37 48 4 19z m15737 -100 c-14 -14 -29 -23 -32
-20 -7 7 35 46 49 46 5 0 -3 -12 -17 -26z m-15634 -1 c13 -15 12 -15 -8 -4
-24 12 -29 21 -14 21 5 0 15 -7 22 -17z m-2671 -28 c13 -14 20 -26 17 -26 -4
-1 -10 -2 -14 -3 -5 -1 -23 -6 -41 -10 -22 -5 -36 -16 -43 -33 -8 -22 -4 -32
26 -69 42 -51 173 -154 265 -209 73 -43 100 -64 100 -76 0 -8 -36 5 -110 39
-50 23 -198 115 -261 162 -71 54 -164 145 -190 187 -27 43 -15 54 44 41 53
-12 134 -8 155 8 23 18 25 18 52 -11z m21062 9 c25 -13 48 -15 123 -9 121 9
125 -1 37 -90 -69 -69 -242 -205 -261 -205 -6 0 -11 -4 -11 -8 0 -5 -35 -27
-77 -49 -85 -45 -193 -89 -175 -71 6 6 98 79 204 162 128 100 194 159 196 173
3 18 -5 24 -53 38 l-56 16 18 29 c20 35 16 34 55 14z m-18361 -17 c-10 -9 -11
-8 -5 6 3 10 9 15 12 12 3 -3 0 -11 -7 -18z m15506 -39 c-3 -8 -6 -5 -6 6 -1
11 2 17 5 13 3 -3 4 -12 1 -19z m-26 -31 c-13 -13 -26 -3 -16 12 3 6 11 8 17
5 6 -4 6 -10 -1 -17z m-15396 3 c3 -5 1 -10 -4 -10 -6 0 -11 5 -11 10 0 6 2
10 4 10 3 0 8 -4 11 -10z m15351 -36 c-4 -9 -9 -15 -11 -12 -3 3 -3 13 1 22 4
9 9 15 11 12 3 -3 3 -13 -1 -22z m-69 -58 c-23 -24 -43 -41 -45 -36 -4 10 60
77 75 79 6 0 -7 -19 -30 -43z m-15164 -2 c21 -20 35 -39 33 -42 -3 -2 -24 14
-47 37 -23 22 -38 41 -33 41 5 0 26 -16 47 -36z m15097 -60 c0 -3 -7 -12 -15
-20 -13 -14 -15 -13 -15 5 0 12 6 21 15 21 8 0 15 -3 15 -6z m-60 -59 c0 -8
-4 -15 -10 -15 -5 0 -7 7 -4 15 4 8 8 15 10 15 2 0 4 -7 4 -15z m-14896 -22
c10 -25 3 -23 -17 3 -13 18 -14 22 -3 18 8 -3 17 -13 20 -21z m14849 -23 c-19
-33 -64 -77 -132 -130 l-45 -35 20 33 c10 18 42 51 71 73 28 22 59 51 68 65
23 35 40 30 18 -6z m-14747 -65 c16 -14 32 -25 36 -25 11 0 42 -50 35 -56 -3
-3 -31 19 -62 50 -56 57 -63 77 -9 31z m-3068 -11 c15 -4 32 -10 37 -14 9 -7
76 -24 132 -35 12 -2 36 0 53 5 21 6 41 5 58 -2 32 -14 72 -48 72 -61 0 -5
-39 -7 -90 -5 -87 3 -89 3 -76 -17 7 -11 41 -39 77 -62 35 -24 75 -50 88 -60
l24 -16 -24 -9 c-13 -5 -25 -11 -28 -14 -6 -6 26 -30 79 -58 41 -22 104 -75
98 -82 -3 -2 -42 11 -123 40 -135 49 -266 133 -297 189 -9 17 -6 18 39 12 26
-3 60 -9 76 -11 45 -9 32 18 -21 43 -95 44 -198 104 -220 129 -23 27 -21 49 5
40 8 -4 27 -9 41 -12z m20912 6 c12 -9 8 -16 -25 -46 -52 -45 -147 -102 -208
-124 -26 -9 -49 -21 -50 -26 -3 -14 71 -17 106 -5 19 7 34 8 40 2 18 -18 -197
-142 -372 -215 -35 -15 -65 -25 -68 -23 -2 3 34 28 80 56 107 64 117 76 80 89
l-28 9 44 42 c25 23 68 53 97 67 93 46 90 54 -20 54 -94 0 -96 0 -86 21 16 29
71 60 95 52 52 -17 211 12 265 47 19 12 31 12 50 0z m-17686 -143 c10 -10 15
-21 12 -24 -6 -6 -76 61 -76 73 0 7 30 -16 64 -49z m14341 -17 c-63 -59 -75
-67 -75 -53 0 12 123 122 131 117 4 -2 -21 -31 -56 -64z m-13379 19 c58 -35
34 -78 -37 -67 -30 4 -42 46 -21 71 19 21 18 21 58 -4z m12445 2 c4 -3 10 -16
13 -28 6 -18 1 -25 -24 -38 -59 -31 -103 14 -59 61 21 23 51 25 70 5z m-12623
-29 c9 -6 0 -20 -32 -50 -32 -30 -46 -38 -55 -29 -8 8 -2 21 26 49 40 41 42
42 61 30z m12837 -53 c13 -13 16 -22 9 -29 -22 -22 -104 40 -104 78 0 15 59
-16 95 -49z m-13564 14 c13 -16 12 -17 -3 -4 -10 7 -18 15 -18 17 0 8 8 3 21
-13z m14199 -22 c0 -5 -7 -11 -15 -15 -15 -5 -20 5 -8 17 9 10 23 9 23 -2z
m-12824 -31 c58 -25 98 -73 83 -102 -13 -25 -43 -9 -70 37 -18 31 -23 33 -46
24 -21 -8 -29 -6 -44 9 -16 18 -16 21 -1 36 20 20 19 20 78 -4z m11533 -5 c11
-11 5 -18 -40 -41 -30 -15 -68 -37 -85 -50 l-31 -24 -18 20 c-18 20 -18 21 2
41 11 11 42 33 69 49 50 29 76 30 103 5z m-12834 -5 c3 -5 1 -10 -4 -10 -6 0
-11 5 -11 10 0 6 2 10 4 10 3 0 8 -4 11 -10z m111 -83 c1 -10 1 -17 0 -17 -6
0 -46 38 -46 43 0 14 44 -11 46 -26z m1034 18 c10 -12 10 -15 -4 -15 -9 0 -16
7 -16 15 0 8 2 15 4 15 2 0 9 -7 16 -15z m11770 0 c-7 -8 -16 -12 -21 -9 -13
8 -1 24 18 24 13 0 13 -3 3 -15z m1079 -2 c-25 -32 -40 -45 -45 -41 -6 7 36
58 48 58 6 0 5 -7 -3 -17z m-59 -57 c0 -2 -7 -7 -16 -10 -8 -3 -12 -2 -9 4 6
10 25 14 25 6z m-45 -36 c3 -5 1 -10 -4 -10 -6 0 -11 5 -11 10 0 6 2 10 4 10
3 0 8 -4 11 -10z m-12505 -49 c0 -23 -8 -31 -26 -24 -8 3 -14 18 -14 34 0 27
2 29 20 19 11 -6 20 -19 20 -29z m11313 9 c-8 -29 -26 -40 -40 -25 -9 10 -8
17 3 33 17 25 44 19 37 -8z m843 1 c-4 -5 -13 -8 -22 -4 -11 4 -12 8 -3 20 14
16 36 2 25 -16z m-13301 -9 c-6 -7 -34 11 -29 19 3 5 11 3 19 -4 7 -6 12 -13
10 -15z m299 12 c3 -8 2 -12 -4 -9 -6 3 -10 10 -10 16 0 14 7 11 14 -7z
m13287 -17 c-13 -12 -20 -15 -16 -7 14 26 28 41 33 35 3 -3 -5 -16 -17 -28z
m-12690 -54 c15 -32 18 -48 11 -55 -8 -8 -13 -6 -18 8 -4 10 -16 41 -26 68
-24 63 0 47 33 -21z m11829 52 c0 -8 -9 -15 -20 -15 -20 0 -26 11 -13 23 12
13 33 7 33 -8z m625 -5 c6 -10 -2 -21 -39 -50 -18 -14 -18 -13 -11 10 13 44
36 62 50 40z m-13083 -22 c6 -13 13 -28 14 -35 3 -20 -33 8 -45 34 -14 31 13
32 31 1z m-217 -8 c3 -5 1 -10 -4 -10 -6 0 -11 5 -11 10 0 6 2 10 4 10 3 0 8
-4 11 -10z m12652 -17 c5 -14 -42 -69 -49 -57 -8 14 21 76 34 72 7 -3 13 -9
15 -15z m-12616 -10 c13 -16 12 -17 -3 -4 -10 7 -18 15 -18 17 0 8 8 3 21 -13z
m13410 -6 c-10 -9 -11 -8 -5 6 3 10 9 15 12 12 3 -3 0 -11 -7 -18z m-12982
-159 c1 -4 -5 -5 -13 -2 -20 8 -63 93 -71 139 -5 36 -1 31 39 -45 25 -47 45
-88 45 -92z m12602 58 c-18 -41 -36 -66 -45 -66 -13 0 -10 10 13 53 16 28 35
70 42 92 13 37 14 38 17 14 2 -15 -10 -57 -27 -93z m-12933 33 c7 -11 9 -19 5
-19 -10 1 -73 57 -73 65 0 11 57 -27 68 -46z m13291 49 c-2 -2 -24 -21 -47
-43 -28 -26 -41 -33 -36 -20 10 24 54 64 73 65 8 0 12 -1 10 -2z m-13128 -18
c16 0 42 -61 30 -73 -8 -8 -19 -1 -41 23 -33 37 -40 66 -14 56 9 -3 20 -6 25
-6z m12929 0 c8 -5 12 -10 10 -12 -3 -2 -22 -18 -43 -36 -34 -29 -57 -34 -57
-14 0 10 59 72 68 72 4 0 14 -4 22 -10z m-12306 -56 c9 -24 8 -26 -14 -14 -11
6 -18 15 -15 21 9 14 22 11 29 -7z m11659 9 c4 -3 -2 -13 -14 -21 -23 -16 -32
-12 -23 12 6 16 25 21 37 9z m-12278 -88 c113 -62 128 -72 116 -80 -14 -8
-146 56 -181 87 -14 13 -32 32 -40 43 -15 19 -14 19 10 4 14 -9 57 -33 95 -54z
m12985 56 c0 -25 -119 -105 -217 -146 -27 -12 -33 -12 -33 -1 0 8 25 24 55 36
54 22 167 94 173 111 5 12 22 12 22 0z m-12809 -123 c-1 -29 -4 -54 -6 -56 -8
-8 -35 71 -28 82 12 19 28 34 32 30 3 -2 3 -28 2 -56z m12553 -11 c-5 -12 -8
-25 -9 -29 0 -5 -4 -9 -9 -10 -9 -3 -14 14 -17 62 -2 40 0 41 22 19 14 -14 18
-26 13 -42z m-11464 12 c0 -26 -17 -33 -29 -10 -15 27 -4 56 15 40 8 -6 14
-20 14 -30z m10353 -11 c-21 -24 -38 -9 -29 27 7 26 8 27 27 9 18 -16 18 -18
2 -36z m3857 21 c0 -4 -7 -12 -15 -19 -13 -11 -20 -10 -41 1 l-25 13 22 17
c18 13 27 14 41 6 10 -7 18 -15 18 -18z m-17953 4 c2 -6 -5 -16 -16 -22 -15
-8 -23 -7 -35 5 -9 8 -16 20 -16 25 0 14 63 7 67 -8z m3373 2 c7 -9 8 -15 2
-15 -5 0 -12 7 -16 15 -3 8 -4 15 -2 15 2 0 9 -7 16 -15z m11084 6 c3 -5 -1
-14 -9 -21 -13 -10 -15 -9 -15 9 0 21 14 28 24 12z m-10503 -33 c6 -24 4 -28
-24 -34 -25 -5 -34 -2 -48 15 -26 32 -14 53 29 49 29 -2 37 -8 43 -30z m9993
11 c10 -9 -51 -49 -75 -49 -9 0 -22 7 -29 15 -10 13 -10 19 4 34 14 15 26 18
54 14 21 -3 41 -9 46 -14z m-11019 1 c27 -10 55 -62 55 -100 0 -28 -17 -25
-56 10 l-34 29 -42 -45 -43 -45 -23 24 -23 24 42 34 c23 19 54 44 68 56 31 27
24 25 56 13z m615 -11 c0 -5 -4 -9 -10 -9 -5 0 -10 7 -10 16 0 8 5 12 10 9 6
-3 10 -10 10 -16z m10749 -6 c-10 -11 -14 -11 -20 -1 -10 17 -2 28 17 21 11
-4 12 -8 3 -20z m695 -25 c42 -28 75 -56 73 -62 -2 -6 -14 -16 -28 -23 -22
-11 -28 -9 -65 28 l-41 41 -37 -38 c-30 -31 -37 -34 -42 -20 -16 43 21 126 56
126 5 0 42 -23 84 -52z m-14848 17 c7 -29 1 -41 -15 -30 -14 8 -14 55 -1 55 5
0 12 -11 16 -25z m17634 6 c0 -10 -7 -24 -15 -31 -13 -11 -15 -8 -15 19 0 21
5 31 15 31 8 0 15 -8 15 -19z m-14638 -18 c24 -29 -38 -46 -66 -17 -16 16 -20
27 -11 36 9 9 64 -4 77 -19z m11626 19 c10 -7 8 -12 -5 -24 -36 -31 -56 -37
-71 -21 -29 29 37 69 76 45z m-11189 -49 c-15 -17 -32 -2 -23 21 5 13 9 14 20
5 11 -9 12 -15 3 -26z m10690 23 c8 -10 8 -16 -2 -25 -16 -13 -27 -5 -27 21 0
21 13 23 29 4z m-10419 -7 c28 -6 69 -21 91 -33 l40 -23 -19 -23 c-19 -23 -21
-23 -88 -11 -38 7 -79 21 -92 31 -19 16 -21 22 -11 44 14 30 12 29 79 15z
m10190 -4 c19 -23 4 -44 -47 -67 -80 -35 -194 -23 -153 16 16 15 145 65 171
65 9 1 22 -6 29 -14z m-10610 -30 c0 -21 -15 -26 -35 -11 -26 19 -13 51 15 36
11 -6 20 -17 20 -25z m11019 21 c10 -12 7 -18 -18 -31 -30 -15 -31 -15 -31 8
0 38 26 50 49 23z m-10705 -26 c13 -13 4 -20 -29 -26 -28 -5 -45 8 -45 34 0
14 58 8 74 -8z m10404 -2 c-15 -23 -62 -35 -72 -19 -10 16 24 41 56 41 29 0
30 -1 16 -22z m-10041 -32 c27 -23 31 -56 6 -56 -24 0 -75 64 -67 85 7 17 7
16 61 -29z m9657 38 c13 -5 11 -13 -15 -50 -19 -27 -38 -44 -50 -44 -16 0 -19
4 -13 23 6 22 30 55 49 69 12 9 10 9 29 2z m-16293 -89 c16 -27 29 -53 29 -57
0 -9 -101 32 -122 50 -24 20 -23 24 8 56 32 32 42 26 85 -49z m23117 19 c-3
-13 -110 -82 -130 -84 -4 0 0 16 8 35 7 19 20 51 28 69 l15 35 41 -20 c26 -13
40 -26 38 -35z m-6308 15 c0 -5 -7 -9 -15 -9 -15 0 -20 12 -9 23 8 8 24 -1 24
-14z m-10715 1 c3 -5 1 -10 -4 -10 -6 0 -11 5 -11 10 0 6 2 10 4 10 3 0 8 -4
11 -10z m-3295 -51 c0 -26 -15 -24 -39 7 -29 37 -26 45 9 28 18 -9 30 -23 30
-35z m17413 34 c-8 -23 -34 -53 -45 -53 -22 0 -20 34 3 51 31 24 50 24 42 2z
m-14869 -35 c-11 -17 -24 -6 -24 19 0 26 1 26 14 8 8 -11 12 -23 10 -27z
m1498 -6 c8 -8 8 -16 -1 -26 -11 -13 -21 -11 -82 20 -39 19 -67 39 -64 44 6
10 131 -22 147 -38z m9327 39 c10 -7 -5 -19 -58 -45 -63 -32 -74 -35 -86 -22
-13 13 -8 18 38 45 54 32 82 37 106 22z m1421 -5 c0 -16 -14 -36 -26 -36 -16
0 -16 2 -8 24 5 14 34 24 34 12z m-10946 -111 c3 -8 -2 -19 -10 -25 -21 -19
-79 22 -59 42 9 9 64 -4 69 -17z m374 -66 c-18 -11 -68 38 -68 67 0 21 4 19
41 -18 30 -30 37 -43 27 -49z m9282 70 c-16 -29 -51 -41 -70 -22 -13 13 -13
16 4 29 11 8 33 14 48 14 26 0 28 -2 18 -21z m-367 -5 c-3 -18 -79 -73 -91
-65 -18 11 47 79 73 76 11 -1 19 -6 18 -11z m-10333 -30 c0 -19 -16 -18 -24 2
-11 27 -7 37 9 24 8 -7 15 -19 15 -26z m1186 10 c12 -18 14 -28 6 -36 -8 -8
-18 -3 -35 18 -14 16 -23 32 -20 36 9 16 33 7 49 -18z m9353 7 c-1 -13 -59
-52 -69 -46 -18 11 27 64 50 58 11 -3 20 -8 19 -12z m1324 12 c8 -7 -11 -33
-24 -33 -5 0 -9 9 -9 20 0 19 20 27 33 13z m-12000 -17 c4 -10 1 -13 -9 -9
-15 6 -19 23 -5 23 5 0 11 -7 14 -14z m935 2 c18 -18 14 -28 -11 -28 -30 0
-40 10 -26 27 14 16 22 16 37 1z m10113 1 c24 -12 16 -29 -15 -29 -29 0 -39
10 -25 27 14 16 15 16 40 2z m815 0 c10 -17 -13 -36 -27 -22 -12 12 -4 33 11
33 5 0 12 -5 16 -11z m-10170 -54 c33 -31 69 -104 57 -116 -14 -14 -67 42 -99
103 -40 79 -31 82 42 13z m8603 13 c-9 -34 -50 -96 -80 -124 -21 -19 -24 -18
-33 13 -5 16 5 33 46 78 29 32 55 61 56 66 2 5 7 7 12 4 5 -3 4 -19 -1 -37z
m-15714 -25 c-2 -26 2 -55 8 -65 6 -9 9 -19 7 -22 -11 -10 -111 21 -130 40
l-21 20 33 37 c26 28 41 36 69 36 l36 1 -2 -47z m16885 27 c-6 -11 -17 -20
-25 -20 -13 0 -13 3 -3 20 7 11 19 20 26 20 10 0 10 -5 2 -20z m6134 -19 l39
-39 -61 -31 c-82 -41 -92 -40 -87 7 1 20 3 52 4 70 1 29 4 32 34 32 25 0 42
-9 71 -39z m-17073 13 c11 -14 10 -15 -11 -12 -13 1 -25 9 -28 16 -5 17 23 15
39 -4z m893 -46 c-4 -6 -10 -5 -15 3 -14 22 -10 33 6 19 8 -7 12 -17 9 -22z
m9130 23 c6 -10 -22 -37 -29 -29 -8 7 5 38 15 38 5 0 11 -4 14 -9z m-7859 -7
c15 -6 15 -8 -1 -25 -13 -14 -21 -16 -35 -8 -42 22 -11 51 36 33z m6583 -6 c8
-8 9 -15 1 -25 -15 -18 -44 -16 -60 3 -10 13 -10 17 2 25 20 12 43 11 57 -3z
m1022 -67 c0 -5 -7 -14 -15 -21 -16 -14 -18 -10 -9 14 6 17 24 22 24 7z m4122
-74 c-26 -33 -65 -74 -87 -93 l-40 -33 -6 23 c-15 54 -18 116 -6 117 81 6 105
12 137 38 54 44 55 16 2 -52z m-16729 23 l57 -13 0 -59 c0 -52 -2 -58 -21 -58
-11 0 -33 7 -48 16 -28 16 -100 108 -113 144 -7 20 -7 20 30 1 20 -10 63 -24
95 -31z m3987 29 c0 -5 -7 -9 -15 -9 -8 0 -15 7 -15 15 0 9 6 12 15 9 8 -4 15
-10 15 -15z m4428 -25 c-4 -3 -12 5 -18 18 -12 22 -12 22 6 6 10 -10 15 -20
12 -24z m-4594 1 c3 -8 1 -15 -4 -15 -6 0 -10 7 -10 15 0 8 2 15 4 15 2 0 6
-7 10 -15z m8936 0 c0 -8 -4 -15 -9 -15 -13 0 -22 16 -14 24 11 11 23 6 23 -9z
m-8653 -117 c-17 -11 -39 15 -31 36 6 17 9 16 25 -5 13 -17 14 -26 6 -31z
m1283 -22 c0 -16 -2 -17 -16 -5 -20 17 -36 57 -28 71 8 13 44 -41 44 -66z
m5795 42 c-7 -33 -30 -66 -40 -57 -7 8 27 89 37 89 6 0 7 -14 3 -32z m1305 3
c0 -3 -11 -11 -25 -18 -27 -12 -32 -3 -13 27 9 14 16 16 25 8 7 -6 13 -13 13
-17z m-8605 -2 c11 -17 -1 -21 -15 -4 -8 9 -8 15 -2 15 6 0 14 -5 17 -11z
m160 -40 c-6 -9 -11 -7 -22 6 -7 11 -13 26 -13 34 0 12 5 11 21 -6 13 -13 18
-26 14 -34z m4543 39 c-2 -6 -10 -14 -16 -16 -7 -2 -10 2 -6 12 7 18 28 22 22
4z m3965 -8 c-6 -23 -29 -44 -36 -33 -3 4 -1 18 4 31 11 28 39 30 32 2z m157
11 c0 -5 -7 -11 -15 -15 -15 -5 -20 5 -8 17 9 10 23 9 23 -2z m-7866 -32 c-8
-13 -24 -1 -24 18 0 13 3 13 15 3 8 -7 12 -16 9 -21z m6876 10 c-7 -11 -14
-19 -16 -16 -7 7 7 37 17 37 6 0 5 -9 -1 -21z m-14698 -62 c2 -26 14 -39 66
-75 35 -24 62 -46 60 -48 -2 -1 -51 14 -108 36 -88 32 -106 42 -108 61 -3 16
6 31 29 50 39 32 56 25 61 -24z m11594 16 c-3 -21 -5 -43 -5 -50 -1 -7 -8 -10
-16 -7 -17 7 -20 46 -5 75 17 31 31 22 26 -18z m11150 -14 l15 -30 -58 -25
c-32 -14 -82 -37 -111 -51 -29 -14 -55 -24 -57 -21 -3 2 22 34 55 71 33 37 64
76 70 87 9 16 14 17 40 8 17 -5 37 -23 46 -39z m-16549 17 c4 -3 -3 -6 -14 -6
-20 0 -37 -14 -83 -69 -33 -40 -67 -143 -69 -214 -1 -18 -47 17 -169 129 l-45
41 45 27 c25 14 78 38 119 52 40 14 85 32 99 39 24 14 104 14 117 1z m10307
-12 c88 -18 141 -42 189 -86 l39 -35 -109 -85 -108 -86 -11 62 c-6 33 -19 81
-31 106 -23 52 -85 118 -119 126 -13 3 -21 10 -18 16 6 10 58 4 168 -18z
m-13270 -36 c15 -18 44 -51 65 -73 20 -22 56 -64 79 -92 l43 -53 67 7 c130 13
138 9 199 -85 52 -81 42 -77 -72 30 l-31 28 -83 -30 c-83 -29 -84 -29 -110
-11 -75 55 -174 199 -195 284 -8 36 3 34 38 -5z m3646 -20 c0 -26 -2 -29 -15
-18 -8 7 -15 26 -15 42 0 26 2 29 15 18 8 -7 15 -26 15 -42z m1197 11 c20 -35
20 -36 2 -32 -21 6 -37 30 -33 51 4 31 2 32 31 -19z m6362 -10 c-21 -29 -42
-40 -34 -16 24 67 25 69 40 57 13 -11 12 -16 -6 -41z m1239 2 c-2 -15 -10 -27
-21 -29 -15 -3 -17 2 -13 25 2 15 5 34 5 42 1 11 4 11 17 1 8 -8 14 -25 12
-39z m3727 17 c-9 -51 -63 -132 -146 -219 l-75 -80 -82 30 -83 31 -27 -24
c-15 -13 -45 -40 -67 -60 -22 -19 -44 -36 -48 -36 -15 0 27 62 76 113 52 54
50 54 173 32 25 -5 40 1 77 29 66 50 148 141 176 194 17 33 32 27 26 -10z
m-7666 -22 c14 -17 0 -29 -23 -20 -17 7 -20 16 -9 27 10 11 19 8 32 -7z
m-4409 -137 c0 -26 -7 -24 -67 17 -40 27 -53 43 -53 61 0 24 1 23 60 -18 37
-26 60 -49 60 -60z m8172 7 c-11 -12 -34 -38 -52 -59 -28 -31 -35 -35 -42 -23
-8 15 22 79 70 155 l16 23 13 -38 c12 -34 11 -40 -5 -58z m-8424 2 c39 -63 52
-99 35 -97 -5 0 -30 25 -56 55 -38 43 -47 61 -43 82 2 15 5 31 5 37 1 13 12 0
59 -77z m8230 73 c10 -6 -2 -20 -45 -54 -42 -32 -64 -43 -74 -37 -11 7 -3 19
35 55 50 46 61 51 84 36z m-634 -16 c-4 -8 -12 -15 -20 -15 -17 0 -18 17 -1
23 22 9 27 7 21 -8z m-6821 -9 c4 -10 1 -13 -9 -9 -15 6 -19 23 -5 23 5 0 11
-7 14 -14z m-953 -72 c0 -5 -6 -19 -14 -29 -13 -18 -14 -17 -28 11 -7 16 -12
43 -10 59 l4 30 24 -30 c13 -16 24 -35 24 -41z m4829 16 c15 -22 14 -22 -9
-15 -55 17 -69 25 -79 43 -10 19 -9 19 31 7 23 -6 49 -22 57 -35z m3955 15 c8
-39 4 -50 -23 -64 -33 -18 -42 1 -25 52 19 56 39 61 48 12z m-7596 -61 c-10
-10 -28 6 -28 24 0 15 1 15 17 -1 9 -9 14 -19 11 -23z m6350 14 c-2 -12 -9
-23 -16 -26 -10 -3 -11 16 -3 46 1 1 6 2 12 2 6 0 9 -10 7 -22z m-2568 2 c13
-8 13 -10 -2 -10 -9 0 -20 5 -23 10 -8 13 5 13 25 0z m-3707 -76 c-9 -23 -28
-10 -31 22 -4 28 -3 28 16 10 12 -10 18 -24 15 -32z m6211 31 c5 -14 -18 -45
-34 -45 -9 0 -6 33 5 50 9 14 22 12 29 -5z m-6969 -16 c4 -11 4 -24 0 -27 -9
-9 -36 28 -29 39 9 15 22 10 29 -12z m533 -17 c8 -7 11 -19 8 -28 -5 -13 -10
-12 -36 6 -29 21 -37 39 -23 53 6 7 22 -3 51 -31z m7208 27 c7 -13 -9 -32 -31
-35 -15 -2 -21 27 -8 39 10 11 31 8 39 -4z m-528 -8 c10 -6 6 -15 -19 -34 -29
-22 -35 -24 -42 -11 -6 11 -2 21 14 35 25 21 28 22 47 10z m-14318 -11 c0 -5
-9 -14 -20 -20 -36 -19 -25 -49 27 -71 72 -31 152 -47 328 -69 88 -10 185 -24
215 -30 77 -14 180 -50 180 -61 0 -17 -54 -31 -125 -32 -71 -2 -178 7 -205 17
-8 3 -26 7 -40 10 -48 8 -156 38 -257 72 -107 35 -293 120 -293 134 0 11 129
57 163 59 15 0 27 -3 27 -9z m22135 -5 c149 -21 147 -51 -10 -126 -75 -35
-250 -90 -326 -103 -19 -3 -59 -10 -89 -16 -136 -26 -380 -34 -402 -12 -6 6
-9 14 -6 17 5 5 151 35 468 95 239 45 297 57 308 64 19 12 20 45 1 65 -24 25
-24 34 -1 27 9 -3 35 -8 57 -11z m-14831 -109 c16 -36 17 -49 8 -58 -18 -18
-99 71 -100 109 0 15 2 32 5 36 10 17 69 -42 87 -87z m7406 58 c0 -9 -24 -40
-54 -70 -45 -45 -56 -52 -66 -39 -9 11 -3 26 35 79 40 57 49 64 66 56 10 -6
19 -18 19 -26z m-7510 -60 c0 -8 -4 -14 -10 -14 -5 0 -10 2 -10 4 0 2 -3 12
-6 20 -5 12 -2 15 10 10 9 -3 16 -12 16 -20z m7539 -7 c-10 -18 -12 -19 -21
-4 -11 21 -2 38 17 31 12 -5 12 -10 4 -27z m305 8 c-4 -8 -10 -15 -15 -15 -4
0 -6 7 -3 15 4 8 10 15 15 15 4 0 6 -7 3 -15z m-8150 -11 c3 -8 2 -12 -4 -9
-6 3 -10 10 -10 16 0 14 7 11 14 -7z m826 -30 c0 -8 -6 -11 -15 -8 -8 4 -15
15 -15 26 0 17 3 18 15 8 8 -7 15 -19 15 -26z m6477 -1 c-29 -15 -34 -8 -12
17 14 15 20 17 26 8 5 -8 0 -17 -14 -25z m-6717 -49 c0 -30 -34 -33 -50 -5 -7
15 -6 23 6 36 20 20 44 3 44 -31z m7003 26 c13 -12 -11 -50 -32 -50 -22 0 -34
25 -25 52 4 14 11 17 27 12 12 -3 26 -10 30 -14z m-7659 -93 c-7 -22 -62 -77
-77 -77 -12 0 -25 43 -20 70 2 14 14 40 26 58 l22 32 28 -30 c21 -23 26 -37
21 -53z m8367 0 c19 -70 -2 -84 -64 -42 -43 30 -47 53 -16 97 l21 29 24 -22
c13 -13 29 -40 35 -62z m-7888 31 c5 -19 5 -19 -14 -2 -22 20 -25 36 -5 28 8
-3 16 -14 19 -26z m7327 13 c-13 -26 -27 -34 -35 -20 -4 5 1 17 11 24 27 20
36 18 24 -4z m-7187 -81 c3 -14 0 -17 -12 -13 -17 6 -41 32 -41 45 0 15 48
-15 53 -32z m7062 10 c-9 -18 -23 -30 -35 -30 -26 0 -17 21 18 43 35 22 35 22
17 -13z m-7819 -4 c15 -12 17 -19 8 -32 -14 -24 -27 -27 -46 -12 -12 10 -14
19 -7 36 10 26 18 27 45 8z m1168 -13 c4 -9 5 -18 2 -20 -5 -5 -36 26 -36 37
0 14 28 0 34 -17z m6221 17 c4 -6 1 -18 -6 -26 -11 -14 -13 -14 -21 0 -15 26
12 51 27 26z m1209 -9 c17 -19 17 -20 -3 -30 -29 -16 -48 -13 -54 8 -10 39 29
53 57 22z m-8380 -38 c-13 -14 -16 -14 -28 3 -22 29 -9 46 20 28 21 -14 22
-18 8 -31z m8145 29 c7 -13 5 -21 -7 -28 -23 -14 -42 -7 -42 16 0 16 12 27 32
29 4 1 12 -7 17 -17z m-7629 -32 l21 -30 -22 9 c-13 4 -29 18 -37 29 -24 36
12 28 38 -8z m4806 -46 c41 -42 74 -81 74 -86 0 -6 8 -22 19 -36 10 -15 22
-38 26 -52 5 -17 -4 -10 -31 25 -21 28 -40 52 -43 55 -5 4 -49 56 -130 153
-11 13 -11 17 -1 17 7 0 46 -34 86 -76z m2309 67 c5 -9 -45 -51 -60 -51 -3 0
3 14 15 30 22 31 35 37 45 21z m-6411 -103 c-10 -15 -21 -8 -40 30 -12 20 -19
46 -16 56 3 15 10 8 32 -30 16 -26 26 -52 24 -56z m3821 92 c3 -6 -1 -7 -9 -4
-18 7 -21 14 -7 14 6 0 13 -4 16 -10z m2359 1 c3 -5 -1 -14 -9 -21 -13 -10
-15 -9 -15 9 0 21 14 28 24 12z m-6674 -22 c0 -6 -4 -7 -10 -4 -5 3 -10 11
-10 16 0 6 5 7 10 4 6 -3 10 -11 10 -16z m6196 -10 c2 -17 -6 -31 -26 -46
l-28 -23 16 50 c17 53 34 61 38 19z m-13320 -65 c59 -39 106 -60 166 -73 110
-25 327 -31 578 -17 300 17 303 17 312 4 13 -22 10 -25 -49 -44 -46 -14 -92
-18 -213 -18 -138 -1 -313 8 -366 18 -10 2 -62 9 -114 16 -52 7 -104 14 -115
16 -11 2 -47 9 -80 15 -107 19 -240 51 -253 62 -10 8 -7 16 15 39 31 33 44 31
119 -18z m21125 34 c50 -17 62 -32 41 -51 -35 -32 -173 -76 -285 -92 -27 -3
-58 -8 -68 -10 -11 -2 -52 -7 -92 -10 -40 -4 -92 -8 -117 -10 -58 -6 -446 -6
-485 0 -16 2 -55 7 -85 10 -60 8 -94 21 -85 34 2 5 33 12 67 15 61 7 113 9
518 21 107 3 218 8 245 10 88 7 169 16 200 22 17 3 36 6 43 6 8 0 25 15 39 34
14 18 26 33 28 33 1 0 17 -5 36 -12z m-14121 -33 c0 -15 -21 -12 -30 5 -11 20
-10 21 9 10 12 -6 21 -13 21 -15z m160 -2 c13 -17 17 -29 10 -31 -13 -5 -37
14 -51 40 -16 29 16 22 41 -9z m104 6 c-8 -14 -24 -10 -24 6 0 9 6 12 15 9 8
-4 12 -10 9 -15z m6370 6 c-4 -8 -8 -15 -10 -15 -2 0 -4 7 -4 15 0 8 4 15 10
15 5 0 7 -7 4 -15z m119 -17 c-22 -25 -53 -42 -61 -34 -8 9 59 66 70 60 5 -3
1 -15 -9 -26z m153 5 c-10 -10 -19 5 -10 18 6 11 8 11 12 0 2 -7 1 -15 -2 -18z
m-7701 -44 c-12 -85 -21 -104 -43 -90 -11 6 -10 21 3 79 14 61 19 70 30 58 9
-9 13 -27 10 -47z m8541 -20 c5 -43 3 -58 -10 -68 -9 -7 -17 -11 -17 -7 -1 3
-2 9 -3 14 -5 20 -20 89 -22 102 -2 8 2 20 8 28 19 22 37 -7 44 -69z m-1276
41 c-6 -11 -13 -20 -15 -20 -3 0 -5 9 -5 20 0 11 7 20 15 20 13 0 14 -4 5 -20z
m-6344 -51 c3 -6 2 -15 -4 -21 -6 -6 -18 2 -36 25 -14 18 -26 37 -26 41 0 9
57 -30 66 -45z m6708 42 c4 -5 -9 -19 -28 -31 -19 -11 -36 -26 -38 -32 -3 -8
-6 -9 -11 -1 -4 6 7 25 23 42 31 32 45 38 54 22z m-7062 -76 c18 -19 36 -44
40 -55 6 -17 4 -18 -19 -9 -41 15 -132 14 -188 -3 -145 -45 -288 -168 -324
-280 -7 -21 -17 -38 -22 -38 -5 0 -20 22 -33 49 l-25 48 37 54 c20 30 39 56
42 59 3 3 16 22 30 42 42 63 154 114 292 133 18 3 53 11 78 19 25 8 48 15 52
15 3 1 21 -15 40 -34z m7506 -1 c53 -14 108 -28 122 -31 84 -15 153 -69 241
-184 l59 -78 -27 -40 c-31 -47 -38 -50 -54 -18 -18 34 -88 116 -144 170 -117
112 -270 159 -378 118 l-27 -11 16 33 c21 40 65 79 82 72 7 -2 57 -16 110 -31z
m-8018 -24 c0 -5 -6 -10 -14 -13 -16 -6 -26 12 -26 45 0 21 1 20 20 -2 11 -13
20 -26 20 -30z m30 46 c0 -11 -19 -15 -25 -6 -3 5 1 10 9 10 9 0 16 -2 16 -4z
m931 -37 c8 -16 8 -24 0 -32 -16 -16 -64 33 -55 56 8 21 38 7 55 -24z m6493
25 c8 -21 8 -24 -4 -24 -5 0 -20 -10 -32 -22 -21 -21 -23 -21 -26 -4 -4 17 33
66 49 66 4 0 10 -7 13 -16z m967 -1 c10 -10 9 -17 -6 -33 -21 -23 -30 -19 -50
19 -14 28 -14 29 15 27 16 -1 35 -7 41 -13z m-631 -53 c-11 -16 -34 -39 -50
-50 l-30 -21 0 28 c0 36 15 56 60 81 43 24 52 7 20 -38z m-7168 -1 c59 -63 65
-84 15 -57 -22 11 -36 27 -70 80 -31 47 1 33 55 -23z m817 -25 c-15 -18 -36 3
-43 41 l-5 28 29 -28 c22 -21 27 -32 19 -41z m5514 31 c-3 -31 -22 -50 -37
-35 -12 12 13 72 28 67 6 -2 10 -17 9 -32z m-6051 8 c17 -15 25 -53 11 -53
-14 0 -43 34 -43 52 0 22 8 23 32 1z m269 -24 c22 -28 29 -43 21 -51 -7 -7
-18 5 -36 41 -15 28 -24 51 -22 51 2 0 19 -18 37 -41z m6046 6 c-13 -43 -37
-67 -56 -55 -11 6 -8 16 18 49 40 50 53 52 38 6z m277 1 c-3 -7 -16 -18 -30
-24 -20 -10 -24 -9 -24 5 0 27 31 55 46 42 7 -6 11 -16 8 -23z m-7724 -33 c0
-11 -22 -43 -30 -43 -5 0 -15 7 -23 15 -12 12 -13 20 -4 39 11 22 13 23 34 9
13 -9 23 -17 23 -20z m7890 2 c-27 -29 -37 -27 -20 4 6 12 18 21 27 21 13 0
12 -5 -7 -25z m1008 7 c21 -18 21 -19 2 -35 -17 -14 -21 -14 -34 -2 -14 14
-11 55 4 55 4 0 16 -8 28 -18z m-7934 -19 c10 -25 3 -23 -17 3 -13 18 -14 22
-3 18 8 -3 17 -13 20 -21z m6681 -41 c-14 -15 -25 -30 -25 -34 0 -4 -13 -14
-30 -23 -35 -18 -36 -15 -12 22 29 48 66 80 79 70 9 -6 6 -16 -12 -35z m1134
5 c-5 -17 -9 -33 -9 -35 0 -1 -6 3 -14 10 -12 11 -12 17 2 40 20 35 33 27 21
-15z m-10025 -25 c-33 -95 -63 -157 -78 -160 -10 -2 -25 17 -46 57 l-30 61 39
0 c32 0 43 6 63 33 13 17 28 40 31 51 6 14 10 16 21 7 11 -10 11 -18 0 -49z
m1336 10 c0 -33 -16 -18 -26 23 -7 27 -6 29 9 16 10 -7 17 -25 17 -39z m1134
1 c33 -30 48 -63 27 -63 -24 0 -91 77 -91 105 0 9 23 -6 64 -42z m8940 -25
c15 -24 25 -28 62 -28 24 0 44 -5 44 -10 0 -17 -37 -85 -53 -98 -19 -16 -45
14 -85 96 -25 53 -29 68 -20 88 l11 24 12 -23 c6 -12 19 -34 29 -49z m-1344
43 c0 -6 -4 -13 -10 -16 -5 -3 -10 1 -10 9 0 9 5 16 10 16 6 0 10 -4 10 -9z
m-8761 -31 c5 -16 8 -30 6 -30 -3 0 -11 14 -20 30 -9 17 -11 30 -6 30 5 0 14
-13 20 -30z m1398 22 c15 -9 28 -62 16 -62 -8 0 -19 16 -41 63 -4 9 9 9 25 -1z
m3813 4 c0 -3 -4 -8 -10 -11 -5 -3 -10 -1 -10 4 0 6 5 11 10 11 6 0 10 -2 10
-4z m2105 -27 c-5 -24 -23 -49 -36 -49 -5 0 -6 6 -4 13 20 56 26 67 34 62 6
-3 8 -15 6 -26z m505 20 c0 -9 -47 -29 -53 -22 -13 12 7 32 29 31 13 -1 24 -5
24 -9z m-7840 -62 c0 -16 -15 -26 -49 -31 -13 -3 -9 50 5 65 16 18 18 18 30 1
7 -9 14 -25 14 -35z m5336 39 c17 -13 14 -14 -26 -5 -55 12 -63 19 -24 19 17
0 39 -6 50 -14z m3410 -22 c-4 -9 -9 -15 -11 -12 -3 3 -3 13 1 22 4 9 9 15 11
12 3 -3 3 -13 -1 -22z m76 0 c10 -22 10 -28 -6 -39 -27 -20 -46 -7 -46 31 0
27 4 34 20 34 12 0 25 -10 32 -26z m-8287 -14 c3 -5 15 -10 25 -10 10 0 22 -4
25 -10 4 -6 -10 -9 -34 -8 -22 1 -47 -4 -55 -11 -21 -17 -27 8 -7 30 18 20 37
24 46 9z m4885 -5 c17 -9 30 -18 30 -20 0 -5 -70 22 -79 30 -10 11 22 4 49
-10z m2678 -7 c-8 -12 -20 -24 -27 -26 -9 -3 -7 5 4 22 10 14 22 26 27 26 6 0
4 -10 -4 -22z m153 5 c16 -10 29 -20 29 -24 0 -9 -103 2 -114 12 -6 5 1 12 15
18 33 14 37 13 70 -6z m-7572 -7 c9 -11 9 -16 0 -21 -10 -7 -28 10 -29 28 0
12 17 8 29 -7z m6801 1 c0 -23 -34 -47 -50 -37 -12 7 -11 12 4 29 22 24 46 28
46 8z m-6170 -12 c7 -9 10 -19 6 -22 -8 -9 -38 9 -44 25 -5 17 23 15 38 -3z
m6388 -16 c-6 -16 -12 -29 -13 -27 -6 6 8 58 16 58 4 0 3 -14 -3 -31z m272 -4
c0 -8 -4 -15 -9 -15 -13 0 -22 16 -14 24 11 11 23 6 23 -9z m-12987 -62 c68
-9 187 -9 312 0 187 14 315 19 315 13 0 -12 -78 -44 -145 -59 -131 -30 -337
-38 -555 -23 -122 8 -176 20 -184 42 -3 8 3 32 14 53 l19 39 86 -29 c47 -16
109 -32 138 -36z m4971 -8 c-1 -28 -8 -53 -18 -63 -14 -15 -17 -14 -36 6 -20
21 -20 24 -4 78 15 53 16 55 37 41 18 -12 22 -24 21 -62z m841 65 c3 -5 1 -10
-4 -10 -6 0 -11 5 -11 10 0 6 2 10 4 10 3 0 8 -4 11 -10z m8059 -13 c9 -12 18
-39 21 -59 5 -30 2 -39 -17 -52 -21 -15 -23 -15 -34 7 -17 32 -20 79 -6 105
16 27 18 27 36 -1z m5283 -12 c1 0 4 -12 8 -28 7 -25 4 -29 -46 -52 -30 -13
-81 -28 -114 -34 -58 -10 -275 -7 -325 3 -13 3 -42 8 -65 11 -22 3 -87 15
-145 26 -102 20 -129 25 -178 32 -12 2 -28 9 -35 16 -12 12 62 11 188 -3 117
-14 158 -17 310 -21 181 -5 266 10 326 57 32 24 35 25 54 10 11 -9 21 -17 22
-17z m-13597 10 c0 -8 -4 -15 -9 -15 -13 0 -22 16 -14 24 11 11 23 6 23 -9z
m7690 0 c11 -13 10 -14 -4 -9 -9 3 -16 10 -16 15 0 13 6 11 20 -6z m1775 -81
c-21 -56 -83 -119 -125 -128 -27 -5 -36 -2 -49 16 -20 28 -61 111 -57 115 2 2
24 -6 50 -17 25 -12 54 -18 64 -15 9 3 42 32 72 64 52 56 55 57 58 33 2 -14
-4 -44 -13 -68z m-11181 31 c48 -49 58 -55 94 -55 23 0 44 5 47 10 3 6 15 10
26 10 19 0 19 -1 0 -50 -11 -27 -16 -50 -13 -51 4 0 -15 -7 -43 -16 l-50 -15
-32 39 c-43 50 -108 183 -89 183 3 0 30 -25 60 -55z m1871 30 c11 -2 31 -4 43
-4 40 -2 20 -21 -68 -67 -47 -25 -95 -55 -106 -67 -12 -12 -43 -76 -69 -142
-48 -124 -75 -169 -75 -128 0 13 -8 23 -22 26 -18 5 -19 8 -8 22 9 11 16 13
24 5 20 -20 23 -9 10 31 -20 57 -22 97 -8 154 l13 50 -20 -24 c-12 -15 -23
-21 -29 -15 -6 6 5 29 30 63 22 29 40 59 40 67 0 18 14 18 30 0 10 -13 18 -11
52 15 42 30 70 32 163 14z m7470 -1 c17 -3 44 -11 62 -17 23 -8 35 -8 45 1 11
9 18 7 31 -8 9 -11 17 -23 17 -26 0 -3 16 -26 36 -50 31 -37 34 -44 17 -44
-10 0 -25 6 -32 13 -11 10 -12 8 -7 -8 16 -56 15 -127 -2 -180 l-19 -55 22 14
c13 8 27 11 35 6 9 -6 4 -13 -19 -25 -28 -14 -31 -18 -19 -32 12 -15 11 -15
-9 -4 -46 24 -87 110 -117 242 -6 29 -141 126 -188 136 -15 3 -29 12 -32 20
-5 12 -1 14 18 9 15 -4 28 0 36 9 13 15 37 15 125 -1z m-7036 -104 c23 -79 33
-225 17 -266 -11 -27 -16 -12 -36 107 -20 123 -37 212 -46 244 -10 38 52 -44
65 -85z m6526 8 c-14 -79 -23 -138 -32 -208 -8 -67 -19 -82 -33 -45 -18 45
-14 133 8 195 53 147 76 171 57 58z m-6830 36 c-23 -17 -32 -10 -15 11 7 8 17
12 23 8 6 -4 3 -11 -8 -19z m7115 1 c14 -16 10 -18 -14 -9 -9 3 -16 10 -16 15
0 14 16 11 30 -6z m700 -2 c-1 -16 -39 -155 -44 -161 -3 -3 -6 1 -7 9 -1 8 -3
32 -4 54 -2 23 2 46 9 55 7 8 16 23 19 33 6 17 27 24 27 10z m-8466 -98 c-12
-59 -20 -54 -35 21 l-16 77 29 -34 c22 -27 26 -40 22 -64z m1127 78 c13 -16
12 -17 -3 -4 -10 7 -18 15 -18 17 0 8 8 3 21 -13z m6152 10 c3 -5 -1 -14 -9
-20 -14 -14 -30 0 -19 17 7 12 22 13 28 3z m446 -40 c10 -21 35 -82 55 -137
21 -54 48 -116 62 -138 27 -42 88 -77 135 -78 14 0 35 -11 47 -25 l22 -25 -40
-20 c-27 -14 -49 -18 -67 -14 -42 10 -46 15 -26 30 10 7 14 14 8 14 -5 1 -17
3 -25 5 -65 17 -146 32 -150 29 -2 -3 22 -29 53 -58 31 -28 57 -55 57 -59 0
-4 -11 -7 -25 -7 -29 0 -141 125 -177 198 -31 65 -29 141 5 209 15 29 27 66
27 83 0 41 16 38 39 -7z m-12064 -30 c43 -30 56 -34 100 -31 45 3 50 1 47 -17
-7 -40 -44 -64 -111 -71 -70 -7 -116 37 -126 120 l-8 58 24 -13 c13 -7 46 -28
74 -46z m5054 -5 c8 -35 15 -99 16 -144 3 -66 -1 -91 -20 -139 -25 -61 -68
-113 -123 -147 -54 -33 -48 -13 12 45 31 29 56 56 56 59 0 4 -17 6 -37 5 -21
0 -45 3 -55 7 -12 5 -18 2 -23 -14 -4 -13 -18 -23 -37 -27 -29 -6 -30 -7 -13
-19 17 -13 17 -14 -6 -22 -23 -9 -46 -5 -99 16 l-25 10 37 33 c20 18 66 45
103 59 l66 25 50 130 c28 72 55 142 61 158 5 15 13 27 17 27 4 0 13 -28 20
-62z m12215 5 c-6 -63 -36 -111 -69 -113 -11 -1 -28 -3 -37 -5 -28 -5 -114 24
-133 45 -24 26 -13 35 45 36 73 2 91 9 135 54 55 57 67 53 59 -17z m-15905
-47 c16 -34 45 -127 65 -207 20 -80 43 -164 52 -185 13 -32 123 -162 146 -172
4 -2 14 22 24 52 10 31 20 56 24 56 3 0 14 -37 24 -82 9 -46 19 -92 22 -103 2
-11 6 -29 8 -40 2 -11 9 -42 16 -69 8 -37 8 -57 -1 -78 l-11 -28 -29 20 c-108
77 -375 674 -405 904 -3 28 -3 28 17 10 11 -10 33 -45 48 -78z m2655 88 c12
-5 16 -21 16 -69 0 -72 -15 -94 -49 -75 -17 9 -21 20 -21 67 0 41 4 59 18 69
21 16 17 15 36 8z m9097 -21 c14 -38 18 -95 7 -115 -15 -30 -35 -20 -58 28
-22 44 -22 48 -7 80 20 41 44 44 58 7z m2733 -10 c-34 -202 -128 -448 -253
-668 -22 -38 -44 -77 -48 -85 -4 -8 -11 -19 -15 -25 -5 -5 -26 -38 -48 -73
-45 -70 -70 -78 -80 -26 -7 33 -5 153 3 194 14 68 27 119 40 148 l13 33 27
-63 27 -62 31 30 c84 79 143 195 225 442 30 92 57 173 59 180 2 6 9 12 15 12
7 0 9 -13 4 -37z m-12426 -70 c14 -3 38 -1 54 5 67 25 39 -44 -47 -117 -14
-11 -20 -9 -44 15 -63 66 -121 171 -104 188 3 3 30 -15 60 -40 30 -24 67 -47
81 -51z m369 -3 c-3 -55 -8 -104 -12 -110 -8 -13 -105 -13 -139 0 -24 9 -32
25 -40 76 -6 34 4 34 63 4 55 -27 60 -28 74 -12 9 9 23 45 33 80 9 34 19 62
22 62 2 0 2 -45 -1 -100z m9576 -56 c4 -5 68 20 120 48 14 7 17 4 17 -15 0
-40 -41 -91 -81 -101 -84 -21 -115 21 -117 153 l-2 76 29 -78 c16 -43 31 -80
34 -83z m461 134 c-13 -42 -34 -86 -46 -100 -7 -7 -21 -25 -31 -40 -9 -15 -29
-35 -43 -44 -25 -17 -26 -16 -65 27 -21 24 -39 46 -39 50 0 4 -3 14 -6 22 -4
13 1 14 28 8 51 -11 95 5 141 54 46 49 73 59 61 23z m-1004 -64 c0 -17 -13
-51 -31 -78 -33 -52 -45 -56 -30 -10 5 16 17 56 26 88 17 63 35 63 35 0z
m-8531 14 c19 -42 52 -150 48 -154 -7 -7 -49 58 -63 98 -26 74 -13 121 15 56z
m1203 6 c10 -20 9 -27 -2 -34 -19 -12 -40 7 -40 36 0 32 27 31 42 -2z m6118 6
c6 -12 7 -20 1 -20 -5 0 -17 -7 -26 -16 -22 -22 -27 -13 -14 24 13 37 24 40
39 12z m370 -12 c0 -5 -4 -8 -10 -8 -5 0 -10 10 -10 23 0 18 2 19 10 7 5 -8
10 -18 10 -22z m-7880 -53 c0 -65 -15 -75 -39 -26 -20 39 -21 43 -6 72 16 29
17 30 30 12 8 -10 14 -36 15 -58z m1836 27 c-9 -8 -26 10 -26 26 1 15 2 15 15
-2 8 -11 13 -21 11 -24z m5193 12 c-15 -18 -22 -13 -13 10 3 9 10 13 16 10 5
-3 4 -12 -3 -20z m1889 14 c14 -14 16 -104 3 -113 -16 -9 -31 30 -31 79 0 47
7 55 28 34z m-8080 -34 c-2 -36 -18 -60 -18 -27 0 22 11 63 16 63 3 0 4 -16 2
-36z m7205 -3 c11 -19 14 -32 7 -36 -5 -3 -15 6 -20 21 -6 15 -13 31 -16 35
-3 5 -1 9 3 9 5 0 16 -13 26 -29z m-6519 3 c11 -28 6 -54 -9 -54 -10 0 -15 11
-15 35 0 36 13 47 24 19z m5834 -13 c2 -13 -1 -28 -6 -33 -13 -13 -34 25 -26
47 9 22 28 13 32 -14z m-5953 -31 c16 -32 19 -50 8 -50 -9 0 -33 49 -33 67 0
21 8 15 25 -17z m6068 -11 c-3 -11 -14 -24 -25 -30 -18 -10 -19 -8 -13 13 4
12 9 31 12 41 3 14 8 15 18 7 7 -6 11 -20 8 -31z m-6433 -24 c0 -5 -5 -3 -10
5 -5 8 -10 20 -10 25 0 6 5 3 10 -5 5 -8 10 -19 10 -25z m6800 15 c0 -11 -4
-20 -9 -20 -5 0 -7 9 -4 20 3 11 7 20 9 20 2 0 4 -9 4 -20z m-7559 -181 c47
-79 84 -169 68 -169 -17 0 -104 97 -128 142 -21 41 -51 138 -51 166 0 20 65
-61 111 -139z m8425 88 c-7 -49 -29 -87 -109 -187 -35 -45 -67 -76 -74 -73 -7
3 -10 10 -5 17 4 7 45 76 91 154 47 77 89 138 94 135 4 -3 6 -23 3 -46z
m-8801 -14 c9 -36 -17 -62 -41 -43 -29 25 -37 60 -18 81 16 18 19 18 35 3 9
-8 20 -27 24 -41z m9155 7 c0 -9 -9 -25 -20 -35 -17 -15 -24 -16 -45 -7 -28
13 -25 32 8 69 19 22 22 22 39 6 10 -9 18 -24 18 -33z m-7642 28 c15 -15 16
-58 2 -58 -10 0 -30 41 -30 61 0 13 14 11 28 -3z m-760 -35 c-14 -17 -52 -39
-46 -26 30 61 31 63 45 52 10 -9 11 -15 1 -26z m508 5 c4 -18 8 -39 7 -45 0
-7 -1 -23 -2 -35 -2 -42 -22 -3 -28 56 -6 62 10 79 23 24z m6296 2 c-2 -14 0
-20 7 -16 6 4 20 2 32 -5 l21 -11 -21 -21 -20 -21 -30 30 c-33 32 -37 44 -19
62 18 18 33 9 30 -18z m262 -25 c-2 -12 -11 -36 -19 -51 l-16 -29 5 45 c2 25
5 56 6 70 1 23 1 24 15 7 7 -10 12 -29 9 -42z m521 13 c18 -33 18 -33 -1 -18
-22 17 -34 32 -34 43 0 17 17 5 35 -25z m-7505 7 c0 -9 -6 -12 -15 -9 -8 4
-12 10 -9 15 8 14 24 10 24 -6z m7405 5 c3 -5 1 -10 -4 -10 -6 0 -11 5 -11 10
0 6 2 10 4 10 3 0 8 -4 11 -10z m-6756 -28 c6 -12 5 -23 -3 -35 -12 -16 -14
-16 -29 1 -11 12 -13 22 -6 35 13 22 26 22 38 -1z m195 -53 c-10 -16 -24 -9
-24 12 0 18 2 19 15 9 8 -7 12 -16 9 -21z m6716 -2 c0 -5 -4 -5 -10 -2 -5 3
-10 14 -10 23 0 15 2 15 10 2 5 -8 10 -19 10 -23z m-7705 14 c3 -5 1 -12 -5
-16 -5 -3 -10 1 -10 9 0 18 6 21 15 7z m6705 4 c0 -2 -9 -9 -20 -15 -16 -9
-20 -8 -20 5 0 8 9 15 20 15 11 0 20 -2 20 -5z m1545 -65 c-6 -25 -52 -80 -66
-80 -14 0 0 60 23 101 21 37 23 39 36 22 7 -10 10 -29 7 -43z m-8757 2 c13
-23 22 -52 20 -64 -3 -21 -4 -20 -33 10 -28 30 -49 85 -37 97 12 11 28 -3 50
-43z m6938 -16 c-4 -16 -14 -38 -23 -49 -16 -17 -18 -17 -30 -1 -20 27 -16 65
9 91 21 23 23 23 36 6 8 -11 11 -30 8 -47z m-5604 9 c-5 -30 -4 -30 -31 -6
-20 18 -20 20 -5 35 21 22 43 5 36 -29z m6055 22 c10 -7 9 -12 -3 -24 -18 -19
-44 -10 -39 14 2 10 4 22 4 26 1 8 15 2 38 -16z m-6367 -49 c0 -20 -23 -61
-54 -95 -64 -71 -193 -121 -332 -130 -160 -10 -263 28 -308 114 -22 45 -21 47
17 25 65 -41 156 -63 251 -64 96 0 150 13 239 59 52 26 147 113 147 135 0 13
39 -30 40 -44z m6882 -93 c151 -74 292 -74 438 -1 28 14 50 24 50 22 0 -2 -7
-17 -15 -34 -60 -119 -268 -151 -501 -76 -66 20 -94 37 -147 82 -59 51 -65 60
-60 86 9 50 11 61 12 63 1 1 36 -23 79 -54 42 -30 107 -70 144 -88z m-6642 94
c0 -5 -4 -9 -10 -9 -5 0 -10 7 -10 16 0 8 5 12 10 9 6 -3 10 -10 10 -16z
m6180 -9 c-18 -11 -24 -6 -16 16 5 14 9 15 19 5 9 -9 9 -14 -3 -21z m-7560
-55 c19 -31 20 -36 6 -50 -13 -14 -18 -12 -40 22 -15 21 -26 48 -26 61 0 19 3
21 19 12 11 -5 29 -26 41 -45z m9010 34 c0 -12 -14 -39 -32 -61 -29 -37 -33
-39 -44 -23 -11 15 -9 24 17 61 32 47 59 57 59 23z m-1617 -24 c-5 -13 -23
-22 -23 -11 0 15 14 35 21 31 4 -3 6 -12 2 -20z m-5859 0 c3 -8 1 -15 -4 -15
-6 0 -10 7 -10 15 0 8 2 15 4 15 2 0 6 -7 10 -15z m9781 -37 c-33 -157 -150
-410 -228 -492 -45 -48 -98 -78 -112 -64 -6 6 -35 223 -35 262 0 29 1 29 14
11 7 -11 19 -44 27 -73 12 -50 39 -92 59 -92 5 0 27 19 49 42 44 45 94 135
135 243 53 137 79 195 88 195 5 0 7 -14 3 -32z m-13589 -29 c14 -22 47 -97 74
-166 69 -175 118 -253 159 -253 29 0 45 38 58 133 8 66 25 45 28 -36 2 -53
-24 -200 -38 -214 -2 -1 -23 3 -46 10 -37 10 -48 21 -81 75 -86 142 -231 523
-190 497 6 -4 22 -25 36 -46z m9838 -4 c-6 -16 -24 -21 -24 -7 0 11 11 22 21
22 5 0 6 -7 3 -15z m-7335 -31 c3 -16 1 -17 -13 -5 -19 16 -21 34 -3 29 6 -3
14 -13 16 -24z m8511 17 c0 -13 -29 -35 -37 -28 -7 8 15 37 28 37 5 0 9 -4 9
-9z m-7280 -21 c15 -10 23 -110 11 -144 -6 -16 -10 -15 -36 15 -23 28 -25 35
-11 37 11 3 16 14 16 40 l-1 37 -16 -30 c-14 -24 -18 -27 -21 -12 -4 18 22 67
36 67 4 0 14 -4 22 -10z m6038 1 c7 -4 15 -22 17 -39 3 -24 1 -30 -11 -25 -7
3 -14 10 -14 16 0 6 -3 7 -6 4 -4 -4 0 -17 9 -30 15 -23 14 -27 -8 -57 l-24
-33 -10 24 c-9 26 -8 92 3 127 8 23 22 27 44 13z m3395 -48 c-15 -91 -172
-513 -191 -513 -9 0 -10 5 -4 18 5 9 46 127 91 262 45 135 84 251 86 258 10
28 23 10 18 -25z m-12770 -20 c31 -61 76 -187 120 -333 57 -189 56 -198 -9
-95 -48 74 -108 248 -130 368 -22 125 -18 135 19 60z m1988 -66 c13 -51 -2
-70 -26 -33 -22 34 -44 95 -45 125 0 22 2 21 30 -14 16 -21 35 -56 41 -78z
m8779 29 c-6 -19 -21 -46 -34 -61 -23 -26 -24 -27 -30 -7 -5 13 6 40 31 83 31
52 39 60 41 41 2 -12 -2 -38 -8 -56z m-1260 20 c0 -2 -7 -9 -15 -16 -12 -10
-15 -10 -15 4 0 9 7 16 15 16 8 0 15 -2 15 -4z m-6310 -16 c0 -5 -2 -10 -4
-10 -3 0 -8 5 -11 10 -3 6 -1 10 4 10 6 0 11 -4 11 -10z m6635 -50 c6 -10 -32
-49 -48 -50 -4 0 -1 14 8 30 16 31 29 37 40 20z m-6945 -20 c6 -11 9 -20 7
-20 -2 0 -12 9 -22 20 -10 11 -13 20 -7 20 6 0 16 -9 22 -20z m389 -21 l19
-41 -32 -77 c-31 -78 -72 -148 -61 -106 2 11 7 52 10 91 3 40 10 86 15 103 5
17 7 31 4 31 -3 0 0 9 6 20 15 28 18 26 39 -21z m6159 16 c40 -51 53 -165 38
-337 -4 -49 -9 -96 -10 -105 -2 -10 -7 -44 -10 -75 -5 -41 -12 -58 -22 -58
-12 0 -13 15 -8 93 15 199 1 337 -42 402 -12 18 -12 24 1 41 8 10 15 29 15 42
0 29 14 28 38 -3z m-6913 -1 c14 -15 14 -18 -10 -40 -30 -27 -72 -31 -101 -9
-18 15 -18 16 11 40 34 29 76 32 100 9z m7565 -3 c0 -16 -27 -37 -36 -28 -4 4
25 47 32 47 2 0 4 -9 4 -19z m189 3 c14 -13 8 -45 -11 -59 -33 -23 -61 -18
-93 15 -23 24 -26 32 -15 45 9 11 24 13 64 9 28 -4 53 -8 55 -10z m205 7 c3
-5 -1 -14 -9 -21 -13 -10 -15 -9 -15 9 0 21 14 28 24 12z m-8354 -22 c0 -5 -4
-9 -10 -9 -5 0 -10 7 -10 16 0 8 5 12 10 9 6 -3 10 -10 10 -16z m115 12 c10
-17 -12 -21 -25 -6 -10 12 -10 15 3 15 9 0 18 -4 22 -9z m380 -11 c10 -11 14
-20 8 -20 -5 0 -18 9 -28 20 -10 11 -14 20 -8 20 5 0 18 -9 28 -20z m114 9
c17 -6 36 -20 42 -30 9 -17 6 -19 -30 -19 -30 0 -44 6 -55 22 -12 17 -13 24
-3 30 6 4 12 8 13 8 1 0 15 -5 33 -11z m7252 -5 c11 -14 11 -18 -4 -29 -19
-14 -79 -15 -87 -1 -4 8 55 46 71 46 4 0 13 -7 20 -16z m593 1 c-4 -8 -8 -15
-10 -15 -2 0 -4 7 -4 15 0 8 4 15 10 15 5 0 7 -7 4 -15z m-7585 -39 c9 -11 8
-15 -5 -20 -23 -9 -24 -8 -24 14 0 23 13 26 29 6z m6712 -19 c-5 -5 -17 -7
-26 -3 -14 5 -15 9 -5 21 10 12 16 13 27 4 9 -8 10 -16 4 -22z m-6842 -46
c-14 -4 -16 -1 -24 34 l-7 30 21 -30 c12 -17 16 -31 10 -34z m225 28 c-10 -16
-24 -9 -24 12 0 18 2 19 15 9 8 -7 12 -16 9 -21z m6516 17 c0 -8 -4 -17 -9
-21 -12 -7 -24 12 -16 25 9 15 25 12 25 -4z m240 -18 c0 -10 -40 -31 -47 -25
-2 3 3 17 13 32 13 20 19 23 25 13 5 -7 9 -16 9 -20z m-7520 -78 c-18 -11 -22
-7 -14 14 5 13 10 14 18 6 8 -8 7 -13 -4 -20z m790 15 c14 9 30 -37 18 -52 -5
-7 -7 -26 -3 -42 9 -41 8 -46 -11 -46 -22 0 -68 124 -52 142 8 10 14 10 24 2
7 -6 18 -8 24 -4z m6476 -75 c-24 -67 -32 -75 -54 -61 -11 6 -11 13 -1 35 10
21 10 32 1 46 -16 25 -5 52 18 45 11 -4 20 1 24 11 6 15 9 16 21 3 12 -12 11
-23 -9 -79z m784 66 c14 -18 14 -19 -8 -7 -12 7 -20 17 -16 22 3 6 7 9 8 7 1
-2 8 -12 16 -22z m-7837 -37 c43 -23 50 -54 10 -44 -29 7 -43 21 -43 43 0 15
5 15 33 1z m7651 -11 c-8 -13 -75 -41 -81 -34 -11 11 48 54 67 49 11 -3 17
-10 14 -15z m-7202 -37 c15 -26 25 -51 21 -55 -25 -24 -74 33 -66 77 3 15 8
27 12 27 3 0 18 -22 33 -49z m6746 27 c8 -8 8 -17 0 -32 -14 -27 -49 -66 -60
-66 -13 0 -9 34 7 74 16 37 32 45 53 24z m-7034 -14 c23 -22 20 -37 -4 -24
-11 6 -20 17 -20 25 0 19 5 19 24 -1z m7310 -9 c-3 -7 -14 -15 -25 -18 -10 -3
-17 -2 -16 1 2 4 7 15 10 24 4 10 12 15 21 12 8 -3 12 -12 10 -19z m-7242 -23
c-19 -6 -44 6 -37 18 4 7 14 6 28 -2 14 -7 17 -13 9 -16z m7172 22 c25 -9 19
-24 -9 -24 -24 0 -32 10 -18 23 8 8 8 8 27 1z m-7126 -56 c7 -7 12 -25 12 -40
0 -34 -22 -37 -44 -7 -11 17 -12 25 -3 40 14 22 19 23 35 7z m7092 -28 c0 -25
-15 -40 -40 -40 -18 0 -22 42 -5 60 22 25 45 15 45 -20z m545 10 c24 -158 32
-199 54 -271 12 -36 32 -75 50 -93 28 -29 30 -34 17 -52 -14 -18 -15 -18 -40
11 -57 66 -103 210 -111 348 -4 69 -3 78 12 75 9 -2 17 -10 18 -18z m-8178
-63 c4 -95 -60 -274 -121 -340 -35 -37 -50 -26 -30 21 26 61 104 308 104 330
0 6 5 23 10 38 16 40 34 16 37 -49z m215 -91 c16 -24 6 -45 -54 -104 -69 -69
-70 -69 -83 20 -3 24 -8 50 -11 60 -7 25 12 31 41 12 20 -13 28 -14 40 -4 8 7
15 19 15 27 0 16 40 8 52 -11z m578 -8 c0 -17 -3 -28 -7 -24 -9 9 -13 38 -7
48 10 15 14 8 14 -24z m6543 -39 c-10 -27 -10 -29 13 -29 16 0 22 -4 18 -14
-12 -31 -75 -24 -80 8 -3 20 14 75 30 95 17 22 32 -24 19 -60z m651 39 c13
-19 16 -19 46 -3 17 9 35 14 38 10 14 -13 5 -114 -12 -140 l-17 -26 -60 58
c-57 56 -60 61 -54 95 6 29 10 35 26 31 11 -3 26 -14 33 -25z m-7564 -42 c0
-34 -5 -58 -14 -65 -20 -17 -24 2 -12 66 12 68 26 68 26 -1z m7309 21 c5 -13
12 -40 15 -61 5 -32 4 -37 -11 -34 -14 2 -19 15 -21 61 -3 60 3 72 17 34z
m-2219 -79 c0 -5 -4 -8 -10 -8 -5 0 -10 10 -10 23 0 18 2 19 10 7 5 -8 10 -18
10 -22z m1715 2 c19 -37 19 -37 -10 -42 -22 -5 -24 -3 -18 21 3 14 6 31 6 38
0 20 5 16 22 -17z m-50 -37 c-4 -16 -11 -55 -16 -88 -11 -66 -15 -73 -29 -59
-6 6 -5 37 5 88 8 43 15 80 15 82 0 2 7 4 16 4 13 0 15 -6 9 -27z m-7592 -116
c-7 -32 -31 -96 -54 -143 -36 -75 -44 -84 -68 -84 -15 0 -32 5 -37 10 -7 7
-18 2 -34 -15 -13 -14 -29 -25 -37 -25 -16 0 -16 -3 3 54 12 35 20 45 33 42
66 -20 67 -19 99 29 17 26 43 84 58 128 33 100 36 106 44 81 4 -10 1 -45 -7
-77z m151 44 c-15 -63 -36 -129 -53 -160 l-18 -35 -17 32 c-19 38 -15 63 26
144 23 45 32 55 48 51 16 -4 19 -11 14 -32z m5746 33 c0 -3 -7 -12 -15 -20
-13 -14 -15 -13 -15 5 0 12 6 21 15 21 8 0 15 -3 15 -6z m2967 -11 c3 -10 21
-41 39 -69 29 -43 32 -55 25 -81 -5 -18 -7 -33 -5 -36 3 -2 -2 -10 -11 -17
-13 -11 -19 -3 -45 52 -38 81 -51 168 -26 168 9 0 19 -8 23 -17z m146 -35 c14
-29 28 -64 32 -78 11 -42 43 -105 58 -119 13 -10 21 -9 45 3 29 15 30 15 56
-19 14 -18 26 -43 26 -54 0 -25 2 -24 -46 -8 -22 8 -51 12 -65 10 -21 -3 -31
4 -52 34 -51 75 -97 202 -97 269 0 29 19 12 43 -38z m-6909 27 c3 -8 1 -15 -4
-15 -6 0 -10 7 -10 15 0 8 2 15 4 15 2 0 6 -7 10 -15z m132 -178 c14 5 16 0
11 -42 -4 -26 -8 -50 -11 -52 -2 -2 -18 24 -36 58 -31 62 -31 62 -6 46 14 -9
32 -14 42 -10z m3517 8 c-3 -9 -8 -14 -10 -11 -3 3 -2 9 2 15 9 16 15 13 8 -4z
m-3422 -191 c6 -22 19 -46 31 -53 17 -10 22 -9 37 8 25 29 37 26 50 -11 9 -25
9 -30 0 -21 -9 9 -21 5 -49 -17 -35 -28 -38 -29 -53 -12 -13 15 -34 74 -43
121 -2 8 -5 26 -9 40 -5 25 -5 25 10 6 9 -11 21 -38 26 -61z m3244 5 c-6 -28
-13 -35 -25 -23 -13 13 -2 44 15 44 9 0 12 -8 10 -21z m-221 -107 c-20 -19
-24 -13 -12 18 7 19 11 21 18 11 5 -9 3 -20 -6 -29z m-2214 -186 c0 -3 -4 -8
-10 -11 -5 -3 -10 -1 -10 4 0 6 5 11 10 11 6 0 10 -2 10 -4z m1255 -16 c3 -5
1 -10 -4 -10 -6 0 -11 5 -11 10 0 6 2 10 4 10 3 0 8 -4 11 -10z m-41 -55 c-4
-8 -8 -15 -10 -15 -2 0 -4 7 -4 15 0 8 4 15 10 15 5 0 7 -7 4 -15z m-1196 -20
c-3 -3 -9 2 -12 12 -6 14 -5 15 5 6 7 -7 10 -15 7 -18z m66 -20 c-4 -8 -8 -15
-10 -15 -2 0 -4 7 -4 15 0 8 4 15 10 15 5 0 7 -7 4 -15z m-3464 -132 c0 -19
-3 -24 -10 -17 -6 6 -8 18 -4 27 9 24 14 21 14 -10z m9490 -14 c0 -21 -20 -27
-21 -6 0 6 -2 20 -4 30 -3 15 -1 16 11 6 8 -6 14 -20 14 -30z m-10857 -96 c-4
-9 -14 -8 -41 1 -27 9 -38 20 -40 37 -7 51 -27 40 -67 -38 -8 -14 -16 -19 -25
-13 -10 6 -3 22 30 68 l42 61 52 -52 c29 -29 51 -57 49 -64z m873 89 c-18 -16
-18 -16 -6 6 6 13 14 21 18 18 3 -4 -2 -14 -12 -24z m54 2 c0 -8 -5 -12 -10
-9 -6 4 -8 11 -5 16 9 14 15 11 15 -7z m11449 -44 c46 -67 47 -70 26 -70 -9 0
-20 12 -26 28 -6 15 -16 38 -21 52 l-11 25 -11 -28 c-7 -19 -27 -37 -58 -53
l-48 -24 47 65 c26 36 50 65 54 65 4 0 26 -27 48 -60z m-1069 46 c0 -3 -4 -8
-10 -11 -5 -3 -10 -1 -10 4 0 6 5 11 10 11 6 0 10 -2 10 -4z m-10845 -66 c-3
-5 -11 -10 -16 -10 -6 0 -7 5 -4 10 3 6 11 10 16 10 6 0 7 -4 4 -10z m11275
-34 c0 -2 -7 -7 -16 -10 -8 -3 -12 -2 -9 4 6 10 25 14 25 6z m-11314 -54 c-11
-10 -15 4 -8 28 l7 25 3 -23 c2 -13 1 -26 -2 -30z m11766 7 c-8 -33 -24 -38
-29 -9 -2 15 27 54 34 46 2 -2 0 -19 -5 -37z m-12382 16 c0 -9 -6 -12 -15 -9
-8 4 -12 10 -9 15 8 14 24 10 24 -6z m268 -27 c-8 -23 -24 -18 -42 13 l-18 31
32 -17 c17 -9 30 -21 28 -27z m11735 22 c3 -11 1 -20 -4 -20 -5 0 -9 9 -9 20
0 11 2 20 4 20 2 0 6 -9 9 -20z m637 5 c10 -12 10 -15 -4 -15 -9 0 -16 7 -16
15 0 8 2 15 4 15 2 0 9 -7 16 -15z m-9585 -5 c35 0 -33 -47 -89 -61 -60 -14
-167 -12 -261 6 -11 2 -24 4 -29 4 -5 1 -3 7 3 15 15 18 65 27 180 32 52 2 97
7 100 10 3 3 21 3 41 0 19 -3 44 -5 55 -6z m6170 -5 c128 -6 145 -10 145 -35
0 -26 -35 -32 -190 -35 -150 -3 -233 15 -279 60 l-25 24 120 -4 c65 -3 168 -7
229 -10z m-4895 -40 c0 -13 -4 -27 -10 -30 -6 -4 -10 8 -10 30 0 22 4 34 10
30 6 -3 10 -17 10 -30z m2743 15 c3 -11 1 -20 -4 -20 -5 0 -9 9 -9 20 0 11 2
20 4 20 2 0 6 -9 9 -20z m5267 1 c0 -5 -7 -12 -16 -15 -24 -9 -28 -7 -14 9 14
17 30 20 30 6z m-11935 -32 c3 -4 1 -11 -5 -14 -11 -7 -40 11 -40 25 0 10 38
1 45 -11z m11844 2 c-13 -11 -28 -17 -33 -14 -11 7 22 33 42 33 9 0 6 -7 -9
-19z m-11699 5 c0 -11 -19 -15 -25 -6 -3 5 1 10 9 10 9 0 16 -2 16 -4z m11540
0 c0 -11 -19 -15 -25 -6 -3 5 1 10 9 10 9 0 16 -2 16 -4z m-11652 -31 c-3 -3
-9 2 -12 12 -6 14 -5 15 5 6 7 -7 10 -15 7 -18z m2982 5 c-13 -25 -78 -69
-154 -104 -129 -60 -328 -93 -389 -65 -61 28 -5 70 57 44 66 -28 104 -20 298
64 101 44 187 80 191 80 4 1 3 -8 -3 -19z m5129 -39 c285 -89 465 -113 542
-72 35 19 36 19 67 -1 131 -83 -190 -84 -510 -2 -10 2 -26 6 -35 8 -95 22
-267 101 -257 118 3 5 13 7 22 3 9 -3 86 -28 171 -54z m3641 44 c0 -9 -6 -12
-15 -9 -8 4 -12 10 -9 15 8 14 24 10 24 -6z m-5133 -132 c-2 -21 -4 -4 -4 37
0 41 2 58 4 38 2 -21 2 -55 0 -75z m-3387 -2 c0 -43 -264 -189 -373 -206 -41
-7 -41 -6 -27 47 10 35 12 36 58 36 26 1 70 6 97 12 60 13 186 74 211 101 18
20 34 25 34 10z m667 -23 c-3 -7 -5 -2 -5 12 0 14 2 19 5 13 2 -7 2 -19 0 -25z
m3878 -51 c158 -64 239 -78 299 -53 35 14 35 14 62 -21 19 -25 23 -38 15 -46
-17 -17 -148 -12 -221 8 -118 32 -360 157 -360 186 0 5 14 3 33 -4 17 -8 95
-39 172 -70z m-4465 24 c0 -28 10 -31 41 -16 37 19 38 19 31 -7 -8 -31 -52
-78 -74 -78 -16 0 -18 9 -18 66 0 41 4 63 10 59 6 -3 10 -14 10 -24z m4187
-36 c12 -60 -17 -78 -82 -51 -38 16 -82 82 -48 73 69 -19 72 -18 89 15 l17 33
10 -25 c5 -14 12 -34 14 -45z m-1063 -67 c-4 -35 -10 -67 -15 -72 -5 -5 -6 6
-4 25 8 51 13 93 14 102 1 4 3 7 6 7 3 0 2 -28 -1 -62z m163 40 c-3 -8 -6 -5
-6 6 -1 11 2 17 5 13 3 -3 4 -12 1 -19z m-1523 -26 c-9 -33 -21 -27 -16 9 2
17 8 27 13 22 5 -5 6 -18 3 -31z m1150 -61 c-5 -86 -14 -72 -13 20 1 52 4 74
8 59 4 -14 6 -49 5 -79z m-2314 53 c0 -8 -4 -12 -10 -9 -5 3 -10 10 -10 16 0
5 5 9 10 9 6 0 10 -7 10 -16z m2590 -16 c0 -5 -4 -8 -10 -8 -5 0 -10 10 -10
23 0 18 2 19 10 7 5 -8 10 -18 10 -22z m-2330 -92 c-7 -7 -10 8 -9 50 l1 59
10 -49 c6 -33 6 -52 -2 -60z m-143 32 c-3 -7 -5 -2 -5 12 0 14 2 19 5 13 2 -7
2 -19 0 -25z m-103 -21 c32 -31 48 -81 44 -129 -3 -27 -8 -51 -12 -55 -14 -14
-18 1 -50 175 -5 25 0 28 18 9z m114 -22 c-3 -3 -9 2 -12 12 -6 14 -5 15 5 6
7 -7 10 -15 7 -18z m2386 10 c-4 -8 -8 -15 -10 -15 -2 0 -4 7 -4 15 0 8 4 15
10 15 5 0 7 -7 4 -15z m-129 -41 c16 -39 20 -62 8 -50 -9 8 -33 86 -27 86 2 0
11 -16 19 -36z m-90 -46 c-4 -29 -9 -55 -12 -58 -3 -3 -3 15 0 40 3 25 6 51 6
58 1 6 4 12 7 12 3 0 2 -24 -1 -52z m-2019 -61 c4 -86 -11 -48 -19 48 -4 44
-3 55 4 42 6 -10 12 -51 15 -90z m2007 -39 c-8 -47 -14 -49 -11 -5 1 20 6 37
10 37 4 0 5 -15 1 -32z m-5375 -50 c-2 -6 -10 -14 -16 -16 -7 -2 -10 2 -6 12
7 18 28 22 22 4z m10107 -8 c3 -5 2 -10 -4 -10 -5 0 -13 5 -16 10 -3 6 -2 10
4 10 5 0 13 -4 16 -10z m-6187 -30 c-7 -10 -14 -18 -15 -16 -6 6 9 36 18 36 5
0 4 -9 -3 -20z m-3938 -12 c0 -18 -56 -57 -82 -58 -37 0 -35 9 13 47 37 29 69
35 69 11z m10213 -26 c26 -23 21 -32 -20 -32 -44 1 -83 28 -83 59 0 20 1 21
43 4 23 -9 50 -23 60 -31z m-7597 -317 c-14 -31 -18 -26 -10 14 4 19 10 28 14
21 4 -7 2 -22 -4 -35z m32 -156 c-3 -8 -7 -3 -11 10 -4 17 -3 21 5 13 5 -5 8
-16 6 -23z m356 -384 c-4 -8 -8 -15 -10 -15 -2 0 -4 7 -4 15 0 8 4 15 10 15 5
0 7 -7 4 -15z m2331 5 c3 -5 1 -10 -4 -10 -6 0 -11 5 -11 10 0 6 2 10 4 10 3
0 8 -4 11 -10z m-1485 -304 c27 -74 38 -168 39 -366 2 -214 9 -317 28 -400 1
-8 6 -47 9 -86 8 -91 -5 -150 -66 -284 -54 -120 -75 -177 -97 -270 -23 -99
-29 -129 -39 -199 -4 -25 -8 -55 -10 -65 -18 -102 -25 -433 -12 -577 7 -70 20
-146 35 -193 4 -16 -8 -12 -71 22 -43 23 -107 63 -144 89 -62 44 -265 238
-322 308 -13 17 -80 100 -149 185 -131 164 -153 187 -216 229 -22 14 -46 31
-52 38 -7 6 -23 20 -36 30 -13 10 -33 32 -45 48 -21 29 -22 37 -22 310 0 154
2 296 5 315 2 19 7 58 11 85 14 109 76 247 128 285 11 8 73 40 137 70 106 50
122 61 168 117 28 35 65 70 81 78 17 9 30 19 30 24 0 5 7 11 15 15 13 5 15 -5
9 -72 -3 -42 -2 -88 3 -101 9 -23 10 -22 41 26 41 63 65 85 85 77 27 -10 46
-91 48 -207 1 -33 5 -55 9 -50 4 4 29 55 55 113 26 58 71 155 101 215 29 61
55 128 59 150 3 22 10 44 16 50 8 7 10 4 6 -10 -20 -76 -20 -79 3 -64 12 8 29
26 38 41 13 23 14 33 5 58 -12 32 -6 81 8 59 6 -10 12 -9 31 3 22 15 24 14 41
-15 10 -16 27 -53 37 -81z m1871 -597 c57 -18 179 -65 234 -90 11 -4 61 -26
110 -48 159 -69 329 -152 364 -178 46 -35 76 -107 101 -243 12 -63 30 -140 41
-170 74 -198 87 -275 61 -345 -22 -59 -90 -157 -186 -269 -46 -55 -90 -111
-98 -125 -7 -14 -15 -28 -18 -31 -3 -3 -18 -30 -34 -60 -41 -77 -137 -230
-204 -325 -83 -116 -281 -311 -367 -360 -38 -22 -79 -50 -92 -62 -12 -13 -26
-23 -30 -23 -4 0 -29 51 -55 114 -42 99 -56 122 -105 169 l-57 54 0 79 c0 47
7 110 18 154 21 81 25 172 10 235 -5 22 -9 105 -9 185 0 132 5 199 21 300 6
40 63 326 69 353 3 9 7 25 9 35 2 9 13 56 25 104 11 48 22 98 25 110 2 13 12
52 21 88 9 36 19 74 21 84 2 11 12 63 23 115 10 53 22 113 25 134 4 20 8 37
10 37 1 0 32 -9 67 -21z m-1471 -1121 c115 -111 155 -189 271 -521 87 -251
100 -276 200 -376 44 -45 64 -83 123 -230 34 -87 77 -173 108 -220 59 -88 199
-284 208 -291 3 -3 24 -29 47 -58 l42 -53 -100 -134 c-116 -156 -146 -216
-164 -326 -12 -76 -13 -279 -1 -344 2 -16 8 -50 11 -75 21 -144 61 -297 111
-422 46 -116 87 -179 161 -249 74 -70 123 -129 123 -149 0 -10 -28 -29 -71
-51 -79 -38 -139 -92 -239 -214 -36 -44 -78 -95 -95 -114 -49 -54 -256 -202
-415 -295 -113 -67 -153 -88 -147 -79 12 20 205 481 252 603 63 163 124 350
140 430 2 8 10 42 18 75 9 33 19 83 23 110 5 28 9 52 9 55 20 93 37 311 39
522 1 100 7 191 15 216 12 42 9 63 -21 162 -46 149 -121 292 -214 407 -25 31
-39 63 -54 127 -21 91 -30 106 -151 250 -39 46 -135 189 -153 228 -26 58 -54
150 -71 238 -48 253 -61 306 -102 430 -59 174 -64 246 -27 418 l5 23 42 -30
c23 -16 58 -44 77 -63z m1331 -2172 c29 -35 63 -104 74 -150 11 -49 7 -160 -9
-258 -28 -174 -33 -221 -30 -297 1 -42 0 -79 -3 -84 -7 -12 -71 90 -79 127 -3
17 -9 36 -12 41 -4 6 -7 15 -8 22 -11 71 -15 113 -19 198 -9 180 -16 239 -37
300 -11 33 -24 65 -29 72 -7 8 1 27 26 62 l37 51 31 -26 c18 -15 44 -41 58
-58z"/>
<path d="M13692 22325 c0 -16 2 -22 5 -12 2 9 2 23 0 30 -3 6 -5 -1 -5 -18z"/>
<path d="M18722 18568 c-17 -17 -15 -24 8 -25 21 -2 24 5 12 24 -6 10 -11 10
-20 1z"/>
</g>
</svg>
